<mxfile host="app.diagrams.net" agent="Mozilla/5.0 (Windows NT 10.0; Win64; x64) AppleWebKit/537.36 (KHTML, like Gecko) Chrome/139.0.0.0 Safari/537.36" version="28.1.0">
  <diagram name="Page-1" id="rymFYncGlS9mAi4vipQx">
    <mxGraphModel dx="1585" dy="860" grid="1" gridSize="10" guides="1" tooltips="1" connect="1" arrows="1" fold="1" page="1" pageScale="1" pageWidth="2000" pageHeight="1200" math="0" shadow="0">
      <root>
        <mxCell id="0" />
        <mxCell id="1" parent="0" />
        <mxCell id="MZbiuC9MWwI_tDUP7E_b-20" value="" style="rounded=1;whiteSpace=wrap;html=1;" vertex="1" parent="1">
          <mxGeometry x="20" y="140" width="1400" height="450" as="geometry" />
        </mxCell>
        <mxCell id="MZbiuC9MWwI_tDUP7E_b-4" value="" style="edgeStyle=orthogonalEdgeStyle;rounded=0;orthogonalLoop=1;jettySize=auto;html=1;" edge="1" parent="1" source="MZbiuC9MWwI_tDUP7E_b-2" target="MZbiuC9MWwI_tDUP7E_b-3">
          <mxGeometry relative="1" as="geometry" />
        </mxCell>
        <mxCell id="MZbiuC9MWwI_tDUP7E_b-2" value="ESP8266 + DHT11 Sensor" style="shape=image;verticalLabelPosition=bottom;labelBackgroundColor=default;verticalAlign=top;aspect=fixed;imageAspect=0;image=data:image/png,iVBORw0KGgoAAAANSUhEUgAAAkkAAAIeCAYAAACvC5t7AAAAAXNSR0IArs4c6QAAAARnQU1BAACxjwv8YQUAAAAJcEhZcwAADsMAAA7DAcdvqGQAAP+lSURBVHhe7J0HfNTkG8efLrqglJYNZe8pW/begihD/iggoiIbRUVliKCyhyAgGwVRtiiKgyl7gyBT9m5poXu3//zeJu2N5C65y7XX9v3yeWneXHq5u16SX57p4ufnl0oi4eHh4pJ6Tp06TytXfkfnz5+jqIinFBsbRSmJsZSamixuweFwnAsXcnX3Ik8vX/LJ60elS5ejXr17Us+Xu5Crq6u4DYfD4XBsEklPnoTRB+Mm0YnDf1N87FNxrfORnJJK8cnpb4/DcTq83AXB4uIizrIWFzcvKlexJn02ZSI1alhHXMvhcDi5F00iKS4+nj74YDL9sWMTpabEi2udlyRBJCVwkcRxYrzcXQWRJE6cBheqWL0RfbVgFlUsX0Zcx+FwOLkP1bb1PXsPUt1aden3n9dlC4HE4XBsJZWu/XuUurRrRZOnzBLXcTgcTu5DlSVpzrwl9M3CmUQpSeKa7AG3JHGcHee0JBlTq35r2rhhNbm5uYlrOBznBWf8ezFJFC6c/zMTT2H4uWk/mKOE1xmr4aX6CLvwteGkEZ5ClJCqfkd5hV1427CfZ8J+EjXsRw/yurhQKR93h5xLrYqkYcPfp79+3SDOshdcJHGcnewgkkBg0fK0f/8f5OmJSwGH43zECef6d849pS0JqZTo4yGuzTzcQmPJ48YzcaaexFL5KbmIjzizjvuDKHK/HynO1JNQKYBS8qs/fj3uRJDb42hxpp6E6oUoRRAsmY1HbBJ1cE2hNc8FUD4P/RJQLIqkmbMX0fKvp4uz7AcXSc5PiUB3KlzA+TOqUoS7o3M3EsSZfmQXkQQqVG1IO3duEWccjvOABJ26B4PpegFvcU3mw0VSGlklkiSKhcXS+aaFKK9OQklRJP362y4aM/xNomycyq+3SGpf18vuC1qb57won3fGH++v03G07XCMOJOnVlkPGtnDT5ylER1n/X15uLtQHoPv6pPwFPp4lfVsxEUjAiiPR8YbjU9MpSQrXwN8Lt6eLhQTn0qSpXXs0qcsw9AS417xo4rFM/+uTyv4DIZ/HSbO9CM7iSTQqXt/WrjgS3HG4TgHH59/SvNS3JBzkGVwkZRGVosk8GpSIq2sGyjO7ENWJEVFxVD9unUpOUH7BwRc3DwpsFBJYRShvPnysXVRkZEU+iSYwkLuUUpSHFvnaPQWSd+MCiR3ncMyLtxKpPnbIsSZPHUqeNLwbnnFme1ERKfQe8usi6RvRgeQuw5X7iFfhVkVSZ/0zU/limXtAaWG7CWSXMk3fxEqVLgY+fsXII88HhQXH0fPQsMoJPg+xUXjfdh4XLi40PxFq6hrl3biCg4n6yl7OIQe5s1aVzAXSWk4g0jyi4yn4KaFxJl9yNqj3hs7XrNAcvXwoToN29GXc5bQ5WtX6cjRfbTjlw304/oVbGD5yJG97LEZ85dT3cYdyC2Pr/jb2QO9BRKHox8uVLx0DXr97bF0+PgpOnvuOP3113batGkNrf9+OW3dvJb27P2Vzv97ln79ax/16DOYChSyIb0/NZUmTZgoTjgc5+CpBz85czKI9tLPO2Emku7ee0j7hJOrWlxcPalD1//RmXNnaePG1dS75wsWq/a6CHeiL/foRBt+WEnnzp+jLi8NJFe3rL0D4HCyMxBHP275lfbv30njPxlDhQoXFB+Rp1LFcjRr5mQ6fuIATZ+7lPwCSoqPqCMi7B4tXLRSnHE4WU+qkxRk5TgHKTp+Hczcbf/r9yadPPyHuMYyxYKq0KbN66lIEfvMWqGhT6l37/5098Y5cY0+6O1uW/GuPj5OQ9S422qWzUOje6S5LSVuPUqy6jDxz+tKBYQh8fhZMo1fbd0c/PXwAPLKk/EtCxZ+z1oMFGKfShQ0NrGqcbcN7pSXGlfNEMl3gpNo//nMccdqISXVhQ444HXZ425zdfemz6fPpd69XhDX2M6X076i1cvnqy7z4eUbyKxSHI4zkP/kU4rPk7XWJO5uS8MZ3G0uSSkUW9dfnNmHmUiqWrkGJcXL10sypEmrbvTtmsXiTB+GDfuA/tq5gZn09UBvkbR0VCAZlor5fk8UPQjVFtg+qGNeKuiX8SSbD0TT7yctX3whPj7rn1+cpTF0QSglWtl198Y+1P35jGyPs9cT6OufrR9cn7/uT0ULZLzGZb9F0fErlguIBhVyo09fM/5SqhFJPZv5UOcGGa/x1LV4WrIjSpzlfGwVST5+RWjTlo3MKqQXf/71N40a/rZqV/v6TTuoQYPa4ozDyTq4SLIOF0m2YeQX27f/sCqB9NIrb+oukMDixbPo9bfeE2fOh+nl/nZwMl25l6RpIADYkMgY/UQcJ3eQ1784HTl6QFeBBDq0b0G//v4HuXmoixVcseo7cYnD4XByJkYi6dvv1otLylSv04JmzvhUnOkPYioaNO0kzjgcjiFuefLStp+2kI+PY+rBlC9XmhYuWSHcilm/Ezx+5KC4xOFwODkTI5F09cplcUkeBHhu3uT4u8d1a5eyCr8cDscQF1r0zXIqU0ZboLVW2rdrRm+N+ECcKRMVHiwucTgcTs7ESCRFhVvyp7rQF9OnkXsm5MEjO27e/LnCEs9Y4HAkqtZuRm3bNBNnjuXDscMof2CQOFMgNYlCQp6IEw6Hw8l5GImk+DjlgNmgcjWpU4dW4szxNH6+LlWu2ViccTi5HBd3WvDVTHGSOUyZOlX43/KNyqXL/4lLHA6Hk/MwEknJicrtMSZPmSQuZR6zZn4h/M+tSRxO9TpNHe5mM6VLl7YUUKSsOJPnv+s3xSUOJ3eDzLGEagU1j+RAL/EZ1JFUyFv2eayN1Hx5xGdQR1IRX9nnsTZSvbM2y1BvjESSef5WGh5eftSiWSNxlnlUrVqBfPIVFmccTu7llVd6iUuZS8tWbcQleWJinK+mFYeTFaS6u1KKr4fmQcLvacLDTfZ5rI1UjbVGUj1t3E8OK+yp6q9To1ZDcSnzqd+wqbjE4eROUJH+ld7dxVnm8vbbA4X/uTWXw+HkTlSJpK7duohLmU/PPj3EJQ4nd1K8VCWLrX4cSYXyZVh1bQ6Hw8mNqDrzNm1SX1zKfFo0zXw3H4fjTJQqbUMjWh0pULCIuMThcDi5CxUiyYXKlS0tLmc+efP6kItr1pY453CykiJFslakFPAPEJc4HA4nd6FKJGWVqV/CxSVnRctzOFrw9FTfb8kRuHvwmxQOh5M7UaF+UigpSVsTV71JScna/XM4WUlMTKy4lDUkJCSISxwOh5O7UGUiupyFBeNCQ5+yyr4cTm7l0aOH4lLW8OxpmLjE4XA4uQtVIunAoaPiUuazd/8hcYnDyZ3cvpW1BRtDQ+6LSxwOh5O7UCWSfvt1p7iU+WzZ/JO4xOHkToIf/Edx8fHiLHM5ffo8JcZFiDMOh8PJXagSSdcunRWXMp9/zhwTlzic3ElqShJ9++0mcZa5rFj5nbjE4XA4uQ9VIik5MZq2bP1NnGUefx86Tgmxz8QZh5N72bp1i7iUuRw+uE9c4nA4lnCJSiCPm+Gah2uEtsQIt6dxss9jbbjGJorPoA7X0FjZ57E2XBJSxGfIGagSSWDm9OniUuYx4aMJ4hKHk7u5cfk0nTr9jzjLHJatWEfR4Y/EGYfDsYRrfDK5PYnRPFxitSUmYXu557E2SKN4cYtOlH0ea8MlKZeKpLDgm7T62w3izPFs3baTHt69JM44nNxOCo0dO05cdjwpKSm0YO5sccbhcDi5E9UiCcyZ8QU9fRYuzhxHdHQMTZ44XpxxOBxw/+a/mXajMnrMeIqPCRVnHA6HkzvRJJLiY55St6492V2mI+ne/RWKjQoRZxwOJ41UmvbZJ3T02Glx7hhWrlpPv//yvTjjcDic3IsmkQQe379Cr/R9Q5zpzxuDR9Kd61mXTcfhODOpKQn0xoABdPPmXXGNvuzde4hmfD5B2FGquIbD4XByL5pFEjh7fDe1bfsCc4vpBerAdO7Skw7s5nWROBxLJMaHU+cO7eiPP/eLa/Th68WracgbrwlCTFsWDIfD4eRUbBJJ4M71c9Tk+eZ05Kj9pv8zZy9Qk0Yt6L+Lx8U1HA7HEsmJMTTinddp8mczxTW2ExcXT4MGj6CvZn5KqbwFEIfD4aRjs0gCMZHBNKBvD+ratTddv3FbXKueW7fu0Ysv9qM+PbpS5LMH4loOh6OKlCT6fvVCqlWjLn373UZxpXoQW/jZlNn0XK3n6ODu7cIa7mLjcDgcQ+wSSWmk0tV/j1Knti2pabN2NHHSdLp7T7kh5/0Hj9ndb4vm7al9m+Z08dwBYW3OqqvA4WQmSHL4fNJYqlm9Dg0YOIx+/1O5AGRSUjKt/X4rvdSzP1WvWoPWrfqKkhOixEc5HA6HY4gOIkkkNZmC712hH79bRG2aN6KqlWtQwwbNqUWLjmw0EparValBrZo2YHe/D+9eZnfCHA5HH+Kin9CR/b/QyLf7U+XyFahO7YbUrFl7atmyMzVp0oZq1axH1SpVoCnjR9OFU/soKT5S/E0Oh8PhyKGfSDIkNVU4AYfT05Bb9PDORTbChOXEuHCeNcPhZAIpyfEUFf6QHt+7TA9uX6CQB9coNjKY9YHjcDgcjjpc/Pz80lVL4QJ+4lLOICkllRKS9RNl34wKJHc3cSLw5Y/hdOOhtovOwmEB5O3pIs6IQiNSKCrWsrsxj7sLFQs02LHAyEWhFGul5c/IHn5Uu6yHOCOKjU+l4GfJ4kyZEsK+3IV9Suw8EUdbDkaLM3nqlM9Dw7vnE2dp3AlOsqqJC+R1JT/fDK3+6GkSTVjj+IKlzoKXuyu5ZnzU2Y7RH06hEcMGiTMOJ2vIf/IpxecxPkdmNm7odXZDe6/RxFL5KbmIjzizjvuDKHK/r90KnFApgFLye4oz63jciSC3x5bP+3IkVC9EKT7u4ixrQGuU2Lr+4sw+HGNJ4ijibvLdCfRzpdJF3C0OU4EE1FxXvTyMt4I4k3t+02EokEAek+eRw1A8SpQqLP/8hsNQIAHT18zhcDjZBtzxaB7i72pB9nmsDI2w+1u557E2chjckqQBPSxJS0YFkIeb/V+kUYtCKcaKJemD3vmpckn7Ff3us/H0w17Lwb0NKuWhIV2NLUm28Cwqmd5frv1uLLvCLUkcjv04gyWJ4zxwSxKHw+FwOByOg+EiKZNJTk4zY0ojLjGVouIsj5j4VKPfwVBDgvDchr+TKOxb7vlNB4xvhr+XlGy9RIPp72DIPbfpSEgy/p146yFTHA6Hw+FkCtzdpgE93G0cjiHc3cbh2A93t3EM4e42DofD4XA4HAfDRRKHw+FwOByODNzdpgHubuPoDXe3cXIb7dq1o2fP9M1gvbjwN0rx9RJnnFxPYjLVGNJenNgHtyRxOBwOJ9NISEjQfXA4psh9T2wZXCRxOLkEFxcX/Kd5sN/jcDicXIhqkeSRx9OGkUf8bQ6Hk5XgWAwqV5HKVqyieRQLKkNubjxziMPh5D6siiTcRRYuXpJKlilnwyhPBQILic/E4XCyAggke4SOp5cXFSlRilxdueGZw+HkLiye9SCQChUrQb55bW834R9YkA0OJ7sAMWA4LLmb8Jjp9s6EvQJJAkKpaMnSTvf+OBwOx5EoZrfpIZAMeRoaQs9Cn4izzIFnt3FsoUOHDlSjRg1xRnT9+nX6+OOPxZkxX3zxBVWsWFGcEZ09e5b27NkjzqxjLbtt8Ftv08rly8RZBh06daZ/L5yn+/fuiWvM0UsgGRIfF0eP7t2mlJS0Kuw8u42jlRYtWuie3XZ9wU5Kyau+k75qhOMzVWX6qYtwvREuOuJMA27CPjT083TBNU1FFwRTUoX3oiWVFgUZCe9JI6kewn4s3FgakZhMLvpdotNxSUyiCkPaijP7kBVJegskicwWSnqLpKWjA/F9TufUtQSKiLHhoOCYcfluIvs8nQFTkXT//n2aPn26ODPm/fffp9KlS4sz/UXSlRu36a8/fhdnGdR67jn6dMJ42rt7l7jGGEcIJAlDocRFEkcrjhBJDwd8RYkFiosz/UgKykdJRfOKM8u4hcaSxw3t7yuxVH5KLqJe4Lk/iCL3+5HiTD0JlQIoJb+nOLOOx50IcnscLc7Uk1C9EKX4qGusnuffEHKN0d/Q4BoXRSWX6nNeMhNJjhJIEpkplPQWScvHBKoWyBxt7DodSz/ujxFnWYsziaTzl6/R6BHDKE4QJoaM/WAczZ8ziw78vV9ck4EjBZKEJJRGvj+ZiySOJrhIMoaLJOcWSUYBBo4WSACB3DxGicNRx+aNG+iDcR9T/vz56ejhQxQWGkqvDRhIefJ40OlTp8StMoBAKlI8iB3LsPQ4amA/SOiIidZ+suZwOJzsgpFICihURDj55qHEhHiHjrz5/Cifvz7N5zicnMxnkybQxPEfUZ++/6MTZ8/T/IWLaM+uv+ilbl0pOjpK3CqDvPnyMwFjGkzuiOHt40u3b98U98zhcDg5DyOR5OdfQDjBytU70n/k8+MiicNRw8njx2lQ/1epUd3a1Klda2ZdSkriCQMcDofjaIxikho1aiQuOZ74uFh6cOeWOHMMugdujwokwzCPb36NpDvB/GKlB7HxRJGxzhEE70wxSVrJbHd2xUrVadHX88QZh2MdHpNkDI9JykaB21wkWYaXAMgdPP/881S+fHlxRnTv3j165ZVXxJkxP/zwA5UqVUqcEV29epVOnDghzqxjTSRNnvoFNWnaVJxlEPoklIa98xY9DQsT16ShRSQ1CgkRl8w5VkhdEVgukjha4SLJGC6ScqBIsnRyBWpOsJZE0vRZc1gdGFPChQPrjQGv0c2bN8Q1luEiiePsWBNJ/1y6Sh3atBRnGUz6bCpt2vCjWQkAtSIJx3ALCiWfPObWu2cx7nTUvYCq45iLJI5WuEgyhosk5xZJRjFJasDJNZ9XCr3o+1h2IEXemoiyBgRSgzq1qG7NakZj3949rD4Mh5NrSE2lRw8fmo3YGPvLJRTwTaIi+RPNRl4vLvw5HA4HaBZJwMM9lfx9kmWHjuEVHA5HuOsoUbKk2fDx9RU3sJ/wIJ/0weFwOJwMbBJJEoYnVz1PsKjDUr9+A6rfwHgULlKEkpOTxa04nJzPD9+vo2+WrzQb3l7edPrUSXErDofD4TgCu0SSo0Al4SHDhtOwkaONRkJ8PB06eEDcisPJ+Uz7fAp169zRbLzevx+L0dOD/Hdj0geHk11ATb8SJUqw3omenupjbTg5H3d3d6pcuTKVLFnS7u+G5sBtxBsF5E2mbt6PxTXGrH1SnPXEsxb0ybPbOJysKwGA4zgwbxJ5epgfH1FxbhQR68oDtzkOwZ7AbVSSL1u2LBvFixdnRU3B4nytKNRNXYC1FnjgdvYM3PZOTaT3w/9gy6mI63z0iG7evMmalcNTpQWbstuahoWQr6e82ysi1o2OFrQvu02JgIBAioyMoMTERHGNZbhI4jg7WVknyVKChRqBBLhI4mjFVpEEUVS/fn0qUKCAuCaDGZVfppg8+luTUvJ5UoqvhzizjEtsErmFG/dYVEOKn5dqUQFcohLITRhaSQ7wptQ8BhcwK7hGJAgCRvt+kgoKgk84r6kBwtIlUf8QGo/kZJpwcaM4yyAyMpJOnjxJd+/eZeJJDTbXSVI6wao9uaoRSbhLqFGzJrVs3YZatW5LRYoUoaFvD6bz//wjbmEZLpI4zg4vJsnJbWgVSbgONGjQgKpUqSKuyQAxqrhpnt7+HUr0UidmODkfCK8Jvy9mbjcMU27cuEGHDx9WFePslMUkWwmiqHPXF6h5i5b04MF9unTxIlWrXp169eiuWv0BLpI4zg4XSZzchhaRhLijVq1aUbFixcQ1acII14FmzZpR48aNmYjKf/IpxWuwknByNi5JKRRb1599T2A5+vvvv5mY9vDIENJPnjxh3RFiY2PFNfI4ZeB285atqE3bdhQREUG7//qLjh87yt6gFoHE4eRG4G9PTEjItOEmxoRwOHoD8WMqkHBB69GjB40bN46aNm2aHpPE4ciBGDZYIceOHUv9+vWjuLgMd2jBggWpTZs25GbYa0wGo29YXFwsxcfHZcrACVaJqZMn0fP169DHH75PXl5e9ObbQ6hK1ao09ctpVNTggOFwOMZEhj8VhFIyeQh34I4ecbExVKlKRo87DkdPGjZsaCSQcDH75JNPqFKlSuIaDkc9aB81fvx4yps3b7rBBUIJYhtiSgkjd1upEkWpaPEgcnGwOk9KTKSHd29TUpK6AGyAGkktW7WmQwcOMBecGjo8X5vmjXlVnNlG47en0qPQcPbBVizpi9p+6Tx6mkzxidy6lVvAXUh0dFq2R4OqZal4QfMAUrWERUTRgXNXdXe3AdxdFy1Zijy9vMU1+hMZ/oxCgx/RqA8+oxHD9Cn/z8kdqHG3IUi7ffv24iwtpXv06NHizBzubuMYIrnblFixYgWFh4eLM2LuOGS/yWEkkgoX8CMvHx+HCiVbBJKtdG5ShxaM7S/ObKP+oMn0MPQZ+fv7k7e34y46HOcnJiYm/cBa9tEg6tqkNlu2hTNXb9ML789ziEgCjhRKkkDC3djoD6dwkcTRhDWRhLv6F154gQICAtgcLjZYkCy51rhI4hhiTSSBadOmsZg3EBUVRT/99JNsILfZty5OuBA8enCXUjXWElBDZgokcON+MP184AxFxsinZUbFxtEvB8/Sqh1/0/4zlynZAe+Zw8kKEJv06N4dliChJ4YCicNxBGXKlEkXSPge9+3bl8cecXRn8ODB6eWE4CmqUKECWzZF9pvnCKGU2QIJ/HvzHg2d9S09/+YU2nPqorg2jX2nLwvrp9I7M9fQxGVbqd+n31DHMbPp7uMwcQsORz0Q3HN/+J16jPuKWYimrNpOT56ZF3y79fAJjVu0kd79ar24xnHoLZS4QOJkBigUKYE4JKWLF4djD4ULF6Z8+fKJM6Jy5cqJS8YoynM9hVJWCCRDnkXF0FvTVtPNB2m1ne48DqU3p62ip5HG1UQv3XpAr3++nFuUOJoIi4imLu/NpTmCSDpx6SZzpS39aS+1Hz2LiSKJ4xdvUIcxs2jdH4fp2l35ivV6o5dQ4gKJkxkgRRvxSBJwzXE4jqJTp07iElGhQoVkQ2os2jD1EEpZLZAk4hIS6dudh9jyt78dpNh4+ey6y7cf0v4zV8QZh2OdL7/9ha7fDxZnGQQ/jaBxi9OqvkJ4j573PUXHxrN5ZgKhFBZi/vrUkpKcTM9CQ7hA4jgcZBtJKdn4vtWpU4ctcziOoHz58ulxSIiFQ8FqU6w6ehPi4igxUXtpcom4mOgsF0gSV+88Yj/lLmiG/Hcvc+7yOTmDHYfOikvmHPrnGoVHxdI//91lFsyswNPLi4qUCBJn2nEVLlpFS5a2Wk+Ew7EXH5+MHmZJSUn8O8fJVDRbkhAsV6R4Scrj6SWu0U7e/P4UWNhcnWUFhfzT/I+BfpYbFgb4+YpLHI5lkpJTFBMDAO6Gw6Nj6Flk1nTYh0CCwLE38BV1kYoFleEXLY5DMbxI8e8aJzMwrMLt62t+7Vc8c0oCycvHfsHg5x9AAYUKi7Os46WW9djPnq0bsJ9y+Pl6U/sGvEAeRx3ubq5UuZRygVN8n0oUKkBVyxRn5lytoHehHGXLlRcOaMtiXy+BJMGFEsfR2HKMcDj2YC2MwKxOEtBTIBkS/jTUrtgIrRj2bnvnpdY0cdCLbBlM+24Hfb15lzhLI4+HOy0bN4jaN6wuruF1kjgZKNVJ+unv0zR89nds2ZSPB7xAI3q1Y8vIaNu4+zhblrBWJ+mfi1do2hefi7MMevXpQ18v+Ir27jb+DkvoLZAMQbX8h3dvMV8+r5PE0YqlOkmIEUFPNoD07I8++ogtW6Pu1lt0PcL2sBAlkkrko+Qi6q6Dbk/jyP2m+sa9EklB+Sm5kPpri/vDaHJ7aJ45a43ECgGU4pdWF0gN7ncjyS3EOLlJDYlVAynFW12z4TyXQ8klRv9wnAJe7nSrr3y2mikzZ85Mv/E7ceIEXbxonAlvdgZ1lEAC+QsEUkChzHO9Fcyfj3q1bkDrP3vHSCABXLw2TB3GHm9Zpwq92b0l7V44zkggcThq6NGiLn325kvklSfjxOAuHHTDe7ZlQ2L6sD7Us3V9caYOxAMFBQVRyZIljQbqeijhSIEEuEWJ4yhwIyKB7xeSDtTgJtwQuwg3xLoPLckKNr4G/J4mhNck9zzWBn5PC3jvcs9jbVCqBmtgcorsc9g7XIWhFsPvmFyzW6OzqCMFkkT+AnC9ZY5QalyzIn317qtMBMnRrHYl9jhEFC5y5YoXEh/hcLQBkX1qzWe08pPBzMp0fOWn9MnAbkbuA08Pd1rw7mt0aOkEGte/q7jWMufPnSO//Pnp2zWraNaMafTVvDn08OEDypfPjy5d/FfcKoM8gkAqWKQ4y0hNTkpy2MC5olCxEhQZESHumcOxH3Rmly5a+I6dP3+eLXM4juDu3btGMUmPH5snbRmJpAKCeMGda0J8nEOHt48PsypxODkJ/7w+1On5mswNVyQgzXUtR5liBam5INDV8NYbAylYOHB/2rGTvlm+iv7cu5/qNWhIr/btQ48ePhS3ysDXNx/l8fQkN3d3hw9v4Wbq3r1b4p45HPuBi+3BgwfijGjv3r3iEoejP7/99pu4lCbQDS2ZEkYxSY0aNRKXHA+K2z24I3+C/fb7H6hS5Sr04P592rxxA+34+SeKjNTug/XPl5fKBxUVZ7Zx7OINSkhMsismqUmTJqzUfmaDppBFixZlrpl//vlHuKDdozNnzlB8fObX6nEEwneXSpcuzWpb4O+DPjwIwoPJ9OnTp/To0SO6c+eOrAnVFgxjkmYM60PtGtjumj1//R4rXKq2dxuCtGs/9xzdunnTYoPnAoGFyD+woDhzPBUrVadFX88TZxyOdaz1bjOMS0Lc2//+9z/mcrZEg8036Vq4A2KSgvJRUlHLCRISbqGx5HFDe0xSYqn8lFwko/SBNdwfRJH7fe3Xw4RKAZSS31OcWcfjTgS5PdYek5RQvRCl+LiLM8vk+TeEXGOSxJl+BHi5041Xy4szeXCN+Oabb9L7t508eZL+/dfcOu+UIgkXd/ijq1StRn36/o/atm9Pf+/bRxs3/ECnTpywGo0uYRi4bS/2iCR0r3aWyrFo5PfDDz/Q77//Lq5Rh5eXFzVv3pw8PT1px44d4trMB1/o2rVr03OCYChRooS4Vhl8V27fvs1E4oULFyghwfYTqaFI0gu9G9xykcRxdqyJJLjZXnzxRXYTBHBThwa3luAiyTpcJBkza9as9LhN3Ehv3bqV1eYyxSlFkim1n6tDX329mIoWK0YvdesqG4shBxdJykDorF69Wpwpgzu4jh07MoF05coV1inZNPofvP3222wbU2A+R4G44cOHU2io7cUU8WVu0KABtWzZ0qjgXEREBLOQ4bkhAPElh5CC9Qy9eUqVKsWEHcCBcPjwYTp27JhNYikrRFK/1/rT+nVrxVkGbdq1p8vC38HUqqRFJEVUVI4n8rum7C40hIskjlasiSSA5IS2bTOSHlC/5p133hFn5nCRZB0ukjJYu3YtBQdnZNofOnSI/vvvP3FmjE0iqVFIWg80JY4Vsh4AbUkklS5Tht1FSJakAgUCmBVp25bNFGLwxqzBRZJlkPoIwWAKAtmef/556tChA+tns3v3btqzZ48mkVNMELQ4ydWvX59u3rxJy5Yts9nthc/+lVdeYc8JIIxOnz7NTKNww9aqVYs1wURLA1ghsZ8Q4TsKC9K1a9coMDCQ6tatS9WqVWOB1Pgd+KIvX76s2ioJskIknT5/kerWrCbOMpgzfwHt+OVnsxIAakUSBFKRemGUzyutJL8hwREeFHHeX5VQ4iKJoxU1IgnHadOmTZnrDeA4hVAaOnQom5vCRZJ1uEhK47vvvmMB2pIVCcHbiH1TuhZoFkkQSH7eKdTeXV4obYsqwjIarQklSyJpxpy5wp1EEItJ2rThRzpx/Jimi5kEF0mWuXXrFo0dO1acpQFxOm/ePOae2r9/P/upNg0Xn0/jxo2pTZs2TGhBWB08eJCio7UfaBKI5YJAwnNDHOHLjNeEWIUaNWpQ165djf4uEEAQStI6fG9wh3DkyBH2WPv27alSpbSgabjfYFGLi1OumG1IVoiki9du0NEjh8VZBriBGP/Rh3aJpKotgqlQPvMT1PVgT7p/IpCLJI5DUCOSAEIucKMGi7AEboAGDRpk5mrnIsk6uV0k4SZ/xYoV7Pogge8hbpjh8VDCJpEUkDeZunnL9zdb+6S43SJJL7hIss7gwYONTlh4j7hbg5CAsIAVCe4sa0Cs9OjRg7mzII5gxbEH3EnCvda5c2e2jNcCgSS5ydD4EnELhsAy9OOPP7KD4OOPPzar4/Prr7+y4Lzq1atT9+7dmVsOBw5+B5Yna2SFSDr372Ua+Fo/cWbMzRvXzV6PLSIpKDTjxHk3MJ6LJI5DUSuSAGIhYZGGlVgCFzS40NHBvWrVqmwdF0nWya0i6fr167Rz5052ky2FXgB8B3ft2mX1Jt5N+KXJ4jLzA1ujpHCh8M6TSpU9oik8yIfi83ukD6+IRPonJh9BltyX6YFiCGqtRIbLf6FwUcyXL59R3IjcOmtArOmkkdjBalhPQQvSXQ9MfLYMCDRD9Qtwcbx69arRdliHLwE+I9MhRfCbgmw3Q98sYnogSA4cOMBe9+uvv86y82CRQbaYXGAbkGKPYN3B5xQWFsa+lLaAvzXioFq3bs2eF7FQeF94frwGvBbcXUonSIkCBQrQ0aNH2e9ACJkWXMRBAfcb3i/iqipWrEgBAQFsWc1JG8+rd2agu6CQhLeryJBhw6lFy1bUsVNn+m3Hz/TPuXPCZ/CQDbnXgrR8L4OYLSXiBTFUqHQ0+XqmUP7YjO9WhE8yPY12p8gHPuQZZv2EGhhYmLp26STOOBzrIBZSrfUW55sbN26wcz+Ob4CbH5wDcCzD2o1z1WGXEhTrqr6atFogKlLyqnte19gkVnVbKyn5vSg1r/pri2tkAhtaSQ70plRBPKjFLTyeXKO1V8NOLuxLqR7qCtm6hcSQS6I6T4UmEuMp8Y+V7LsBTwI8D4bXUNz4wwCg5ntolyUJIsmQ/HdjdLEkzZo7nwXhfjZpApsXL16CFi75hkqXKUuv9e1Dly+ZBw7LUa1cSerboYk4s42pq7ezLu72WJLsZdGiRSyV3xCIAUTnqwECCRltcixYsICdaJSA3xZWG5i9q1SpQt9//z39+eef4qPmQMwgngkCB/uF9QfWJS0uN/wuArQhSiDwDJsOXrp0iTZu3MjuLBEMbsqaNWuYGxFpw5UrVxbXpgExhN+VwPPCnSeX9ilHVliSfH3zUh7PtNIG4YKQw09LcHcbx9nRYkmSwI0TjlXEFspVm1+crxWFuqmz+GiBW5KypyXJOzWR3g//Q5xlAHctDAMQTtbOpRJO6W5DsGrDOrXYXUSTZs1p1px5tGjhV6x20pnTp2j7tq3ilpbp3KQOLRjbX5zZhjP0bnOkSPr0009ZbI4aEMRdvHhxOnfunLgmAwRF4zFDYO3Bdwp1jIYMGaJKYEDYQOCAs2fPslR/U/B54Lnk0oK3b9/ODoKXX36ZBXQbArMrshpwkkWgN/6eEFQPZYoyymEokr758HXq0sT4+bVw+spt6jHuK6siSStaRFKAbzJ5upvfxUXFu1JknBsXSRyHYItIkoAVCaEAZcuWZecjCS6SrJObRRI8G0ggglcCN99aUGcTMwDiJzzGjTaFF5UdUFzWBJIacOcwdPhI+nLGTBo25C2WBq1W+UnECx9GUrJ59o4hePxZVIzm584pwAxpCITDSy+9JDtQ4M00zkcCpnC45wwH3G7IQoM/WMlNZwj2jVghAJefkrsO25m+bgnp9cn9PfGdArBUIX4KLj2ULkDdJa24CsrGzdXV5uHupvnQ0xUIoLBoN3oY7mE21AokDiezwXEPazKCbTdt2sTcKadOnaKovJ6UHOCl+0jR4J5K9XSTfQ5rI9VbWw/EVG932eexNshD235SbNxPqrv6uz6INrnnsHfECc+Law8Sh7Zs2UK//PILMwZoFUjAphIAQKkMgFqBZMmStO/QEboh3PXjYvLuqJGCCgylwkWKsLYMX37+GZ08btxJXQkEbru4ulH35nVo8psvsbYREnChfbbqJ9r+92mKS0ikgv756M1uLWh4z3bsAiiR0y1JEyZMYCcdCaTLT58+Pb00ACxECGrGQPwO3KCLFy9mj+lNly5dqGHDhuwuE+8Zlqg333wzXdwACCe4CGENGjNmjLg2A7jT4FZ77bXXmLXIEMndNmDAACpXLqNDNEywyOiDa88ShpYk9GdD+xFDbjwIoYPnrjLh3ah6eapeVr7Y5bF/r9POI//Q8p/3Z5klSS+4JYmjFXssSUr8t3QXpfgKQoDDAYnJVGlQS3FiHzbfzkIMyQ09GDVsKO3Yvp3eGNifCSSAC/2ybxazittaiE9Mok17TlCvT75mYgigzUifCYtow65j6euePIuk6Wt/pQnLtrB5bgbB0UiVxECDSVTnxjLUuCUgakaNGsVqIq1fv57mzJnDUu6lehSWQOmBevXqseU//viDKf779++z4pVSSxr0dEJMFKxSpvFGEghgBxB0pkjPY5gpAyB+pXostvLFml+o5bAv6eMlm2jisq3UYfQsGj1PeK3JGe6siOhYemXiYnr544VMIHE4HA7Huclam78C/5w7S1u3bDJyqdy7e5d+/+1Xm91il249oHW/p9Wb+eGvo3Thhnxa+7e/HaQrd9TFqGQXMsOVCJHz+eefs8yxL774gkaOHMmKdrVr14656qwBgQRXGQQaUvklEP80d+5cmjp1KhNfUrYf7kZNwd0pfM8IyJYTSWhgiAw5vFZT1Ag5Jb7beYgWb91NKQjGM2Dz3hM0QxDeEmPmr2eWJkeSlJwk21TaUQM3LxwOh5NTMboyxMZEU1xsTKaMBAup1N7CheyFbt2pkom1oE7delRA5uKnlkP/XDP6qcSR89fFpZyB2mKQ9oB6Rsh6Q80h1EhC/SEIHIgbxP4oxTIBuNNq1qzJluFGxLatWrViafwIzsSFGOuwjCq8CAI3zHiTQJFJCELT0gASqKyqVOYCAdy28s22PeKSOWt+O0CJScl0+9ET+uPYeXGt44gKf8ZuLvJ4ejl8xEZHU7lyaYU5ORwOJydiJJLCQoKFC5IneXn7OHS4Che8sCfK7UW+XrKUmgsXyaUrVlPFSpVYCYAFi5bQ9FmzWb0MW0llYeUcR4AeaSdkXKGIYUInftOYKkNg9cGAiw1xQ7ASQST17t2bpfmjMCQy2bAM951cbBhccNg/BBdaoZgCVxusUMiKMQXxVrZWBYc77fYj5XYtMXEJ9ODJU7p+X307HXuASHx8/y674XEk4WGh7Bh2scMCx+FwOM6O0RkO5vOH9+5QikLmkB4kJMTTw7u3Le4DFqPx4z6kP//4naZ8Po02//QznTl9mrp2bE937Kjk3LRmRfazifhTiedr2Befkp1BgUJkBUggBggWGoBU+X379rFlUxD8DFeWHBA1lop2QWABFI2D2wutTbSCQHMIIcQqyQky6T3IxTIhNdRWkKVmmBBgCpIAAvzyUiH/zMsWc7RQkgQSh8Ph5HTMbgMdKZTgYrMmkCRg88HJPiIinLp17kirVy5XlUauRJXSxah/56Zs+X8dnqdqZY1r+kj079SEbZtbgeVn27Zt4gyiNiE9NgwxP7D0yIGCjGhNYpiJBlDTBDFAiBVSAnWUANx0yEjTWtkcAd4oiIlClnD7mYLvEaxMKEsgF6tkj6sN9G7bUFwyp2OjmpTPx4tqlCtBlUtl3vfKUUKJCyQOh5ObkLWVO0IoMYF0T51AAou/WUbtO3Sk4sKF7fPpM2jJ8pVsVK5SRdxCHXk83KlX6wa06YsR5JUn7eLrKazDvI9wccMyCPDzpXGvdaUv3+nN5rkVlABAwUXTgUrW69ato3feeUfc0hiIFMQNzZ49mzWkfeGFF5h7bPz48bR8+XJ20VYif/787CeCtiFktIDaF99++y1z1XXr1i39uQyBZQwCD73gTIHwhiUJFiy4+Ezbv6jhg36dqV6VMuIsg/IlCgvfp15sGeJx8QcDWKmJzEJvoRT+NIwLJA6Hk6swqpNUuICxSwDBmcVKlmIxRPYAgfRIEF3JyeosQY2eb0xuChcrVNyOjYkRZ5ZpXb8GLfpgIHm4K79+xJSER8UwkWRqBQE5oU4SxIthOw5DTOskyQHLDipYI1Zo6dKl6a4rU6R4INRWgvUI7jm0JUEQtyUGDhzIYoXwPtH7zVLRSglYj/7+++/0vm4QSPhdU1Db6Ouvv2Z/uxEjRpj9jVGdG1W6g4KCWLNfZNCh1IAcluok4Xu0cfcx2nf6MltuXLMCvdqhMfl4GWd/hYZH0ZrfDrIst+MXb+heJ0kOvOciJYJYXzdbYQIpxLzK/ugPp9CIYYPEGYdjHV4nieNwdKyTZFEkAXuFklaBpCc5pS0JBISpCwrxN2rbadgjkpBhhqrUaBGCgpRqG1Nq4Y033mBxSairhPeFbDZYlOCGg3sMsU6wiiDuCUHWsPwgnR8Xf7jzUIRSzoIE8JrRCPjVV181Ky4JvvnmG2bBQkA4Mucg1LAPOawVk9TCmau36YX352WKSAIQSBBKcjcC1kB25P3bNyhJplotF0kcrXCRxHE4mSmS4IYoFlRGEEvqe74YEh0VSSEP71t0tziKGhVKUb+OaXFItvLpiq1Z0uAWwgYXdaS9Qyig7QeqTKPi9NOnT1mMD7K1EOxs7bO1RSQhi1CqTL1kyRLWENAS/fv3Z41tlcB+8LrlkKpjz58/X9XJEyIKaf6ozm3JPQdL0549e5h1C+4/UxCLBDcihMO7777LrF8zZsxgYkyO7CqSkFEKgWRPLaikpEQWT2gqlLhI4miFiySOw8kskYSTatGSpcjTyz5xEBURTk8eP8x0oYS2JAnJ+uwzM0QSnh9drnHxx0+lbDFDcLJBUDIG6hLJBbdrEUkQDDiJocksKm2jyrZSnzRDUDwS1bnlgqCHDh1KM2fOVHS7odgk+qchdgluNBSWhIUI2yOQnNX9EYQRhBusS6h1ZM0dd/LkSfr111+ZhQpiT257fCYIRIfgQhwVrGQQSUrfU0ORhCBsuGhtJSo2js5fv+dwkaSHQJKAQEJcoaFQ4iKJoxUukjgOJzNEkl4CSSIy4hmFPn6UqUIpu4gkuNKQGQaxAGuRrUBUoJgj0vQNC0jibwmXmRyIxzF02yFwG3E5yFaTEzVYv2vXLnGWAUQSikkiRsiUzz77jPVbUxJJCJjG2Lp1KxNaY8eOtflzwPcL1iM0NixdujT169ePCSxTUFhy1apVbPmtt96i4sWLs3UrV65k6+QwFEl6YU0kQdzJiVSsx9/Y0vGkp0CSYEIJFqWkNKHERRJHKzlVJLnEJZFruOX+j3Kk+nlQirf6jF7X6ERyiTJ3fVsjxd+TNeFVi2tkArnY0KE/OVD4OwjntSzF0SJJb4EkkdlCKTuIpJYtW7ILuWk/MXtA8UZkfCGOSCsQFLVq1RJn5iAWSM5a9PrrrzOLlNQY1xC40SB8lCxSqF0Ey9Xx48dZoPe4cePER7SBeCb0eoMLEpYpuNjkstVgbUMAOmKP8F4RlA6OHDnC+sYpkRUiad/BIzTwtf+Jswzeff9D2vjjD3T44AFxjTGOEEgShkKJiySOVnKqSHILjSWPG9rfV2Kp/JRcxLrXQML9QRS530/rQ6mFhEoBrOu+WjzuRJDbY+2ZsQnVC1GKj/YsYV3RUSSZnUEdJZBAPj9/KlikmE3BozkNXLyRbYWGsHoKJAAX08SJE6lv376aP2vURYKrSmko1RSCBalDhw5mF2W4siAuLLnsIOognCtWrMiKWWJ7LUD0HDp0iGWxIU6rV69e1KNHD8V0fli8IJDgzkTLFAl7iko6iiJFi9L8hYvNRrPmLVhWnxyOFEjA3cODigWVFj5f9Xe/HA6Hkx0xsiQVDfR3mEAyJLNilJzVkoQAYVhLqmis+WQLKBWwcOFC1VlpCBBHo1olYG1BvSRTIMZQEwnCA9YgBJjD3YXijqidBDedJQYNGsS2h7sLP9EY1xoQRHDPIY0fggCxTE2aNJF1r0mcOnWKduzYwZZhvULsE4A4RNyUpYKlWWFJ2nvgMM2aMY12/roj/XipIIjJb5avopHD3qFLF40/V0/hOxpYqKjweTj+RgSfVcfOL9OE8WPFNRyOdbglyRhuSXIAjnK31ahWhdwy6e4QBe6ehT4RZ8agV1vefHnZ3f5TC5WareGMIgkCadq0aRZ7mckBSwwKJkIAaLUQXLt2jVmW8PvWQEwSXGOISzKlTJkyrAbS4sWLxTXG4HW1bduWNavF5wUL0V9//cUqaVujTp069OKLLzIxtXnzZiZ4kNWH2CTEbCH+BlYmiC98LxA/BPcasuKwLVx21qxmeO4tW7aw52rTpg07WUvASiaJJyWyQiRVq16DJn02hTw9vWjblk30XJ26VK9BA5o/Z7Yw3yxulUGBwELkH6ivZdISFStVp0VfzxNnHI51uEgyhoskB+AokdSoUSNxyfHEx8XSgzvyrpvZ876ikkFBVKp0GTp98gSLvTh08IBFl40c+QWhVaZ4YXFmG6eu3KKExCRdRBKCbSdPnsyEhjUQ+4PgYxRuhItLujhDCEA8IDUfcTeo7QPhZQ0817x51i9mEEmolD1lyhRxTQYQIhAXKAmgNxBCSMPHZ4x4IdQuMgXvHfWQUPgRA5Y4Ne8dwIKEbDcIJHxmqIskAQsNXHVKgeUSWSGSAN43Cqw2Ey4uN/67Tr/u+JkJRjm4SOI4O1wkGcNFkgPI6SJJAlYTtCbp879+VKZsWdq6aRMtX/YNxajs2O5sxSSHDRvGLC2WQKbZ+vXrWUo/RBCsJBBEqJeEzwNus+DgYGYdQpA06hch+Bsp7HCVWQLPC0uKJby8vOjLL7+k9957T1yTAcQF6hIhdd4UZOahbIESqA4OK5Al4CpDXJOUeSa5l/D+UesIwghlALQAl9DOnTvTm/ZC5DVv3pwtS+CzhoCyhqFIer1rM3quYmm2bAu3HobQ/A1/qhJJWuAiiePscJFkDBdJDsCRgdvOBOJEDh06SLt3/cXm7YQLKMRCdgQCw5JAgiBAOj7Eia+vL6v8/PHHHzPRAJcSLCgQaRBCsOggc2vq1Kks3idaEI1IwUfxREsYxuAoAREGa4uptQvWDLx+iDM5ULsIQgTvAS42WHiwjCG5zKyB7Da40iCG8HlJ4LVgaBVICMSG1QtWJAQ59+nTx0wgocDl7t27xZl6mtSsSL3bNLB5tGtQXXwmy7Rr34HdKGBUEv7uEqVKlyZvFXW0LNFI+KyVBofD4XBsFElyJ1XDYS8v9+pNQ4YOp3kLF9Efu/cykTB8yFvUvUsnuq2QXSXH0QvX6N2v1tOBc1fFNcYc+ift8f6fLaPJK7bRzQeOuTggywpVpZWAGxHB1bBmwB2HJrJwe6kBlh3EEI0ePZoVY/z+++/FR8yB0EFlbGvAivPBBx+wbRs3bsysL4hpApbKCly+fJnF9mAbFIGUMuKwrAZYfZDCD5EGQQYLEtCa7QZrHNqRfPfdd8yFhrYu+EyRaWcIBCHqSqkNaldDZEwcq9BujYho69uArxYtoU5durLx3fof09uvjBrzHnPB2QqO0/buIfSi72Oz0Sw1VJfjmMPhcLI7mkUSTp7+Pin0iv8j2QHXgb0nWIgKN3c3+nvfXmrVrAlNGv8JXTh/XnM2XMizSNq4+zj1nbiYvvz2F3FtGjPW/kp9Jixij+85dZGW/7yf2o6cQbtOWM7CsoVOnTpR4cLKsVGwGsFtNn36dGYlsgV0uIebDFYRCAQlYJGR64ZvCKpQw4qFvwMsWXD5wRrzxRdfaP4baAUVtyEWIehgLcNPpUrihkBook4T6kMh6BwlCSAoUAoADXThLjUE1re1a9eyDDk9QJuRbh/Moyp9P6Jq/T6mNiNmsO+VKRt2HaNGb06hfp9+I66xDGKPxo4ZxUZIcDDlFa1p+Fww7MHHM0U4lpPNhpdHRiFSDofDyc3YZElydU1lJ1K5oQcI1F68cAHL3lHb8d8ai7bspv1nLrPlIxf+owWb0lx4hsQnJtHIuetUWQLUAjcP6vYogbYfEAGffvopC8i2B7ipYPHBcyL1Xwk0e7UGAqfR1+yrr75i1bIhXLQGztsKBBmqZiPbDKIM1qANGzaYWZQgnOD++/nnn5nbEdvAxQYrHMQRalA999xz4tYZoNgkgsMhyPTgn//uUq9PvqbTVzKy+K7ceUgDpy6n3SczhNIKQYi/t+AHuhdse8amIwgP8kkfHA6Hw8nArpgkw5OrnifYQoULm7kSihUrTm3atdec/m7I1n2n2M/Ne06wn3LADaKnNQkXaaVYGggRuMdwMVfrXrMGXEuoOQQRoOTmgphCOr8SCBCHexCWFnTJR10kdOivXl1dHA3EFIKv7QHxVRAzEhBDEGuoiI1MPbw29FnD54dYKDSlRVkFxB0hOw+fu+l3BZ/3pk2b2O9aCyLXwhff/kJxCeblFVJSUmnS8q1sGW64GeusB4ebYmi5Q/zU2A/G0dQvp1Ht5+pQuM7BrxwOh8Mxxi6R5Ci+Wb6SZbNJIHh1y8876KNPxlOTps3EtdqB+w2ERliOkbH2uBbQrFYJuMXgykIWmyXgikOsDi7usK5Ys4CgECMC3GFhUcJSJiNikVDQEXFJCPZG2xRkxY0ZM4Y1mJUDzXCl1wVXFsSVBDLb9MhmQewQilmid9z169eN6j7h/SDuCO5EyQ0FgQFhhGrcK1asYMIRtZL0dBkmp6TQ0QvXxZk5tx4+oUeh4czaFBOnva/TwFf7ikvEXG57dv1Fx4TPYOInH9GZ02mi317y341JHxwOh8PJwC6RZHhy1fMEW7Zcedq8aSOrKzT2w3H00fiJNHhgfzp08CAF2tHCo2JQ2gW+fAnLtZMqlJQXAlqRqkDLERYWxi74PXv2FNeYAzcTmsOiOjcEEoTS6tWrmeVp7ty5igHNEAnoRwari1IBSSXxhiw0xCzBfYUAaAgKPMfhw4eZFcawvpAhEDCwTqEXmunAenssgGq4evUqczOiSS4sXyh4iRgqiDVk2927d09XcWSM5ee1J34IsXgSiEna8cvPbBw5fMju97M7qRD9FF3EbBx00ceqyeFwONkdzVeuY4UK0dNoN1ofVlx24LSNbewF8Tmrvl1LlSpVppe7d2XtF+wJVPXK40EDu6RZoQZ0bsrmclQpXYxaPGc5TV4tyM5ScrVBdCBtXsrgMgWWF7T5QDFJOWAdQRyTUlFBKThbKRsNwkWuEGOxYsVYXI/c8yIYGq9ZDsQADR48mFmd5AbalTgSuKIQy4TPC5Y31JKyFuytB26C+GtaS/n7AkFeJMCPalcIIl9v9TVKHA2O0ah4VwqPcTMbcYmuuhzDHE5uIsXfixJqFNQ8UtA1XwNJhX1kn8faSM2r3K5JjsRivrLPY22keLmJz5AzsOn2/mjBQqjVJDvwmL3cEi7S237+VbhbPkxD336TxY+gPUPrtm3p3Nkz4lbqyZ/Xm5Z9NIjKFU97baWLFqQVH79BBfL5srkEBNLqCW+Su5s+f2RLjWvRc0wuqFgCafioGWQJxOzIFXYEsMLVqFGD7UcJuTgoiDOlopRYDzGiBKw2H330kezQu1K1MzH+9W7k7Wl+AoKA+uzNl9gyBNL4gd3YsrMAIaQ0OByONlLdXCjF20PzSHXXeBkWtpd7HmsDr08THm6yz2Nt6Fod1wmw2Qcid2LF0INX+/amPi/3oG8Wf81q5oCbN67Ty91eYAJKLdXKlqBF7w+gYys+pbb1jYsjtq5XlY4sn8genyxcyNZ9OoT+/OoDKlVEP1eDpQrY6GemFDwNoQJXnBrQ0V4p6wzPb6mzvdzrgyCFxe75558X16SBQpYIikYmHseY6sL3bNv0UdS4RoV0a2fN8iVp/WfvsO+ZBCyZC997TRDp3J3F4XA42QHHBorYCNL+HzwwDk5G9lKoQkNcJcqXKEI9WtSlfD7y5kysx+NvdW/JLma489cTSyIJMUlKKf/I5JLEoTUQl4R4GzlgKbIUMK20fxS2RHYbKnoPGTKE9VRDLSdYrtAKhWMORNHmL0fQf5tm0tUNM+j3ee9Ts9rmbriXW9Wnw8sm0oapw8Q1+pKSnEQJ8XGZNtDGhsPhcHIqRqogNjqa4mJjMmXECydYJeBa+3LGLBr4xuD0gF+0YBg+ajRVqFiRzdWQkprCso/sGalWgnItoRSPBAEE6w9cYnJorQCttD2eXylmCSi9PoguCCPURkKjXVTS/vzzz1mGmFKwMCxWaitr52QQ66Ym9shR8Unh4c8oMSGB8nh6OXxERUZQ2XL6xO9xOByOM2LU4LZEkYJUrGRpcnN3bHM6iKTH9+8JYkHeTfTL73/SquXLqFefV2jx1wuogH8B+uDjT+jvffto+hefU3S0yjYXKamUkGy7yDHElga3b775JnXu3FmcGdO3b1+WYi+X/YZMLVS8VgvEi5zV6rfffmMZbigIKQeKRSIjzBC4iyxlokEkqbVy5TQMG9z279SEalcsxZZt4fajUFq46S/dG9wyhL9h4aLFyTefeWC+XoQ9CabwsFAa/eEUGjFskLiWw7FOTm1wy3EiEvVrcGskkgoX8COPPHkcKpSsCSRw+vxFalCnFn0w7mN6uWcvuv7ffzRl8iSW4aaFrBZJ6MyPOB450JC2Y8eOrPWGKRAhqPmDEgDWQBsTtCORY+XKlfTgwYP0vmumoDjj/v37xVkacNGhrYcSaHuC9PrciKFI0guHiCTgQKEkCSTARRJHK1wkcRyOjiLJzGQAU/3De7cp2QHp02oEkimbNvxI/V7ppVkgOQOW+oKhGz96jckBSw76jVnD2nZ4fktd/+VeH2KlYOWSBlxv0rKS2OI4IampFPzoAUVH6ldZHBgKJA6Hw8npyPpVHCGUtAqkM+cv0uuD3qBBb75F5/69TP9cvMJ+oh1DduHWrVvikjnNmjVjmWJK8URNmza1WGgSIKhaqSEuBBDihJo3by6uMQZuszt37oizDLAexSOlYTjPjLpDHB3RWShxgcThcHIbisEnegql+LhYQSDdVS2Q6tasRrWqVqIqFcpStYrlqFa1ymzUrl7FpjpJWQVECLLy5EArErjv0MhVCdQ5soSldiaIR4IVqXjx4uIaY/DalCp2S1SoUIF8fTNqSSEQPLfGI2VbdBJKYSFcIHE4nNyHcoSugB5CCQLp0b07ufLiivd88uRJcWYMXGVo8bF582arYkUr6FeGgO1OnTqJa8yxlMqPtG40yX3//feZpatEiRJsffny5S0Wk+Q4KYJQQiaareB7HBOd1veQw+FwchMWRRJISU4WzrG2CxykuiuljecGLFmK0F8tf/78rPGqXuDz/vrrr1mj15Yt5QPXcNFTel158+ZlAd2enp6sDAB6xiH9HzWT8Hr37t0rbsnJLvjkzUdFisu3k1EDBH2xoDIsqYPD4XByE2bZbYbAvaLHyTEmKpKCH97PdLHUun4N+mJob3FmGx1Gz6LgpxE2ZbcBpNQjG6xwYfmmuijQiLYdvXv3ZsMQ9CFDg1sl0AYE3f4l8PliX0ePHqX58+fLth0BiIWaMmWKODMGIgn95Ax7xqGfW1BQEOvdlpPbi1jDMLsNVbYLB9ieORYeFUOnr9x2XHabiL0CyRAI8Id3bzELswTPbuNohWe3cRyOI0sASOglkCRioqIEoeTITuzmdG5ShxaM7S/ObKP+oMn0MPSZzSIJwK2GlH4l0KwWtYy6d+/OmsFKdYq0iCQEVkMgHT9+nDXGhSVJCWSpXbx4UZxx1GIoktALsGsT5Zgwa5y5epteeH+eQ0WSjyB4ixQPEmf6YCqUuEjiaIWLJI7DcWQJAKC3QAI4YRcuVjK9t1VmcC8klA6cu0qJSfIB40nJKXRQeHzb/lN0/rp8aw89QG0hS5luyGT78MMPaceOHayzv1KbESVg4cHvnz59mokqSwIJIooLpOzDjDlzxSVj3njzLaparbo4M8fHV3+BBBxxbuBw7MUtNJLcnsbpPlzi1MfjuiSkyD6HteESr74kDsBrknsea4MStYXNuMbYth+XFPWGENfIBNnnsH9Ei3uwHzNLkqNPgjHRURT8IHMsSlIxyeIF/Vkj24bVyomPEJ26fIuGzf6O7gWHiWuInq9Rnr758HUq5J/RrkMPSxKoUqUKi+uRrERyzJ07l1mVsA2EU8mSJemHH34QHzUH1qkTJ07QqVOn2BwlA2CJUgKZdgjGRmA3RzuWLEkJiUm0/s+jtP/MZUF8J1Oj6uVZQ1vTvoFw3a7acYAO/XNVlbvt8n836dFj879XQEAgjR4xjPbu3iWuyYAJpBL6CyRDJIvSsDETuCWJowlHWJIeDviKEgvIZ/LaQ1JQPkoqmlecWcYtNJY8bmh/X4ml8lNyER9xZh33B1Hkfl97IkVCpQBKya++HZLHnQhye6xdbCRUL0QpPuqKUef5N4SJMb1xjYuikkv1OS8ZXbEz4y4RJ/BCxUpkqkXpwZNnNGDKMrofkpaZ9Tgsgl77bKmRQAJHL1ynQZ8r9yezB/Q/syR4DEFg9YEDB6xuD3ebJJCAtc90yZIlXCA5gKjYOOrx0QIav3Qz/Xn8Au05dYmmfbeDOo6ZTY9CM2K4Lty4R21GzGDtSCCQ1BAREUFDBg+i7p07po+Xu71A165eoWiZXnnePr7kH1CQEuLiHDqSExMpsFBRCg0NEffM4XA4OQ8jkRRYuKhwh5jECj86ckCMFQjMCDg2pUbNmvT6G2/SgEFvUJWq1ah7j5fY/KWevcjdxnYpkTFxtObXg2x5zW8HKCJavn4RYkUO/nNNnOnLtm3bmLsrK/j555+ZlYqjP9O/+5XOXTMvzHn70RP6aMlGtgzhPXz2Wnoaqe3ObM6sGfTt9z/QO8NGUKHChal9x060+aef6cb163T6lHl5CS9vH/L09qY8Xl4OH96+vhT8+KG4Zw6Hw8l5GIkk9HnCSTZTho+yeXHJspXMvRUYEEg/bNpCbdu1Jz8/P3ptwOvUqnUbcSvtXLx1n/28dOsB+6mEtcdtBRdKuNTgIstMfv/9d/ruu+/EGUdvtu6Xr4UFdp+8yAT6P//dpf/uKbepUWLDD+upS/t2lCTcvMya+xU1btKUhr/zNn3w3hheAZ3D4XAcjHKATBbimzcvLVwwn+bNmUVXLl+iRQu/ogXz59I/586yx2zFP2+aMMvva9n/K23nCJCFNmvWrEyz6sCCtHz58kzNKsxNIPg/PEreKglSUlIpLCKKQoVhK2FhoTR31kx6uXtXev/d0dmyjyGHw+FkR5xSJBmCa7teF/huzdL6vnVvrtz/zccrD7WpV1WcOQYEvcKitGLFCiaaHEFUVBQTY99++624huMI3N1cqWxxZddxXm8vKlEogCqWLCqu0YZSoL+lBAC1NAoJURwcDofDsVEkyZ1UDYe9JBkIh48/HMsKLgJU/4bAsIW+7RpRp+drsuW29avRa52asGVD3IQLz4xhfaigQXabI9m5cyeNGzeOzp8/L66xHwhKWKnee+89VlSS43je6dFaXDLnjW7NmZAKKhJgU12l33dnVDg3zK787PMvmOvNVnCcdvQIoZ75HpuNFhSqy3HM4XA42R3NIgknzwI+ydQv4KHsQDqzvSfYbl06pveLu3XzZvoyXHB//fE7W1aDn683E0RI/58z6n/i2jQghpZ8MJBZjWqWL0kvt6pPP88aw35mJrdv36bJkyezCtjBwcHiWtu4fv06E12wUoWG8makmQUE9+g+HZjINqRfh8Y09n8Z/fPwHWxTT7mGlRwFC2ZYqdb9uImKF0/ro+fj40tedpSkAF55UiivV7LZyOPOmxhzOBwOMKqT1KhRI3FJGQiggLzJ1M1bPgh17ZPihFpSxwzaZciBxrcP7igXWNQDZ6m4zdGHfPnyUenSpQXhUJD1llNbRgIlFSIjI1n5g7t379oc8Gyt4vbdx2F04NwVShYOgEbVylGlUvIutrPX7tCvh87R4q27rdZJOn3+ItWtmSasftn5B40YOoRu37pFc+YvoB2//GxWJwlZo/6BBcWZMjiOX/R9TP7CDU94UEYMXv67MXT/qQftSipk9RgGFStVp0VfzxNnHI51eJ0kY3idpGxUJ0krOLkaDj1BzEWHTp1p+qw5NGzkKApUceLn2A/EhzMBIVSpUiUaNGgQjR07lnr16kWtWrWixo0b0/PPP69qNGnShDp27EgDBw5klcm7dOnCsiX1Bi41WI/6d2qiKJDAcxVLUZcmtcSZZeA+7dSlK73Q/UUqVqw4dXuxB5sXL1HSyC3N4XA4HP1xSkvSc3Xq0hfTZ9KTkGDa+OMPVLV6derZ+xXasP57WvjVPNVxSYUD/al2xTLizDb+OHae4hISdbMklS1bll544QUWsL1p0yYmSlBd+7///qMzZ86IWxlTvnx5ixd1NKyFtcSQPHnyGDW/NQWWFRQqNOWTTz6hhIQE+vPPP+nChQtmzysHmuJWrFhRnJnz8OFDm4pY+vr60osvvshEkt7AmoT3iHIMahMDDC1JcOF2aaxO6MiBYpI9P1lo1ZL04ksvU6PnG7P6ZceOHKHqNWpSfuG7GBr6hBYt+Iri4uLELdOwxZJkCrckcRwJtyQZwy1Jzm1JslkkveAlL5LWhdovkv7cu5+++Gwy7d+XEbRaICCAlq1cTQvmzaUDf+8X11pGakuiB3qIJC8vL5o9ezb9+uuvzEJSt25dKlCgAOu5Vrt2bdq4cSOdPGlec6d///6srQlAqxLELkHIAIguWEhMs+TQyf+jjz4SZ+b89ttv9NNPP4mzDPAamzVrxprt4jVCSOzbt4+JKiWqCyIWVh6IIRAUFESPHz9mrzF//vzs9zdv3sweU0tgYCANGDCA/b4jgTBFmQQ1QslQJOmF3g1utYgkT49UcnMxf9+JyS5scJHEcQRcJBnDRVIOE0kAJ1hLqDm5WhJJiMOIFS5IphcuP+GCOfGTj2j7tq3iGss4m0iqWrUq1alTh9avX8/mcCFdvXqVZaMVL16cCRO0GrEEhA/S+iVBMmfOHLZO71ICL730ErNywZoDl9U///zDBBOa6ZoCkdSyZUtavHgxm8MatXr1avYaW7duzQSPFpGEfQ4ZMsQhLjE5jh07xjINrZGTRBKwdByrOYYBF0kcrXCRZAwXSTkwJgknUEvDXpDR1rFtK+pgMtasWkHhOh9cmQnchIYxP1iW5j4+PqqFjmHAsqXgZbjBGjRoIM6Eg8vdnVmi1LZ2QZDzypUradiwYeyk9vnnn4uPOA68n5dfflk3gQR31J07d1g7mF9++YVlAJqCmwMI2NyG3LErDQ4nOxFXvTQlVA7UfSQXUH9jnOyXR/Y5rI2UAsZNsK2RHOgt+zzWRoqvh/gM6kgq7CP7PNZGqqeb+AzWSSzjL/sc9o74arbVpZPDrsBtR4HKwiiGGBMdbTRQdXjf3j3iVtmPm4L4e+6552jw4MHMigSLSadOnZglCN350dTWGnB7SS4oBLfDPSaXrQWxMWHCBKpcuTKbI0ZpxowZNGnSJPrqq69UubEgVBA/haKUEBGLFi0SH3EccCsiBssWYHmEmIO16++//2YxX2jHgrYsZ8+eZZYt0xgeic6dO9vcF5DD4WQtyf55KUUQKXoPLRd88nCTfQ5rIzWPtsswXpPc81gb5K5xP17uss9jbaS6qTeNpwrCTe457B3JfvolkjmlSMqpwFKEeki4kD99+pR15f/ss89o//797Cdcb9ZA1/8333yT2rdvT0OHDmXCSy6eBqnyEFTr1q1jc8QZPXnyhLmx4FqCG0wOCC8IOVigXn31VSpatCjNmzePudAQW+Ro8DrVAnGI2CcErv/xxx+0du1aFteFz/Py5cvsM1YLBGHNmmnFRrMziUkJsk2lHTW8vX3FPXM4HE7Ow0gkRQsX1bgY4eSXSUOJQYPfoqlfThNnaVaQTyZOop92/EZFhIt2dgZFHhEDg8wypKIjlgfWDUuFJGvVqsVcZwC/i4BrXNARHwOhJQcy2yCgJCB8YF2BoIKAKFKkiPiIMR988AH973//o127djExhtYpKHhpifj4eKPilYi5CgsLY8sPHjxIr5hujYCAACpRIq1YohKwBqGS+Pbt22nNmjXsJz4TvEYlK5EhltyTOUEkRQvfq8SEBPOG0g4Y0ZERVKasbVY/DofDyQ4YBW4XLxRIxYJKk7uHNt+lVmJjounx/buKGUXHTp+lti2aMZcbasMsXPIN3RQutNj+4IG/6eeftolbWqZS6eLUvUU9cWYb8378g3Vx1yNwGxfoN954g2Wy/fvvv0zkQABCGMBig8rbctaPV155hbp27crEACwmiKtR+uwkqlWrxuoDQeTAOrR06VJWjRviBcHjEE0IrjYFQkUSOFrB5xMbq9zs1RrI9kPwuiUgimA90gLivfD3g4sRQeZ4j3LAMjVt2jTFEhPZIXAb4HsWWLgo5cvvL67Rn9DgRxTx7CmN/nAKjRimT4AkJ3fgiMDt/5buohRfbbE9nBxMYjJVGtRSnNiHkUgqXMCP3N09HCqUrAkkgOy2BnVqsfowM2fPpUULF9CP69fRpM+m0tkzp1VntzlbxW2kxiMeCS430/pDKJCIoGrJPWYKqk0jjqlhw4bMmoJMs4MHDyqKEggDxBIhW65ChQosQw0iCRYmxEDB2gPXnSkQZKVKlRJn5uA55XjttdfY73355ZfsIt2zZ0+qX78+K2+AzDY19ZY6dOjAhJ0lLIkkxHjBQiYJIuknhKhaFi5caGQVM8RQJM0d9T/q0KgGW7aFc9fu0quTv3GISAKOFEpPHj+iyPA0Mc9FEkcrWkQSzndq4ieX9vmYkrzVH+ecHI6OIsksJikpKZEe3r3tkGq+sdHWBRLAvkeMHE1fTp9Jw4a8RT98v5ZlgcHiYqlejympwj9nAhdxFFWUEwwQPpJLTQ68b7itVq1aRcuWLWPBzQjAhktMriM8LuiwFEnCSkrP9xDELwKZ5QQSQNAzajUpDTkKFy7M9jF//nw2h3sQou/7779nRSbr1VNnzVMjQuXeqwTeM6xg0cL3DFYhbKs1GBuB8GrI6+NFBfL52jzy57VPcFsDxxisPZHh+t6xGwokDsfRDB8+nJU5sTbc3DQEWHM4GpC94jhCKDGB9MC6QAKzZkyjgoUK0kvdu9I/586ydRWEi+2d27fpwH71wcM7Dp6h5wZMpM9W/kQxcWnFFyVi4xNo6urtVGfgJCr54rvUctg0Wvf7YfFRxwA3GUQDYn7gDoNlCWIHd1YIqD582Pr+8fldu3aNFaREbA4CsJVOEBA17733Hn388cfpcUWIEfrrr7/YshywNN27d48FP+/du9dsyIEgcaTYQ6QAWK127NhB58+fZ2n3UiFMa1iKF5KwJKTw2UjZbcgU3LJlS3rc0pEjR1hVc2vuQDWvQYmQZ5G049BZ+unv03QvWNllefXOI9p76pI4cxx6CyUukDiZzVtvvcWSSKQxfvx4dv4zXIdtOBxHYeZuM0Qv15sWgaQnhsUk61cpS1umjSR3N1dKSk6mPhMW07F/zWvmjOzdnj7q31Wc6d/gFllUSDeHcEC1bQgLuI8Qa4SAaksgHR8tOtDgFVYnuNwgZuSsayhO2bdvX3FmDuKbUMTSFASSwyqEit0Qdcgcw7AUWI7ty5QpwzLLACxcqCyOOkt4n+izJhf/ZEqPHj1YrJQ1ECiOTD2MkJAQ9toQv6YGtIBBXJISiOGCSJTD0N1m2uAWzWpnfb+TEhLTyjG4urrQ4G4tadKgF9kygDAfM389E1ISjnK3GaKH6+3J44eyYou72zhasScmCTeY/fr1o27duolriJ1ffnhrGiXk4SU8OCKOdLcZoodFKT5WEAFZIJBMOXn5Jv246yhb3rTnhKxAAou27KKbDyxXFLcVuLpwwdqwYQNL+R8zZgxLrf/6668tCiQIFhR0RHNXfI6IWxo9ejSz1ii5H3ESQoaa4YCLDfE5cH9BrMkB0YW4oxEjRrB2HRCHI0eOZK40uPYQN2UKxBAyw+DegliCmITQwByWrvv374tb6oPkekUAfLt27dhJEzFRKIsAAWQpBsmSu85WNu89QV+s+SVdIIEUQaAv376PFm7OsNqNW7zRSCBlFvjOxMfG2nwMpqamUEK89cxBDsdRwML9xRdfMKt4sWLFjOKUWC24rL28cHIw6q4YdtzppggnZntcGHoiuTj2nVYWJLi4HThnvV6RLeDCvnz5cnZRN7xYt23blqZOncpiluSAdQdCY9SoUaxm0cWLF61e8GD1QCsRZNFBVKDcAEQW4pogsKy14UCGF+o2oSDjxIkTWbA3Mu+kCuGGIJ4KFh0Um0RVbvwOXh9EDE5oaopk2gLijhDjhUa8sIyhWS3er9TXTg5HiKSvN+8Sl8xZsnUPs1w+ePKMtu6TjwNzNHn98lNgkaI2H4cuLq5UtGRp8lQZr8Xh6AXON7g5ww0hsnIRo4TjfMGCBawyPx57++23heuM9cQQDscWLF4x0t1twk9b8fbxpcLFSzrk4qSVxKS01O5kK5lW0naOAHFCsLQgBkm6aMHKA+GD6ttywFWFuBq5rv1KwB0H6wosQHAxIYYJ4gguMbiptIIaRG3atJFt6wFgDYOL7cMPP0yPeYKb7tNPP7WrLIAp2P/u3buZNQ6fC6xdiOVCnII1Ez6+g3Iizx6SklPo2l3lkgQoH3E/5Clduf3QZkuOPUAgFSxSzO4bFXx2XChxMpu5c+fSO++8w2IL0U8SN1y4acM5Bd0DcB7ds2cPpQjHIYfjCBSVi56lAJxFKDWsVo79bFC1LPuphLXH7QHWD2SoIevqxRdfZOuQ7QZLCKwueoEsLZihkc6OlhwQEWrS8G0BggxWI7jwkIKPOz4MrEOMEWpA6QWsYxBKiA2yJDogChDzhc8AVbxxgkWNKrgD9QQxbvl8lIUDex3IaPPL/MrUegkkCS6UOJkNkj9gMULRXMQiAtzkQTghFhJ9F9F+icNxFLKqxRG1krJaKJUuGkgDu6S1vHitYxMqW1y+iWePFnWpVoUgceYYcHFH/SKICLT+QB0juMOUAoZtAScS3HGhiCSCuNG3DaZqZNVZumgirmfgwIGyQymOCfECcOVhDBgwgMUwSXMIEy2tRuwBwhPZgwiMx+vt3bs3c1XiPeM1Ouq796LwnVGiZZ3K5OfrTbXKB7HvoFZe7tVbXDKmWfMWFqvP6y2QJLhQ4mQmOE+iQbUccKs76saPw5Fw8/T0nCwuk6+3p0MEkoSHRx7h5OpNMVGRmeJ6SBF2kUIu1KZeVVrxyRsUmD+tDlEeD3fq0rg23XgQQjcfprmevPJ40KCuzenLd3qTm8HFdNn2fRQVG8csMwi8tgcEQSPbC6n7OLiRlo6aQsjUQH0fxPLA0mQJ1B+qUaOG1T5vEAwQNXg+WJFgpsYFs2PHjiyLDPtDOQBTUJYA7xN95kwHMuvQEsUUuLlg8sbACQ2/P3PmTDZHbBRireBOtAY+G2tWJwS4S6UGTMFnivd169YtFkyOrDe4KKV2JQjotiYaUPxSya2Jz0C6m+3WrA5VCkp7rQ2rlqPdJy/Sk3DjDLtigf60/ONBlD+vD9tvnUpl6JeDZynB4G/s7uoiPCZOZNj80y9UsmQQtW3fwWj0HziILgmf6a2b5i1fHCWQJPC8Pnn9WO+2+o2aU8MGdcRHOBzrwE2upoWQNfA9xI0Q4iyDO/ejVJ7dxpEQLv6B29eIE/vIkrYkcai6/eCew+8CmtepQvPG9LdYuO9ZVAyFRURT8YL+TCiZoncJAHtBthhEBwIZLVG2bFl6//33xZk5KCiJGkZaQGA2rFGWqFq1KkvxhQULwJIDKw6qbltDTQkANNmF6LNVZKOMAixrSthaAgB1uFbt+JslBSDm7fka5entF1sxV5shdx+HMeF99N//6OLNB1ZLAPxz8QqN/3gcE2iGDBk6nObNnkl/m9QN8/HNS/6BBTMn/knYR+t2L9Bnkz8WV3A41rGnBIAhuBnD8Yqklj6BDXlbEk4GjmpLUrNG9Uxzh8XHxVJYiHztnX6v9afWbdqyZVgEPv/sUyaoXujWnd01XPz3AnvMGs7WlgSWHQRRoyaSVoEI1xWEDwQHrETIKMNQamPiCNSIJFii4EKcPn06myMWCBWwUdPJGmrrJMHMDisRMtswsGzNAicBVxxeoxK2iiStnLl6m154f55VkTRj9lwqX6ECzZsziw4fPEglSpakkaPfpTr16lGvF7uZWb0KBBZiIimzqFipOi36ep4443Cso0UkwYJv6ZqEdk2I8az6wJu3JeFk4CiRhCC4zAIi6cGdW+LMmJPnLtDwIW9RcnIS69f23uiR9N+1a/TplM819W6rU6UcDXmpjTizjdHzvqenkdG6iCQIHKT/oz+YVpGEpqzIzEI1a7wOVL+GWFDqM+YI8PqR6m8JVP9GmwCk6UJQQPggNgqCzhpqRZIp+CzxOaAopySclFxy2U0kwaXQSrhhGDFqNBUpUpSlOn+7aiWtX7dWNmuQiySOs6NFJH377bcsCcQafifDeDFJTgY5XSRJDW6Tk5Lo+w2b6LNJE+jqlSuaRZJhxW17yW7uNluxtcGtIagIjm7+aLIL9xjqGKnBVpFkClxNqMAtCSYM1HgCCJCXK4gpoVYk1a1cmsUc2QqE9+Hz/2mquA1LJIqHWnKlcZHEcXa0iCTEQSrVjzNk89DZlOyjb3kPTjaGi6TsKZJQJRYHPawshiD1H1YBNScO9EmDLx59yBwBRApS5wF+IqbIMFhbqX8bTOIolgkhIVm3YFVCUUq16CWS5EDANSxNgYGBFk+6akWSXujdlkStSGpkxSJ4rJB89qcpXCRxtKJFJKnlv6W7eEwSJ4MkQSS9ngltSZTACdbSsJdrV6+woFCwf99e2rR1Owtg7dmrNxNO2RWIjubNm4uzDCAw0IhWqVFt/fr102sooVGtJJAguJQymCRrjmnxRNQJsmQpQk0lqZktajchW0yaKwkkvAYUkUS9kmnTprEK4mi58uOPP7JWArAoZTX4HPC+1dyVOiNdXuhGH42fmD7GfTLBYgkANXTxDKFX/B+ZjVYuobocxxxOpuHAAsCc7Idron5JYZotSTh5BuRNpm7e8lWG1z4pzlLvrd2JWrIk6YWzWZIgUCAe5Lr9o58a0vTl3Gjo74bfhehAWr0EBAkC2dHqxBQIqHfffZdZPxBELcUSwb8/dOhQtg6/awlYhlD2H33mLIF9de3alVX3htBDle1Lly6x14v1cA+pcQ+qsSThDtQ000sJiE9YjgAKUMLChZpJKH6phLNakr6cMYvFXv1zLq33Gz7TP3b+ZnPgNo7jF30fk7+P+cXl/lMP2pVUSJU1iVuSOFoxtSSh/yLiHe1h0XO96UmJwuKMk9vxuPOIyn7SS5zZBxdJKtFLJKE1iFz3fYDaR6gobQpE0vr162nw4MEsdV/6fSlIGk0fTYN4IVxw8kFMEIQOSvhLnfJRqRY1ib777js2V0KtSEIwOaxkUj84VMNFo1wIJbgH0c4EtVGsoUYkbdu2zWrwuASsRsi0k1qZAPwdkSmolDHjzCLp8EFBRP/ys7hGHltEUnhQhqUv/90YLpI4DsVUJKkNzrbEmuuRNDQihVLddPRdc7InwnW/8MrF5L//B3GFfdiV74+Tq+HQkxIlStJnn39Jfx85xuKS2rZvr+hayk6gpAFqBskNOYEkgZgaVM1GiX7UIgKI98HJxlLXexRx3LhxI33wwQfpIg+/p+TaQ4kCtEvBgLjBHZ40l9qomII6JRBesNDAcgNx1aFDB1ZJHP3o4CLMSgwtZvi8tPTAy2q+XrKUfty8ldoIgnfUe2PZMkb7Dh3FLTgczsDy+ahnYiK56HRTzMmeuKSmUr79h8j/7w3iGvtxSkvSq/0H0PCRo2nN6pW08ccfqFq16jRyzHvC3b8Lvfn6AJbhowYfby8qEpgWhGwrV+48ZE1M9bAkQUQgLkZN9WlDYEmCJQZp9IULF2Yp9agMDWsI3EcoGmma8SRZkhYvXszmEC2o7I19467tq6++Yh3zTUEck6XsL+n5TEFpA/wuKuniuWFBwh0j9ofXriaA21GWpL///ptV6pZA41+lOClnsyShLhLeR5269ei+8LqCg9OOO4jtWOH1mMLdbRxnx5IlCb3aLN0sWuOYW2H6JbAChfn5Uapbmg0AZ0YpltVVuDl0VXmzHRAbQe4pyuetMG8/SnKVv9nUSmBMOLmlKsfRPPH1Z90j9KBwjPDZm1wvDAn2te+aKeEqfPIFo5UD9FNcXOmJT35xpkyK8FpTrFw/XIRrtPujx1Tgt/Xkd3KnxfenFZtEEk6sXTzlC0H++KyY3SLp8PFTrDYSigRK4HuNmkmoD4NYDDU4WzFJFEZDvSO5diCWQFo+OusjiBoIfzMWHA0LEoo0SunthkBMwaUGgSAB4QJRhYrVjsiOg2iDWLOUom4JNSLp5MmTqkUyPh9YxiCqfv75ZybUYN2ChUwJtSKpT9uGVL1sCbZsC/dCntLy7fuyNLsNxkQ5UzKOXzRV5yKJ4wgsiSTcwNgjkiTQaBvnTIDzLSza4Ouvv2b7l0CtOSU2bNhgdA0yBa9VygS2lzVr1lg8r7399ttmSTi2ghtdpZtWeGtGjBghzuwDsaPovacErqcI55DD0DuCEBMkBmUVNpUAwAnWEmpOrtZKANy8cd3sYlsyKIimfT5VdQkAZxNJiEmCu2zu3LnimjQQtN2kSRNWZFIJiCtcoPGZQIyorTCtFcQXITNOCbkAbHTaHzJkCLMY4U5QAjWd8FxbtmxRVTzTkSUAUPUbA+LREmpFUmYVk9SKWpEELB3Hao5hwEUSRyvOIpLQiBuxk0qghZGU+CEHSqPoZVnu2bOnxYSSH374waKg0wI+Y6VwC1xfrMWqqgWlauBhUAJxtAgFkQN/L/T/BFktkmyKScIJ1NKwlw0/rKfeL71IvXp0NxqffzaZVd5Wy+krt2jKqu30z393xTXGXLhxjz2OqtpfbfyTgp86PlYFtZKqV69uNOCiwsUbcT1y1KxZkwVow+0C0YGsMQRy44KOjDJ8GU2BIDMVY2rA64BLUGnIgTYpOOnh4IPlRgKCCfFTEF5a0euEIIHPzppA0gOcZFJgirGCmm0cjdyxKw0OJ6tBM29YGtQO3GShTQmHoyd2BW47ihlffi5redjx83b690KGpcIa90PCaOlPe6nL2Lm0eGtadpMEmox2fm8Oe3zz3hM0c91v1GLol3TkgmOKNEqgJQayq0wHLEMQUHLgjubLL79kAcdwHeFOCycFZMopgcKJEFFagVsK5liloQTM0lOnTmW92mBZAk+ePGF3W4iP0sqvv/4q23bDWbl29zENmLKMyvX6gMr2fJ96frKQTl02t5T+cew8dRwzm14c95W4hsPhyIEbLJQQUTtq167tFDXZODkLpxRJ8IsWCAgQZ2nAPBgQoGz6tATu7r9Y8wsd+/c6m5++cptZkEzv5iNj4uidmd9SdGy8uEZ/0KIDKfVyQzIPm4K7IwTqArwXxCDBnAz3kZJvGQIDQdMQLA0aNBDXWgdWH4gypWEJlBhA2xLUYapVqxb7O+JEZ4tJGgJr69atFmMCnAUIpG4fzKPdJy9SQmISJQl/k6MXrjOhZCi6N+4+Tm98sZJZMPF3dAQJiQkUFxOdKSNWGHnz+Yl75nA4nJyHkUiKiginuNiYTBkx0Wk1e+T46uvFNHR4RvBYqdKladsvv9Ifu/dS9Ro1xbXawUUKbNh9TPEi9eRZJO06aZ71pQcQEXIZZdZAoDVMyQhmQ/A13G9qxQMCtXv37s0qeqsxRSO4HHdjhgOuKvjx4U6zBixYs2fPpoEDBzK3IFyIUo0irUAEwrIFYam1IXBmMnX1diawTUlMSqbx32xhy7HxCTRpubpYOnuIFo7h+Lg48vLxdejw9PahyPBnFBRURtwzh5NzQHKMpRghgDhRPUCZFZx3LaHkZdACblrhyVCqESehNfa2fPnyRmVipAHrniUQiC73e/bWzNIbo08rNOQxS5H0Ek6AjhxIx3wWpty9vlmLljRz2pdsuU279vTjpq20euUKVkivQsWKbL0tPHiSFiz4KNSyZcPa47YCC9CRI0fYAag05Ni0aROVLVuW1q1bR5MnT6bvv/+eCQiA57MmIFCDCQGKqIRtzaqE4pMIppMGfg/uMgg8VAuXA3WIkJovgcDnsWPHMqGE8gT21CXCe0OFcgQuIsbJUQHrtgJr5N9nr4gzc1BCArFuZ6/dkRVSjiDsSTCFWzi+7AU3GCGPHlB0ZPapN8XhqAECAok0uCm1lk2GG0cMW7POcNOL30fTbcR1WqJz586sPZVSwLU1IPhQBgaZvZbqDeIxBJHDA2BpO0PwPpDYZDqsCTt81nK/h5tyZ8JIJKEWwcO7tykhwXHuJpxYg4UTrHCmFdfIgw/wvQ8+pI/HT6Q3BvanbVs2i4/YTtniaQGppYtadtuVLqouO0grxYsXpwULFrAsMMT3rFy5kg3UFcJ6pQ77EChoQfK///2P3njjDaOMDAggNTWITp06xVx6zZo1Y1kd1r6IOBgRX4Tfwf4Qb4Ru+nLAtYeWHwjaHjRoEA0fPpz69+/PTja2HtSmQBRCECITBnFOiFlC1gNKIOzatYv1lcPrPHjwIBNV6DuHcgGoJ4UYrjt37jjEGpUq/LMWhI06WxiZiaOEEhdInMxCbfshCZwH1ZwLlUACDIREjRo1VAsE3LzCYqI1YByiBeEL+H014PUgyQevzzA9Xg1I9sG+iqrs9YhzNjwA6DNqzeqUGzD7BBwplNQKpPBnz2jNuvVUsVJl6vniC3T50kVBYJSg+g0a0F3hYmcL7m6u1L9TE7b8Wscm5OEuf/GGgGpbv5o40xe4oo4ePUpvvfUWc12h/hHEEqwkr7/+OkujlwNZWWgeC4GA2h34Hdx9WALZbch8QwFJBHljGUIH7jqpqrYSqCWE9EuIOlTqRq0lSzE0OLnASoUSErAaoeI20uWRzo8q4UoWMlvASRCuRlT5hvC5desWs2TBJXnlyhUWhwX33Llz55hAglDCZw5BBfcfWpToGQ/kJpxEGlRTPtGVLBxAxQv6U+0KQeTpYfluUW/0FkpcIHEyE5wXccOFJtmotwMLOo5h/Fy1ahVL58d5CudGxEHiJlNtoVlTIAxQfBexnlqBQOrYsaPqoHG41rC9LZl4uBbgdaq9+UQdJwgrW6xdEHC4VqgVjDkVWZnoCKHEBNLD+1YFEhg25C36bs1qGi78lFw1OEHPnT2Lzpw+xeZa8MrjQfPHvEpVyxRn80qlitKCd18jb09jRY4L2uoJbyoKKHspV64cC0iWikLCsgH3lmHavBxwW+GiDwsQliE8YKaFL1gJiAiIIjTEhdsMy9LAiQfWGDmQaQdhBPcZTki4a0GtEGnIUbFiRbY/lBxATaR58+axg3PRokXMyoNUXmcAFjnER0H02XPHaconA7rJfmdwcpn0RpoY9fP1pnf7Zn4rEb2EEo6/J1wgcTIZnC9hCYalGPGJOC/h5x9//MEagsNCjhsknFPtufmB1dueEiGwzMPyYk1Q4HGcu63FO1kCMUxqknHgwsO5V65EjFpwzZKylXMrirY0PYVSukBSyaWL/9Lvv/1q5B55+PAB7d29S9OBUDGoKH0+pCcdXjaRXmpZT1ybRvfmdYT1E9jjY17pwETT/sUfU+VSxcQt9AdZXnB3IfAaX3RYXOD7tpbqjkA6uJcQ04Rt0QsNbiVLLjOYquEC++WXX5j7CcuGA5YeOWCSRY0iWLkQ/2Q65MBdiqFpHAelVJASr1mvAEe9gMUJliW9hFK9KmXohylDjb47ENxLx71uVHByZO/2NOWtlynAL3N97vYKJUkgRXGBxMmB4PyE7gSmaBVdOHdCVFgClvxixcyvMVr3BeFiqegvwHVGDyt+3bp1rQaW52QsOhwloZSYaHthv5ioSE0CSU+qlC5Og7o2pyIB8l+UwgX82OMfvNqFerauzyxOjgS91xCEDVcbzMTozA9rkLV6RrhrQl803H3ARww3GMbVq1fFLeTBXQv86+PGjaNly5Yxc/SAAQMsiiuYsGGxUhpyoNs/Dkg8jripjz/+mA4dOsTMyXAhQtA5G7B8wcpmz92nIY1rVKA9X4+jM99OoROrJtPR5RNlK3IP7taCzn33Oa38ZLC4JnNIStIW32EI7o31tLxxOPaCc5teFmqcu0wtQGgobq3liFy8jlT6RA6sRy0nU3AOshYjKldcF69bCdyoSo3QDUEwtbU4IxQ3NgTPhSxprVizQNlj4cpMLH9aAvB9utrRxM/N3UO34N3sDhrHwgSKIGwEOENAIF0eJmVLwB0HYYWYJIgstC9p3749rV27ls2V6hf16dOHuc/g8po+fTorN4+DES43pWwKHAyNGzdWHHLgoIIwgoUG2WdLlixhpnAEW0OgOaJPnBI4EeEkgIHvHQ5EDFi7IDIN74hu3rxp1PhWDyC8EYOkdKIEaNSsJNxNGTZylLhkTLcXe1DpMurS7/38C1BgYXVBm7II76VIiSDy9slcCxiHowSEBWIercVmWgPnBrlOAojlxEUeAcxKA60zTLNtYblRCkuA6EL2liGwwMObAMEjtw9pyL1PpPMrBXHjMVMRgteK7Da4FuX2gQE3HlpkmQILmaVzmik4z1r7/JDqb6mZurNg1LsNJ3hDPIQ/QLGgMnaLHNRteXTvtkOyiywi/FHdPbRlApiCtG0ckPhy29u7DQcPUjlxt4HPFHFGGLDEWGrDYe3zx+sz/WwhCGA5QnwRYnEMQUwS6jUhHsoUiDEp4wI/IeAMGy9CYCmB94eDCRYktCmBWxCuPbXgZCH1blu+fLmslQfbyJmZpQPY2oGMMgLIkpPA3xTWL0k0qu3dNuzltlS/qu01gq7fD2YFTq31bkMfw7o10+7iRr87llavXM7i9ObMX8BKYsAFbQm7BZIB+Hs8vn+XFZGUGP3hFBoxbJA443Csg5gcNb3bcEMnufERxG16HsT3EZYRqS8bgAUI5wC1vdsQz4QbTkPw+0hsQYKIpQw7xDAhi9b0JhdxUkgeMQWWHYgDQ3BdgUUMST2WypvARYe+mabnecRYyp2vcENr2ukAogWvAZ+H3LkV4L0jDARZ06afN+JNTa8lQO59IawE1wNLzdzx/PgMEWNmCJJrcP1ylt5tiiJJL4EkkRVCKSkllRKS9XGn6CGSDMEdB+4eIArwJcMBiWwspQaylmpOIIPL9HOFRQgHn1wrEXyh8Tg6T1sCKafoPo0yAFKwuRw4sHBywx0IygQgsw5iBIIJ2WbITFHzd1cjklCWAPFctmIqkkDbtm3Tg+DViiS90CKSftn5B40YOoRu37qlSiTpKZAkTIUSF0kcrdgiktSiVSThfGXaWxK/C5GhRiThuc+cOSOuSQMWdWTUmoLzrqkLDNcAnHvUiCSIL4QJGAKRJmcNR0abaewTGo7jOmJNJCGUAyEeprGyKLeCkBFT5ESSlD1tTSQhjss0icjZRJKsu01vgQQ8vbyoaMnSVv2huQVYAxC3gwwwHKy4OCtZk1DcCwICViiYgWEJwjIG+rfJ/Z3gXpJ8y0jpR4kBCRwg1v4OECKoyQRX2cSJEy0GCUIUQRCNGDGCCSq49mBFwvvCe3KW7DYllOo/ORP4e3l5eQtCXV2asSMEEmAXoBJBrCgsh5PdwffZFMlNhZti0+4DhgPHpFzYgtK5VW692n3hdcrtS+kaLbde2pfc8xsOIPf7cp+VEtK2cs8vDSn0QcvzZgVmfzVHCCSJ3CqU8H6RLYafqHGBmCKYj3EH9dFHH7HsCihuKHUl8DsQIHChoS4QljGULvCoIQRLEL6AODgkSxReA+4oEI+jBCxXqE2CzDjsFxYnBJkrFSODgMLdjBTci7sNmHohxnD3g4wOjm2cPXOaWZNOnrsg3G0+olXfrWPz5xs3oWtX5St9O0ogSeA7xYUSJzPBeQsWH1i2Uc3/nXfeYSn3SrGVajENUgbIyAUIG0AckdLANVIunEDuOYFcFrP0+/AsyO1DGjjm5PallKUst156X/CKyO0DQ4qZMgyxkFB6X3JgW7xmuX1IA/vCNkpWLWfBSK04UiBJpAmlUrlKKMF0i1pCsM4gSw0VtlHgEW0+4P6BxcYa+DJJPw1PDBBAcl8yHFAw4cKaA4uTBEzNOPiVMs5w4kEcE4pPSjFLiJuC+2v8+PFsbgqsTS1btmTiC/FWCEiHrx93RzCf6xkcjX3hMzMchsByZfiYJXNvduCNAa8xdxvGa337UJMGddly00b16d7dtKbHhvjmzUe++fxk+yXqORLi48g/sKAgiOVdkxyOnqBYLYKO0egb4QWwVONchRtFe5BLmpETCHLgXCyXYayUiCMXsoAbXuncbglsI+fqV4r5lFuP87gaJJelIbgB1hJqIBeTJYdSaIMzYaRUAgsVoUThA4oTVKgjR2pKKhUoqL5w16Zt29nd8z8Xr1DLVq3FtdkH+Hh/++03Zl5E3BEu9Mj8grLHemtl5nHQSgofVhv4mmGuhNiB317Jl41YIIgVBIZLgge+ctQ7UvK1w78MqxFiiQyB4EDWmhx4HygkibiCl19+mVXBhp8Z+0Anf9MYIDUonTjwOvB8hsMw3gl3MIaPWbKY5UTyeHoZ9Ul05EC227OnyrFqHI4eSAVtv/zyS9q5cydrP4SfmMMiYY81CYHIkoVFAjfwappy47xqum+ICbm4HYAbNtPzLgwSapqe4/WYGi8Q16Uk6OBJMAXix1omNc67uCaZAjGjpQwItreUjASwLwheZ8dIJHn75iUv+AozYcCipESRokWpqCAEpDFy2DvUpUNb4cD4lfyFgyK7AZcYUitxkMC6gsJl+MJjGQFuqNdjiRMnTjDLE6xQ+InMA8QyYSDATgnEPeFkgiHdRUBEWPqyIzZKyfpiKpwMgfCDUIIAQ1kCCDcMxF1x7Acn7sZNmtLcrxbSwaMn6MCR41Spcu6uhMvJHeBiixhLJFggNAE3iBBNyErDhdZSwLMaIHZMgfiAtV3pZg03n3LWEliWlG5Acd6Vszxh/3KvAWD/OIfKWXFgoVdyVeHcbxrkjeeC2EJAuhx4HIlDcu/Z0rlfCQRcS43YTcGNLfbl7K42YJTdht5bmUV8XCw9uHNLnBkDq9FjQViYfoCFixShqZMn0fZtW8U1lmn6XGX6eGB3cWYbr0xYTCHP0iw5EDW2AEGEoGYIJSzjzghfElz48BNxOwh2tgSCn1EYEoIJGQ2IMcLJAgJM7ouGOKBRo+Rr7ADUToJ4MmXYsGFmqaOGwEVoCrIzlPrOAQg5NXdmhtlt6M2k9uQH4Si5b3FyQDsVCcRlGbZ9kSxRhhhuoza7DU2Q/fPZHpMTHRtP/917bDW7DTcMPXv1pl59+gp3gSG08ccfaK/wWaISvtxdZIHAQswNlllUrFSdFn09T5xxONaxJbsNmWRomo1jFevx3ceNH/q4GbqxtGa3wSqF7VFrTq4zAIQNzofwBuDcjd5wSpYf7BsWdEuxOxB7OM/JVbDGtQDZbgjLwH5xbpezVgF8fogZNbSimwIrGxJ9TEUPrhcI08D1BNc17AvuS9zoynk18JhcuRgJuew2QxBvhThXZKzhs4GLEUJNSSA5dQkALSKpkUIjwWMq07OtiaQGdWpRsslF8tMpn7NAVrUiqXOTOrRgbH9xZhv1B02mh6HP7BJJEhA1uJjjYDJEbp294LUi60yid+/edPz4cfaFBzC7yjWDhO8fX0qYoHFiQKwRgszB+++/zwInTZHM4RI4KHFiQUkAvIbVq1ebCRM5spNIWvbRINmK2mo5c/U2vfD+PKsi6acdv1GVqtVo9oxptHrlCotWQKBWJCkdvxJqj2MukjhasUUk4XGsN/z+4zyD87Khu8wWkQTwPCjYKGWAaQUXfHgE1MTYoA4RrGKm4kUtOC+iTZXhZ6iENQFjDViCYPGxJPzs3Ycp2aIEgDWahIaQp/BdkhvPC3e79rLuuzWsJYopJ44foysagoAfP31G/968r6hYsf7CjXu059RFuvNYPgBOT3BwoNo2qlPjgIQIwRfemkBCIDXumKSxfv169hPqXAlkUkhmXAxc3CGQpLmlbtmI44FZGLFFuGPDsiUzMszh8MNDREBo4wuNExFOQChXoEYgceTp83IPGjt6JDVr3pJ2/32QRo15j6rXqCmIk0rkZmdmTzfvYHot8IHZaOP2xKqI4nAyC9wAQdBIAglJMADWdMQl6QEEB5roWrsJUQLWfTUCCcANhnOi0nXJEnh9EGNqBBKAS05NzJMcEEbwOFgSSLkBzSIJJ8/8PsnU1/+B7IA2tvcEO3fWTNkv0G87fqHLl9T7Ro//e4M6jJ5FbUfOpIs3jeNsLt9+SO1GzaSOY2ZT/8+WUeO3ptKb01ZRRLTlZrP2AD82XGArV65k4qhfv360YMECdgKAqFAqGDlnzhzWcw1j4MCBTISg7YdccF5WACsSXhPqKcGcjPIBU6ZMYb50JWFlDckylF1ISUml7QdO05j539PIuevo+z+OUEKiuSUMFdyXbd9Hs9ebuzrlgAD9Vfjev96/H8tuw+cy4dPPaMoX06l0adsrfgNX11RyEz5m0+Hqov3kzeE4CljFDa1FONfgOIBQwHXCWuKLWnCjh6BluarSSuD8BnGFApJawLUAYsdacLMhsOrAqqIUGC4HPh+Ec8CLYMk1Zwqy49Raq3I6winRdsKDfIyG3uBAKFu2HPn42tcz6sqdh9R30mIKfprWxTwsIppembiYCSVDdh75h96avlqcOQZ8aXEngS8grErvvvsui9eBlQnLcuDLjTsIDIgr3LHApwufsjOA1wfLlWQ+zm4Cx1azt0S8IIb+9+kSGjbrO9q05wRt3XeSPly0gbq+P5d91yRuPAih1sOn02crf6J9p7WXRUDK//y5s+l/vV9m48Z1fXriOfIY5nDsBRZqxOngBgzxLYjRQRIL1sFNZuuNmByIb0KbDLjlLQkYnPMQw7Nt2zabb1ZxHt++fTsTTJYEDN4fgsTxuqxlp8mBaw68B4hhQgkFOQOEBM7jiHvVKhZzMm7CF2+yuKyq2VxJ4QvrnSeVKntEU3x+D3FtGl4RifRPTD7Cn+C+FWGDeKPIcHmVigC57j1eogWLl1D7Dh1p6IhRVLx4Cbpy+RJFa/jDCTf3JHUliY1PYF3+m9aqSN9s20u7TsibIOF2a1qzIpUsnBbEh7v+qNg4Fmhnq79aAjFJ8K1DEEkDLjccBLirUAqOQ/0h9MJBDSIMBIAjkBtfeqUUUPjkEehYv359NuA3xr4grDCHMJDLYsPzIi0Tdy04KaHMgFTnqGvXrrLpoTDH4k4F1i1Ylfr27cteM7BWbt8QZP1JBSsRf6D29+rWrZsudOC6NMw6QcCnYQNLiEtTszg+KzSEBCjRgLgmOfB3klyj3ZrVoUpBaa915rpfacte81RWBPw/CHlGXZumxS71nbhEEErGmSXuri7CaxcnMngL35kkmYsA7q5xYjU94SEtH9mj1sBxXCVPNHl5pLLjVhogMs6NbqT4Wj2GQWBgYeraJaN3FodjDcQoGrpw0GpIaqGBkiE4ZwApwQXgXIBCuohbRL02xPSgiwDimSBWJHAjiXMBYlpgeQc4R65bt44tI8xBKm6LxBUpRtMQ7BPWGpz3YMGCcMBxj/MCXhusRnCXISxB7TlKCZxTIFzwnHh+7AsDyzg/w1WGsi04Z9nqCpTAZ47XjJgfCCDMsS9Yi/AaIAzhNrQUVC0HrhX4HCH29BgwIuCcLfXUw99Xii/LCuy65c9/N8Zo6MWXM2fRyz17sViM7sIJuEPrFsKXNYy2bt9BJezoGvzP9bTie//8Z16Ez5Dz4nZ6gwMXgdDSQH8dVI6FOLAEvsg40DHw5YaIxEGqlKoPcPDhQJcGvmS4m5DmSncJa9euTTex4oSAOyUJucw2gAs2ArUhNHCw4cQF6xiKvaF3HASeI8EdFrJKMGw5mOy1JP2465i4ZM6OQ2dZJhvcvYh/08pfe9ICSwHunKXXiiSGps2as2XbcaFU4RpkNlLt+zw4HL3BDSHKpaBFEy7yn3/+ObsZg/vJUUAAIS4TN4A4n2EcPnyYXcj1jtOBCMPz4rwu7QuCBfvHuVxPcO7HtQAlDhBzBHchXHIQYpYsWkrg+oQYV72G0o1/VqE5u02KSergIR93tCWiKLPgWMuOsZTdhhYMS75eYGbuhHXpuzWr6Zftxg3xlDBtcPtC0+do6bjXacSctbRt/ylxrTmzRrxC/To0Zst6ZrfJAesO7m6QVaUFdK6HWdTwLsoQmKXRxd+wyircYHgflprVwtKkFBsF5Ooe4c5MumuTAxYyWJmsYZjd9t133+lyIsLnYJh5hwB20/dfu3bt9O++1uy2xKRkKvPyWLZOicPLJrKu//0/WyquyUBLg1tkuqHBLdxuSg1ueXYbx9mxJbtNLRAbuJFQk90GlCpWc7IWw3N2tstuw8kzPMaNNoUXlR1qBJI12MW8QAEqWKiw0XB397Ar3qVz41pGP+XI4+FObeqlXZQyA9TCQANaS8ACBXEjDZimIUzgClMCbitk0aHlCSxPAO4zZJtZAu48ydKFwHLcvUlzpd+FqXXq1KmKQ41AMkWvuCaYrWFiloacQLTHkuTh7pbumpUDLt5igfmpbDH7axfh7yj9Le0Fx6ilweHkBnAx5sP5hjNh05VI7qRqOOzlvdEjac7MGTRv9kyjMeHjcXT4kHzPMWtAGL3YPO1uBRYAWJXkmDy4BxUVLmqOAH/8QYMGpQ/U90HvIdPKqKYgow3FJqUBnzxMkvAhWwJFHHEnNmHCBCa01IDyAkirxYDVCNW9pbm1uy7cDaL55IwZM+iTTz5hBdr0uqhL4DOE20ntkEBMFqxFcp+DvYLsze4txSVzXuvUhAnvssULUet6VcW16kHsXv+Br9OgwW9RyaBSNOD1N9i8bLnyFK+zyZ/D4XA4xjhlxW29QKB1uZJF6eVW9Whgl2bkZnAxTE5JoXW/H6bNe0/Qk2dRVL5kYXpLuNi1rGMcH6Snuw2uH0NTL0BgIHzeevudESOExrowZcMKhOBImJrhpoN1Rw2wJMGdh9cHFi5cyMoVyIFYATSgRGA33FV4r1LwNvanJhDQ0N0GsSYXN4VgTS0pvyi3gGKR6CAO8JwbN240CrisV68eG8CWYpJ4b598s5m+22nsiuz0fE1a/MFA8hREEggNj6KBU5ezQpIS1txtrVq3oQYNG1FScjIdO3qEqqNKbn5/luWy9tvVZoGjvOI2x9nJSncbbpLs6fXGyXxwjlOKoc0MnFIkFStWnMpXqEAHD/wtriEqVbo0K6L35+87VUf5O1vF7czEUCQBFGBD4DXce2pEEuJ0EFSOatt//532d4DIQnsVUxDDBOsRil4aBt3hZAWrFyxaiJ+yhqNEEp7X0ISL12OY1YJsP2TIAXsqbqNw6d9nrjBB07BaOWpUvbz4SAaop7TvzGX64+h5WvfHYasiSSu++fKRn7+y+09P0Ki6eauO9OUXk8Q1HI51tIgknOtxLkNIAizDEDhSphmeA+5zKeAXF1NrIonD0YqRnyEqIpwS4uMyZcREKyvDJctXUKHChcUZUdcXutGPm7bSiFFjdMjoyR3gYm7YTBGZE+jujxLzloAYRL0muANxkoF1CD2AUHZAqVkhWo8gO8I0KwEWFsQjlStXTlxjGUNrU2be7RmKLi2pr6ZUL1uChr7chkb2bi8rkICroIja1KtKfds75oYkWvgb4NiS69qv5/D08qbwp6FUvERa6QQOR2+Q/bt06VIWkoByJhA67dq1Y6VIYBEfOnQouwmbP38+y8pF30m5/mscjj0YiaTQ4McsBTCPp5dDB6xI4WHK8S2lSpehn7f/xC6UEyZNpuGCOHq1bx86fuwoFdBwEJy/cZcmLN1i1wiP1q+0QWaC9H3TdiCIKTpz5ow4kwcnGlibYBVCSj2sKjhRIQAcVhklLAU/q435McxmU8qwwzZaBkQPArYlYJ0yjQEztDLhd7I7OLbCnsh3+tYDfKaP79+l2Bh50czh6AGST+C2VwPOMThn6FV9m8ORMHK3FS7gJ3zZ3KhIiZLsbtERRIY/ZWLM0h070p5f6Nie5i5YyGr6jP/oQ+HuOJomT/2Czpw+pbrBrWkJAHvIbu42W8FJCaZsQ3ACslQ/AycnBHZDWMElJSG52/7888/0uCZLIC4IXasB6i2h2JtewGQPixjqgxi+P/xd+/Tpw5ZhrkcVdCV3rqG7DXFG7u62B6UnJ6dQXEKi7u42Q/IHBFJAwQyLrB6YCqTRH06hEcMGsWUORw1q3W2wFMGapJazZ8/SN998w24QubuNoxdmt/gpKcnCSfAexcXqb0GJeGZdIIH/rl2lLT/vYL3a3hs1ggmkmrVqUdt27en0KfPKxhz9MBVIwFqBMQgHVAyHUMJJrWbNmqyAJHq5wRqICt5qMLT4oDAl6jzpBVyPKM5m+v4QjyQBYaY23g2tSFAk0tYBgeRo9LYocQsSh8PJbcj6QRwhlCCQwkKsCyTQ/3+vMEsSCkdK26P7/wud2tNdJ2nqyjFmy5Yt7I4QxShRWBLtTXBnh8q4aqu4IgjTsIo4hBaCNx0FgtkNhZh0B5uT0EsocYHE4XByI2buNkP0cr2hR1to8CNVAklPuLst+4F6Rq+88oo4I2aWR9sRvWOFUIwTQaBSHSdYmBYsWGCWUm+IobtNLxzpbjPEHtebJYHE3W0crah1t6GQLYrbqgXxk+j9hmPUEe628uXLywaG4/jA+7H1+oYiv2pvBlESwZ62HSiBYBi3hfeD2C+5WE2c79ByxFYQ3iAXj4okouxU6dyiSAIQSsWCSrGAa1tAxtyTxw8zXSABLpIyBwiOV199VZyZs3//ftl2JnIgjgmZLIYZcTgpoJcRGi/qAU7IiH8yPIBRO+nixYviTJ7sLJJQOwk1lGwFIkkuI5WLJI5W1Ioke3CESJo5c6bZ86DkADobWEuIsQTOee+99x4rvmsJhAMg89gegYEuDXPmzGFWdEuglRS8APY01cU+sC/TzhAoOCz9bbIDVtOOPPJ4kLuH7RkDSBVWm93EyZ7g7gSFOyGGTAfql0gdvtUAMY2muoaxQzjIunfvzopiFixoW6FExEbhTrBXr16snIHhdxI1nKwJpKwCn223F3tQn77/Y6NW7drspKoFewUSKFIiiHx81VVt53ByA7CyoKeYPQIJ4Jw3d+5c2r59u7jGHNR1Q507ey0wuOGEILt8+bK4xhzckKKWnj0CCcBihH3JxblmJyxakjy9vKhoydJ2i5zEhAR6ePeW3R+6VsoUL0xtGtQQZ7ax5teDFBUbxy1JFkBFa3T8R2aJKRA2KAKH9iZagBhCbBOy7UyBSwwD3yeYn/ETA+sgICCI4EYz/AkRJ/c9RtwUTk5qLJ1ZYUnasGUb3bh+naKjoth7q/XccxT6JJQ+HDtG1clHD4FkiKlFiVuSOFqxZEmCtUYvSxKsGMARliScC1BY1zDZRA/gYkQspiHI1sO5Vc+q017CtR3CDOENhmA/sKrr6fmBOw/PK5V1yW6WJEWRpJdAksgKoZSbK25nJnCNoe2JdFIyBAc97rhQBkArsKKgWra1BsC2AEGFO6ajR4+qPiEYiqQpb71Mreoat7DRwr837tPQWd9aFUkoh1G3ZjUm9hAAD6GEoqovdO9OvV960aJoc1SLEkOhxEUSRyuWRJIj0Fsk4TyAuElHtcpA0V4pBhM3eLhR1Go9VgOu7YjDxE0umDx5MrP+OwLcKC9btoxdR3OEu01vgQQ88uShYkFldG94ysl6EPBXuXJlM98zDmy4tgxbgGgBJ6Hvv/+etUaBP14PEgSxjurgaLGCYpu23jGhCXL5EoVtHkFF1BdFxef4ycRPqU27dkwoLZg/l/XUq/2c8oXFkT3cuOuNk1vBOQkXeUcJJIAgblh6cK3EOdURAgngXILadrDcoeemowQSQNgF3IXoVZrdMLMkOUIgGZKpFiXhy1WyaCF6qUU91i7Cw6D4X1JyCi39aS9rcBscFkEVg4rQ2y+2oi4m/bi4JUkdaHDbtGlT2rBhAxM0+Lw6duzI7oKmTJmii/kW5lq0QEGFbJxE1ILvGk5qKEx6584dixlsljC0JMn1bouJEwTYlVvC8ydT3cplKH9e+e9L8NMI2n7gDE1esc2qJWnpilWUx9OTypYrR7OnT6Mdv/zM1s+aO59+3fEL7duzm80NcaRAMgQWpbeGf8gtSRxNmFqSJkyYYDWQ2B4Qx4PYGHuBJQk3fD/++KO4xrHgvJUZRgWENuAz0tPFpkTnzp2Z+zDbutuCihV2qECSUCuU8DrKlS9Pjx89sint0TC7rXW9qvTtxLfITXhONBkdOHUZ7Tl1iT1myPjXu9Gwl9uKMy6S1IK7HZz8kFZfokQJdseAeB+IJlhvcgKWRNL6P4/QlFXbKTImzUyOityjX+lAo/tkVAyGMJ+wdDN9L2yL7yCwJpJwkqxbrz777l26dJFCxAy/4sVLUFhYqFlpBN98fuTnX0CcORjhLTRt0Y6mfTlZXMHhWMdUJGUXIJJgwUVNuMwgs0QSbj71jrVUAtcH1MPLtiKpdq2awv+OMe2ZkpgQz0oDyOHm7k4v9niJho0YJVxsw9gFYc/uv+ibRYvo/n35Du1ymJYAmD/mVerdpgFt23+KRsxZK641xl34Uh5aOp5KFk5zh3CRxJFQEkk7j/xDb05bxZZNmTy4B731Yiu2/PGSTfTdTuNSCHqXAMgsK5JExUrVadHX88QZh2MdLpLUwUWSc2BkMkrr8O2dKQMuBCVmzp5Lnbt0peHvvMWCU9u1bsHcJBu3/kSlSpcWt9LOX8cviD//ZT/lSBK+mPtOK6dHcjimzP3xd3HJnK82/sWsRnCxrfvjsLhWPR+Nn0gz5syVHVWrpQVccjgc5yKyUqTFoSdyz2849ETu+Q1HTsSxfjUbadWmLZ0+dYqat2hJb749hF59rT+lpqTQo0cP6bk6dcWttBMbn9Yvy1rfrMzoq8XJGUBUX7olbxEFTyOj6V5IGF28+SDdxaaFv/ftpb27d6ePRw8fUevWbald+47k4eEubsXh5D6ee+45loY/ffp0Vtdn1KhRLPssqy3+MVVjWPC10kCFbb0ERWy1WNl9SAOxm3rtKzPflzNh5G5r1KiRuGSdRiEh4pIxxwqpq8kSHxdLD+7cEmfGIO151YplLPreEDS4RT+37du2imssY+pue79fZ3q3b0daINzdz1j3q7jWnO0zR1P9Kmk9vbi7jSMh525DsGOlV8axoG0lLnz/Bd24H0LdP5wvrslAjbsNJvfWwo3D64PfpMKFC9OaVStp29YtFCu8HlPUutsiKlqvseR3zbxGlSnc3cbRir3uNsSqQhgppfXDJYZEEr0DkdW42yASGjZsSAFNlbNXUd/s8MrDlO+qcTawKdbcbdhX7dq1qVgb5WK9OGf9vfRvi/tS427DvqAPCjRRjnfEcxxZdcTivrK9u00tTUJDKK9niux4/om8eNLCqGHv0NdfzafFCxcYjfEfjaNDB/4Wt9JGkQA/GtglrUjX612bUbFAf7ZsSrsG1dMFEodjDQSsd2lsnOVmyPM1ylOBfL5Uu2Ipxe+cJQYMeoP+3LOfXhvwOq1Y+g11ateG1q9bKyuQtFK1RTC16PrAbJRokH36KnFyH2+88QYTSMhW/eijj1g1ftQtQjo7+jwi+ywzMrWsUTqmtNlwFDl1X86AZpEEC1J+n2Tq6fdIduCmWMnKpJaDCkLo8qWL9OTJE3GmnjqVStPmL0dSgF9aE0E/X2/a9MVwqlelDJsDV+F2vlfrBrT4/QHiGg5HHciIlKt7BHE0fWgftuzu5krzxvRjWW9a+GTCJJYtWLlqVZo2aw4dOn6Kjpw8Q4dPnKZKlSuLW3E4uYcOHdIyRtESBPV9bt26RZcuXaI//viDlRNAxWgORy/sikkKD/IxGnrx5pB3aNjIUbKjqIY+YE1rVaLDyybSjtnvUrnixm7AssL855lj2ONwr539dip99e6r5OutHFDO4ciB+mI7546ld15qTVXLFKdKpYrSax2b0B/z32f1tySa165Evwnb9WhRNz170hq1q1Wm2tWrUKumzxuN1s0a09UrV8St7CMo1DN9cDjOTlBQEPt59epV9tPZQMVsqWo2GuAaDri/oqOixS3thz2fsC90NZDbl55FLy29L6yPibbfuu2MOGXg9msDBlLPXn0oNSWVkpOSjYYWM2qAX14qXTRQnMmDx+FeC8zPKwhzbAdWo4mDXqRdCz6kvV9/RDOG96EShcz991VKF6NF7w+gbz4cKK6xjOnJyHDoxd3A+PTB4Tg7jx49Yj+rVLG9LZAjCQ4OpuDHwXTjxg26fv260Xj86DGF6BCSIoH4HuwLPeTk9oXXoheomq30vrA+OES/fTkTdomk/HdjjIZe9O7RndVDat22Le3bu5uWLlmUPlBYUi1hEVF05uptu0aCWJ0ZBRGh1jFQDLNzo+psNKtRjilr6THT8Vz5EunbIkhXbhtp1CpXPH1b7zxusttgFPD1TN+ucslCsttIw887T/q2VYIKy26DkSBcdNvUqcS2a1+/quw2hkPatm29yqzmldw2GBVLFEzff0BeL9ltpFG+WGD6tgXzectug+Hp5pK+XZ0KJWW3kYa7S2r6tvUqBcluI43G1cumb5uSlGj2OJrpZjaLl60Ql4yBVbVmrVrizDYSk10oPsl8JKVkTq00DscWpD6QyGhzVqHEyTlozm5DvJGfVwq1d5dXw9uiixAyna1luVnKbmvfoSNNnvoFrf9+La377lsKtzETwjS7TS/gkru6YYY4I5q57jf6aqN5A1dkPyELSqLL2Ll07todcWaOYYHCCzfuUc+Pv6aoWOOKygX989HPM0dT6aJpGUxrfj1I45duZstyoNL4uk+HsGWkq/9v0hI6fP4/Njdk6tsv0xsvtGDLyNSq2OdDtqzE2e+mUiHhtQBUm/7g6w1s2RBY6BD7lUeMw3l7+mr69fA5tizHJwO70fCeadXOkVHYVfi8HocZZ2F5e+Zhz4k4M7D75EUaMGUZW5ajQskitH/xx+KMaPS871krGlPQkubTwT3EGVHN18YLIlvZLN7iucpWrZSWeBIexYpQWstuu3z9FjObm+Lj7U1Dh7xFe3fvEtekoVd2m5rMNsCz2zhasTe7DenmixcvZk1xkQG9Z88eWrNmDetB5kjUZrehmWtAkwAqHFZYXJtBcEAwRUZF0oPdD3TJbkOLpoLNCiruKzommu79dU+X7LYiRYqQ//P+ivuKiIygh3se8uw2iJ+IOFfaElVEdqgRSNaYMWceyxpCnST0rvpx89b0Ub0GqoI7Fx++1oUWvPsaPVexFPnn9WEuFVxwl6h0qchRo1xJ+m3ue/RC0+dYzAsaqqJa+G9z3ksXSFpBNfHvJ7/DSiGgySpea6Pq5Wn1hDfTBZIt9OvQmAmxxjUqMLcT4r3QjuPHqUPTBZJWkAm2c+779L/2z7NlCDL01UN8mSSQbGHe6H5MEFYrW5z1VkPW2ZxR/zMSSGr4++wVWvv7YZsHBJIa0N6l54vdqG7NaumjaaP69O+/FygywvYquRBBlgaH46wg/uXtt9+m5cuXMwsvLrzr1q1jQolbljh6Y3OdJHuxZEmqULGiYv+4G9evq25QmlmWJLVosSSpRYslSS1aLUlq0WJJUotWS5JarFmS9MKaJemFbt3pk0mTafdff9LWzZtYMdXBb71Nf/y+k76c+plZ/0PeloTj7OjZlgRWkN69e1O/fv1Yo1aERaDb/MGDB8Ut9INbkrglyWn479o1lrkjN2zt4O5oYuMTWE+4uT/8ztxPqLSsBycu3aSFm/6iJVv30Pnr6vvWWQItMtBDbN6PfzDRkphkudGwGuDK+/3oefacEG5wl+nBpVsP6Jtte1kB0KMXrotr7SMiOpZ+3HWM/a227D1J0bHOG7CMrv/tW7Wg27dv0Zj3xlJQqVL0at/eNHXyJDOBxOHkNnBxX7FiBXXr1o127txJefLkocmTJ5OHh4e4BYdjH04pkj6eMEnWktTtxR5O6W5Dy4kWQ79kTXPnCBdexOc0fmsq7Tl1SdxCOxAusLz0GPcVTV/7K32+5mfq9O5sGrdoo03tLSS27jvJXhuarc5ev5Pto92omXT7kfb6UxIPnjyjjmNm0+AvV7LnhGWryduf0w9/HRW3sI1PV2xjr23q6u2sQnrPTxbS658vt6ttzMFzV9n7H7vgB/a3GjVvHTV75ws6a8HCl9VER0exQpIDX+tHUz6dSLdvyVtgQUJ8HMXFxgojxuEjVrhLDQiwPS6Lw9ELuOAmTpzIMrBQlb60HT0+LYEiln5+jndHI0kECUGZQd++fdNrTzkSdKyAmM1uGCmRiGdP2Uk2M0Z0pHKPl96v9CUXGZFUt1595opzJmBBGjh1GRMKhkTGxDEBci84TFyjjWnf7ZB1TaFJ6tKf9oozbfx78z69+9UPZiLjv3uP6Y0vVlKySRsYNaAkw1vTVtHl28b9yxISk+jDRRvo9JXb4hptwBq14uf94iwDNCf+bOVP4kwbsKChW/+zKONAaKx/fepy9jfL7kRHRVJUxDNKa1btuIEG1U+fhFCRoiXEPXM4WQtcbffupVnbHSVkKlSoQPPmzXOopQrvA61LIJJQ58iR1cOHDx/ORBIql1eqVElcqz/o6wZ3ZS07M3INgdUQFdatDWxnD0ZKJCzkMTPh5/H0cuiIFVR/+FPl1gf4csDXaggCueFzzix1rRa4mEwFkgQElC3WlKTkFFr7+yFxZs6qHba1ZoGLDW4xOSByjshkvVkDIkjJCgOL1+pfD4gzbVh6j3CVWeqVpsTG3ccVhVDIs0j65eAZcZa9iQx/Rk8eKzfdtZeUlGR6dO8uiyvkcJwFZL2VK1eOiQpHFprEPipXriwcB9pvKq0BgRRpYEBAPTRYyRxBsWLFqFevXmyZJUo1b86usXqDv8f//vc/qlGjhrhGH/Cay5QpY3VgO3twExTeZHGZfL08KToygjy9vQWlbJ/6UiI8LJTCnlguOpWYlEiz5y0gd3d3unnjBtWpV59mzplHvnl9adGC+eyLpBZX4QNyc9V5CJ95/rw+LAj7z2P/0N1HT+S3E0ZcfCJznWHbQ/9coZjYONntMPL5eDHBdfDcFTokDLltMGLi4llrFcQoHb94nW7cfyy7HYane1rgH/b/26EzFBkdI7sdBl7nE0EsnL12mw5b2D+Gfz4fFi/017HzdO3OQ9ltMBDvg6w67P/I+WsUFh4pux2Gj2ceehYZw7b9+cAp9jnLbSccdcwd+9/dx3Tq0g26eOOe7HYYHm6u5JXHgz3n70fPUXBYuOx2GPEJiRQlvF5se/DsZXYSlNtOz4F2OPYdwvLAWpuclEQ+ebUF11sjVfhMHt+/ly6Qnm/amho2qMOWORw1rF692uab3fLly9PHH3/MAprxHMhugzjCBXjSpEnscbQn+fVX5QbmttK+fXtmSQL79u1jrVBgpTC8CCcEJrDX4x3kTb6xaW2wDIn2jk4TQjcjydOkwr2pQJKA4QLnIlOLCPbl4+NDPqV8FPcFt13EDeGabrIvCK+KFStSly5dxDVE58+fp+3bt7NzK669hmBfefPmJa+SXor7ik+Ip6ibUUb7gkCCVQwNhyEuAepcoSClveA1IsvRGsiCtCd+0yi7DanmAH/0IiWCyNvH/MOwBzUCSaJEiZL09tBh1LJVa7on3LWuXrmc9uza5VDTI4eT08iX358KFlHfyscSEEiP7t9l8UgSoz+cQiOGZdQC43CsYU92G1L8LfVmO3nyJI0cOdIh1he4ixCTBNA37vfff2diDa49KYbW1uw2WIystRCBSMqXL+N3bMluw/UTddcgMFu2bEkLFy5k68H3339PM2akZW1DfCGGSMKW7DYIO4g+JFvNnTuXZbaBsWPH6pLdhs9cjXXqwoULdln9zAN/BPBBPhZOhgjM1AstAgmg4vanEz6hVs0a02t9+9Bu4UPlAonD0YZerjc5gcThZDZwow0cOJBZo2AxgiiCVWft2rX0zjvv0ODBgx3mnpIDFgpYSmCxwYAgsHZBxnUM20m/A8Gi5jVLlibDfVnL9jbdF/ajxooHISV1GZD2Zc0aY7ovSSA5CnzOKCBqbdgjkICsJUlCL4tS+NMwFu/E4XCyBj//AhRYuKg404hw8nt477YgkMxjkLgliaMVPeskZSaGliQgZ/k543qGBY/v+G+HosWlQEABeqXWK1QnxT43NfaFPnY/Xf5JcV9++f2oX51+svuC+8wUpVCW0y6n6fbt2/Tz1Z8V9xVYMJDtq25qXXFtBoauQr0sSZmFrCVJQrIoxdvoPwaR4eFcIHE4WYxdMYbCzZK7g2IUOZzsCkSG6YCbylo2FdxE2E7u97UMPAeyxizh6qK8Lznw2uUGsvksFbYEMKpgO7nfz85YFEnA08ubPOx4k96+PsIJlhf24nCyisBCRcivQIA4s41CRYtTXr/84ozD4XByBxbdbaiHAnebFJRmK0lJifTw7m1KSsz8LuocTm5GD4FkSMijBxRl0DOOu9s4Wsmu7jYEMptmfZkSVTmKBTgXal5I0S0VLhw/d/+8S3mvyFtz1IJ9IWW/aKuiivuKio6iWztvKe4L1iEMxBshBkmJmKoxrGRAkZZFFPeFv+mt32+RzyUfca08iFeyN04oM1FUP3oJJODu7kHFSpZmPzkcTuagt0AC3KLEya1ARCAY2dJAwDMy1SyRmpKWYSb3+1qGqn2lWt4XhE1oaCj7iedSGohVshq4LfzDdnK/bziyk0ACspYkPQWSIbAkMYtSErcocTiOxBECyRDJosQtSRyt3Llzx666Nc7MBc8L9PjxY9r7cK+ixSWfXz7qWq4r1Yi3r7gi9vXkyRPadW+X4r5QW7BbhW667AtB4vse7VPcF4LEu5TtYve+nA0zkeQogSTBhRKHo56Jk6ewZram9O33Gp04fpSu/2deJV2LQIqoGCEuZeB3zXpLB9yhorTA4HfGcpHE4YicEv7dunWLtl7cqigmkAU2sOFAqif8swfs6/79+7Th3AbFffn7+9MbTd7QZV83b96kbZe2Ke6rYKGCNKDBALv35WwYKSFHCySAIO5iQZZdbw0bPU+jxrxnNgYMesNqND+Hk5PoP/B1+mXnH2bjg48+plKly4hbZQBXGFr/xMXEWBxPgoLZSIiLMxvSY3K/J4342Fi2rzt3bop75nA4nJyHkRoKLFSYkhITzJrR6j3Q+6lAwULiXs2Zv3ARxQnbxcREG42uL3RjFbg5nNwCvveTxn9CI4YOSR+jhg2lW8JdnVzdIqT6e/n4WBwJtZMoj5cXJVZKZuPM4OD0Ia3D49hO7velgfppaKjL4XA4ORUjkZTHy9usGa2jhqWyAl7e3rRy+TJasWyp0bj477/Cidly5DyHk5NYtHABLVq6nDp3eUEQTDFUpWo1WrhkKT0JCaZTJ0+IW6lHcq9Fl4qmC81D6UJtQeRECMeiONg6YeBxIOeO43A4nNyC4/xqHA7HbpZ/s4R69+hORYsVox82bqGXe/aiKZ9OpCFvvqFYHVcJU4HEhJEpBmKJCyUOh5PbsVkkNQoJkR16AFfCxi3baPNPPxuNjp060907d8StOJzcAfoYTp44ntq1as7E0fFjR8VHtKMkkEqVNmk9JAolDofDyc3YJJKahgVTQN5k2fH8E/uFUt9eL9EH771LH459z2i8+EJnOn3qpLgVh8NRi5E1yEAgQRxJAslwWeLYq/ymhMPh5F40iyRYi/y8U6ib92PZ4SJuYw9wI9y4/p/ZCAkOFrfgcHIHX0yfSfUbNGDLqPjr4+ubPtysVP+VQ411KF0oiWLqWLdH3OXG4XByJXbFJIUH+RgNPcEF4KWevWjBoiX0wbiPqXjxEuIjHE7uoWu3bnTh/Hm2vHHrT7R7/0H6c/c+OnbqLLVo2YqttxVTq5EhZhYlQShxOBxObsMpA7cbN2lKf+zaS+06dKQtmzZSVFQUi0ma+OlnVnvncDg5CXTxjouLE2dEvXp0o2bPN6A/f98prtFGjQOB4hLRndtpgdkcDofDkccukZT/bozR0IvPp82gjz54j4YPeYv279tLSxYtpPatW1LV6tWpWfMW4lYcTu6gSbPmbPj65qWUZB36Hvmpy4orWtlNXBII86K/XufxSRwOJ3dhk0hKSHShp9HusiO9x4kdFAgIoFXffU//XLySPo6cOEV169aj/P7+4lYcTs5n9qwZrOo2q7z983Z69OghW3/wwN9088Z1tqwGqdWI7x1jN5o1a1KpAgXEpTS4UOJwOLkJzSLpWKFCFBXvSj/HFJYdqYJKwjb2cOH8P/Rc9SpUq1plozFvzmx6okP2HIeTXfhu9Soa+tZgNubNnsl6poFtWzazUhm2wFxuBtYkOaGU4JXh4qtYyLhXExdKHA4nt2CTJQkiyNKwlwH9+lJKirlbYemSRXTowAFxxuFwtGBoTUoXSqJYkoQSxJEkkPLEebGfoGJl46a3XChxOJzcgIufn1+6h6xRo0bikuOJj4ulB3duibOcQ61Klah1w+fFmXr+/e8a7Tp6RJxxOLZRILAQ+QcWFGfyGKbzm9ZBKlrM20gcecYYu+euXTEuBTDscGda9PU8ccbh5G7QLf/WrVu09eJWxW75gQUDaWDDgbp05r9//z5tOLdBcV/+/v70RpM3dNnXzZs3adulbYr7KlioIA1oMMDufTkbTpndNmzESJo2c7Y4I9avbfqsObTn70NUokRJca1zUi6oFPXu2EnzqFejpvgMHI7txMXGCDcg5k2lDYfXhTyUmJjARt01RdPqIYnj0ZVk9jwQR6YCCZhalBY3sS3LjsPhcLIDRiIp4tlTSkwQTp6ZMCLDn4l7NWfQ4LdYfypQpmxZ2rztZ4qPj6ejRw5T/YYN2XpOziI5lSgqNt4hIzFFj3SC7EFsTDSFPw0ljzyeso2lpRF4q2D6aPSLIJQkwrzozpk0ocThcDi5HSORFBrymN1pokO/I0dkxDOLIgmFJBMSE6ld+w60fuMWWr50CX064RMmlDjK+BcIoAaNm6WPIsVLUqKgPpRG7XoN0rfFclbi5pGH4hOT6FFwiK4jMjpGeG5PcS+5g+jICAp59CA9yNsaiFVqP7cSE0gSpm41Q0ytSS7rq4hLHA6Hk7MwdrcJJ9Vg4eSKk6yjCHsSTOFhllsjJCTE04cffUIffjKeBvXvRz9t3cLaMJQuU4bCnymLq9yOX35/qle/fvooXLQYs6IojZq1aqdvi+WsxEX45+fnR+XKlaMKFSroNgoWLMha5eQ2tAolrXChxOFwcgPmMUkOFEpqBBKY8ukklt3Ws/sLdOXyZbauVKnS9M/Zs3TgwN9snpU0r5ZC3RvKj0pFn1Fo6H+aR6D3I9nnw+ha3/ndRaXLlqOq1WvYNFxcM76GvoIYzps3LxuGy7aO3IxWodR+TSlxKQ1L1iTAhRKHw8npGGW3FS5gcNJzcaHCRYuTbz7jE6GtqBVI2YFDY92pYFxGJ3VHk+yWStUWxIozZUqVKUddunUXZ8LrPHSIjh07Js7Mefvtt9OFBFq/rFu9gi3bQo9efahoseLiTBvLFy+kFBd3SkhKYtYkNzc3io6OZo2OPTw8mFhyEb6PtvD06VNyF57PJVldlemcCI7hQsKxrPYzNE3vNxVDppiKqdR+aTc2HE5ug2e35absNh0tSjlJIHEcD6yIEEggMTGRkpN5ILE9pFmUHnKLEofD4WhEWSQBUSghrdhWwp+GcYHE0QQsHrAmAVdXV97U2E7weSKmT4s1TqtQ4nA4nJyIZZEk4OPjS17ePuJMO3n9/CiPZ+7KLuLYBy7mcLvly5eP/eTYDj7LgkWKCcdhfnGNerQIJW5N4nA4ORGLIsnHNy8VKREkzmzDzc2dipYsxVL/ORwtwIJkav1YuHAhde7cmby8MtLVOfLYI5BsgQslDoeT01AUSXoIJAkIpWJBpblQcjAhjx/Rju3b0seNa1fI081Fcez+8/f0bXf/+Yf4LM7NpEmTqFWrVvTNN9+w5bp162pyI+UW9BJIPD6Jw+HkZmRFkp4CSSJNKJXhQsmBxMbG0L07t9MHAnbdXF0Ux8P799K3fXj/rvgszg2y1ZBlMXnyZFq1ahV169aNlixZIj7KAXpbkLhQ4nA4uRWzEgCOEEiGIFPp4d1brDVJdsVZSwBkJY2aNKUCAYHiTBt//raDUl09jEoAWGLo0KHMFVe5cmUKCQmhn376ic6dOyc+aoxhCYBmLVuzukxaQVbYiiVfi7PMBVXnd/31pzjLoF79BnRLEIuhoU/ENWk40sVmT2kAXhaAkxvgJQByXgkAI5FUpmRxhwokCWtCafLUL2jRgvnsAmgIGt/+vX8fXTh/XlyTNWyeHkflComTTCAhMZWef8dbnOVMXNw9VYmkOXPmsMf//PNP2rNnD8XFxYmPyGMoklq0bkPVatQSH1EPShIsW7RAnGUuF678R+u++1acZdC6TRua/uUXtHf3LnFNGvny+wsCyV+c6c+BocbHpCWhZGpx4kKJk9PhIimH10kKKFSYtQRx9EhOTqICgcoq479rV+mbFavJ2ztDGPzv1f7UvmNnun79urgm6wgOiKaY6k8zbURWDhf3zJk5cyaNGTOGfvvtN6sCKScAgXZbOOneuP6f0cB7TxUeM8Xd3YO8hOPGUcPU9WYJ7nbjcDjZHSORxDqHZ9Jw9/AQ92oO7pxPnzpBs+cvYHVymrdoSW+/M5TeHvw6xcbYXrOJk/354osvaMWKFeljzZo1tHTpUvHRnMf+vXuoU+fOdPnSRdr44w+0Z9dfVLFSJcqf35/OnTsrbpV18PgkDoeTk7FYAiCryJMnDy2YN5d8fXxp5px5NEMY740eyVpVcHI3b775Jr311ls0b948unz5Mt27d49+/PFH8dGcx5hRI2jrls00e95XtPOvPfTL739RTHQMvfhCZ3oaFiZuZRsRFSMUhyV4IDeHw8kt2CSSGoWEKA49WLZyDbsgVKhYkZ5v3IRSkpNp4eJv6M/d+6j2c3XErTi5leXLl1OHDh2YFWnChAm0d+9e8ZGcR3JSEm3ftpU6tm1Nb74+gFo0bkjz5syi8GfPxC1sA0LI1zOF8nsnmw1P91QulDgcDkdAs0iCEPJwS6WifomyQw+h9Hr/ftTs+Qay49zZM+JWnNwKrEhofIvYpI4dO5JnLqjojgy7+/fvsV52elGq0ROq3eax2ShYR52Fyl6hxOFwOM6OTZakfN4p1NEzRHa4uqQJKU7uAkJFLtBXzdBSDHLQoEHUsGFDlvl4584devXVV1lsUk5l7lcLadV368zGym/XUvkKFcSt7CMo1DN9aGXY4c7iUhrWhJIh3JrE4XCcHbtiksKDfIyGo3n3/Q+pddt24ozjTHTu9iK9/uYQmwaC89Vy5cqV9HHhwgVWeRtlAXIqbdu1Z/F5KJdx6uQJtoxx5NBBSklR19Xf0WhJ7eduNw6Hk52wSyRlNqihg8FRR91q1enzUWNkx6Shw8WtsheHDx82GsePH3eKshCOIjklhc6eOU2hoaF0++ZNtoyxYtlSunlDn/d9NzA+fegBj0/icDg5BbtEUv67MUaD41wULViQWjVoKDua16svbpW9mD17triUBmppjR8/XpxxtBAZ70ah0e5mIyZB+2nB1JrEhRKHw8kJ2CSSEhJdKDjCQ3bo4QB4rk5d5lYzHSWDHF8NnOPc1KtXz6hOEoK4S5YsKT6a83j29CmdPn+ROnXpSmHCsl74XfOje8cC6d99hc3G03MF2ONa4UKJw+HkNDSLpGOFClFUvCvtjC8kO1IFlYRt7KFj5y704ksvmw3USUKGD0ee1rVS6Nx7edLHtEZnyO/S+7KjyPVPjLbd9a7lfmnOwunTp2nIkCFGY+DAgeKjOY82LZpS3ZrV2Dh88IC4Vh8ghJSGrdgrlDgcDseZsMmSBBFkadjLjC8/pzEjhsmOk8ePi1txTPF0dyGvePeMEZNEnuHP5EdEuNG2+ZCWmA1AoDZ6/5kOjvOgVSgZwq1JHA7HmbArJslRKLnVChYsaNTPjZP7QNq/IajOHhAQIM44zgLPeONwODkBpxRJ237+ldzc3cVZBkNHjKJ2HTqKM05uBL3bDEFRyXHjxokzTmxMNCXExwkj3uED+ypStLi4Z8vw+CQOh5MdcfHz80uPta5SqQLl8/MXZ47lSfAjio6UP3EiULVhnVqUlJQkrklj8tQv6MzpU6xNQ1ayeFko1aqVIM4cT2ysC7VvXVScKdOidjJ9/ZptbrNHsSnUYZK5MM0sXNw9KUH4e6PEg5ubcnwUWpCYpvyjGOXgwYPFmTFPnz4ld+H5XJITqEXrNlStRi3xEfWgE/+yRQvEmfPj7eNLRUoEaSrSqZWkxER6eO82DX93Io0YNkhca46p2LEWg2QqprRYpDicrOaU8O/WrVu09eJWKhxWWFybQXBAMAUWDKSBDQdSPeGfPWBf9+/fpw3nNijuy9/fn95o8oYu+7p58yZtu7RNcV8FCxWkAQ0G2L0vZ8PIkvT0SQhFCcLFVbioOHKEPQlWFEjg6pXL9N77H6bXRMLJvkXLVtSqTRvhsStsHcec4PgUimj+2KZxp5R9vcAyi1OnTrEmt4ZDSSDlVmDheXz/Lmtl4ggkgYSf1uAZbxwOJztjJJJwUg0LES6az/RLNTblyeOHFBlu+YI87O23yNPLi37fvY++mD6TNv/0C40YPYbGjX2PLl38V9yKkxuZP3++uMSxhKOEkhaBJMEz3jgcTnbFLCZJEkrWhIwtqBFIICwslKZOnkTdO3dgac9TPp1Ir/R8iY4dPSJuwcmtREZGiktpoGdcsWLFxBnHEL2FEoTRo/t3NAkkCZ7xxuFwsiOygds4qYYGP9JVKNnyfE+ePKFfd/zCOv/rfUfMyZ5MnDhRXEoD8UvvvfeeOOOYopdQSk5KYgIJPeRshWe8cTic7IZidpueQunJ40cOdeFxcg/169en1atXp49FixZR3rx5xUc5ckAoBT+4Z7NQSk1JYS42ewSSHDw+icPhODuKIglIQiku1va+bM9CQwWhxQUSRx9OnjxJgwYNMhpDhw4VH+XIgcSHfP4FbM52c3F1pbz58osz++CB3BwOJzthUSQB33x+5OllewFHvwIFWBA2J2eD9PoevfrYNCyl/Jsyc+ZMcUk7cXFxFBkZoXlEmcRBZScgjAoXL0k+vvZZ2/wDC1KBQPur6QMulDgcTnbBokjK65efChYpZle9FVfhLrRoydJcKOVwAoSLaNFixW0aWggODhaXMmjXrp24ZJnjRw7T92tWaR7rv1stPkP2ggmkYvYLJImsFEocDoeTFSiKJD0EkgQXShy9GDFiBJUuXVqcpaFWJOUm0gRSCfLROV4rq4QStyZxOJysQFYk6SmQJLhQ4ujB6dOnWQzS0qVLqVevXpQvXz7xEY5EhkByzGejp1DSAhdKHA4nszETSY4QSBK2CCX8DocjcfjwYfroo4/o/fffZ4kFs2fPpuLFtbnsshOFCsmLEf8CBchdpr+howWShF5CiccncXIqaNVhOhxFTt2XM2CkQBwpkCQgeoqUKCUIJcvB4FWqVKUFi5bQibPn6bc/d1OvPq/IXhQ4uRMUldyyZQsNGTKERo4cKa7NefyxZz9ryWM6vlq4iJo2ay5ulUG+/AXIzd2D4uPiHD68ffPSjev2twniQomTk7iR5waF5Q8TZ8ZgfbCvfqLiusd1i/sKyRsizuznhmfmvS9nwkgkFRDuDpOTEikpMcGhIzUlmd2JKjF0+EhasnwlHfh7Pz1f7zl6b/RIat22Hf382x/sDprDMSQ8PFxcynn4+vpSn77/Mxtly5dnfRBNQaYgLLWZNeLj48U92wcXSpycwCXhH4jIG8GEw3r/vekDc6wH0nb2YLov+mG90TDcFxrU2oPZ+xKeXxp6vy9nw0gkuXvkybRhKe379cGD6fMpn9LNG9ep9nPPUd68vrR6xTJ68iSEmjRtJm7F4eR8bt28Qf9euEAfvDeGRgwdQiOHvUNbNm8iVxdXdnzkJHjGGyc7IwmRex736HD0Tfo9UhAMEXnSB+ZY/9Q7rW6gPcIlfV/u96jM7MNUZfTvVFjYneHAeuzrpvDPHqR93fe4T4eF5/xd2BfTQuLAHOvDvNKsTPYKMmfDxc/PL70Mb6NGjcQlxxMfF0sP7twSZ8acPn+RTp86ySr9GlKxcmWaN3sWbd+2VVyTNXTvEUNFiiaLM2MK+ZWnUgXriTP1PIm8SbdDTogzY5ISXWj1SutZSlWqJNKKNU/EmTYuX/agN19Xtu5Zo1jxEuTlZVtQ/u1bNynV1YMSkpJI+D5qqptkjadPn5K78HwuyfpWi84sSpQoSWPGvk/PN25Cv+/8lerWa0DJyUk0a/o0OnH8mLhVBogTsmSlNSSiorII8btmbKlRomKl6rTo63niTB9MrUKmViNDTIWUqdDicDIDSRj8JvybdHhJmjCywJROg6mL8A/UE/5pwXBfl/tPYoLIEgEnp+iyr0nCvqwZiqbYsS9nxSaR1ChE2c95TCHQ1BRLImnI0OG07JvFZm0U2rRrT3du36L/rl0T1zgfPdq2o/dff0OcqeeX/ftoxopl4sw2/PxSqGGjDPdH2WLV6flqncSZMUkpibRp7wJxJhzTEa50/JinOMt8XNw9KTE5mQIDA3WNiQsLCyM8W3YVSRIlg4KocZOmdP2//+jM6VOKLUbUiiQIpPw+yeTpbv480fGubKgRSlktkgAXSpysRhIT9Q93MxJIpUr7ikskXLuixSUBvwRa22QmVRX+2SNcwuoLwsWAev7+7OepZxntxIKrEnVeu9aufdXvX99IINWrl/E8p06lbcMQ9rXWxn05K5pTxyCQcGINCkiQHZYElFqWLlkkexHYs+svpxZIWQ2Ezq6/vNPH/VtBVLlEM9lRrnATo22zUiBJFC5cmHx8fMjb21u3UbRoUdnYnezGvbt3adOGH9MsrAoCSSvF64dSlebBZsO/Vta2EeLxSZzsiGk8jqFAAkZzAyElCREtYF+wIklAHEkCCRguG1qabN2XIYYCCRjN7dyXM2JTfr2vVwq1cXsiO1yF23Z7hVL1GjWpSbPmsqOQcCHl5DzcXVMpITaGIp891XXEREaQp5tNX3OnBZY2BG8XCAgQ19hHUKhn+nAWuFDi5EQMhVL/wx+KS47BUCjt7N9fXFKPkcgx1klmGAql/jbsy5mx6+oRHuRjNPTipZd7Ur9XX0sfr77Wn2bPnU/frlvPA7c1sP/4cXrl/Xdlx+uffCRu5Rygw3xUxDOHjLhYAzN3DgElMZ6rU1ec5Uy4UOJkB4zEhJVYJE72wylvsT+fMpll8iD1f8+uXRRUqhQ9fvyYxo4ZRb/t+EXcyjmJjomh+8GPNY/wCMsXAFuIjoul+8LnJjuEfXKcn7EfjqOpX06jKV98yWqHAbjb7t65w5b14G5gfPpwNrhQ4jg7RrE3ftk79tEQo/eVdurJldglkvLfjTEaehEYWJBGjB5De/4+RK3btqXPJk2kl7t3pZ9/2kaJiYniVs7JX0cO0ytj39U8vtn4o/gMHE4Gp0+dopMnTtCN6zdo6arVVLRYMfER+3ka7U6Pwj3MRlS8c8VwaRVKHI7Tk4PElBE5UEzZJJLiEl3o4TMP2aFHSOnOv3bTyNHv0vnz/9DjR4+oc5euNH7ipzRh0mQqZdLclMPJyezdvYuVvFizagUtXriANmzZRt9+/wOLz7MHZK49OhVAVw8WMhvh//irLgHgjHBrEicrQEaXJkTXnC1ZYNK+kLlmDcNt7NmXasT4pZyS3aZ7CQCgpgyApRIAL/XsRR4eHuLMmL/+/IOehsmXRudwcjqVKlcmH5+04E8UkzStNq6lTpIeOKIEgBKmYsdUDJlianEytUhxOHqC2KT6v/dMtxKVUugOceepmD0qiKSTnbbYJCawr3X166cLoM4PM4K0DdlZLK0UADLcXjt50uZ91Rf2xbSS8Dym2W0Sp2LE2Cxhm5M27ssZccpikhwOxzZyskgCXChxnBmX38ukLQhCqWgx+f6kjx7GpluRUjvZfg18t35aPTkIpSr55BtaX46MTC8BMO+k7X4eF3FfEEpVq8pbli5dEnYk7ivVjn05G04ZuP3iSy8bFRQcNeY9evf9D6l5i5biGg6HkxvhgdwcpyZM7DqgkOWWJ054XHpM2tZGSoqGG6WK22WvuqU/Jm1rM9LvK+zL57ZPxmP27svJcEqR9OmUz40KAL759hB69vQpfTxhElWtVl1cm9W4UoE6L1G/vs2oWJZ8inL7dyHvYlWpZo3SlM+e1+TiS2XbvEqvDhpMfZqXouxfijH3EBMdRQnx8aykgqNHbEw0FS9RStxz5sGFEsepEcUPBJHpYOBxOwWShCR+IIhMB8DjdgskCfF5IIhMBwOP67UvJ8LoUvos7AlLL3b4SEmh8LBQca/mxMbEUKmgjJPv7l1/0eqVy+nY0SMsJsNZSEmMp7i4RDLuMJd5mO8fIqmaIJKCyHqnNyVcyKt0Q6pTJJXi5NvTcZwYuLFDgx+Rm7sbeeTJ47ABQh49oPz55WMhHA0XShynRhBBnjG+skNvIIKqnnOXHboj7OvUslOU72o+s9GqVStxI+H40rG1VFZjJJKePgmhiKdh7A06aoCQxw8pOiqSLcsx7fMptPaHDdS0eVoGz7ujRrCf7sKJPznZWa7cgtC78Btt/ekYPbaoklyF1+0IU5Pa/WvDxbMkPdegBD09c4YeJuYcv3JuIi42hh7fv0cpKY45VmBFenjvNiUnJYlrsgYulDiczAHGjdyKUeB24QJpJ5GAgoUpf0AgW9YTfNC4+4yOtHwy+3979wHeVNWHAfztpoOWbgotUMpeskHZsgQXWxFFUVBExIUgQ9yK+iEqKCIoOFFARBHZQ/beG0oplA5oSxcddH05pydtxk2acZNm/H/Pc/Sem9CmaZr75kymZatW+PCT/8HN1Q0FBQWKgAVUr+6PoYMe5F1vlucCz6AGaNG6GeqEB8LbvQR3bt9CysXDOHgqEQWlrLvrYQxofBPblu9CEg8qrgjtMAx9o69jz57biGzdGLUCfXHnwr/4e3+yaPGp7Ou6IbL74+jufxT//HsCWcoA5OKLRv0fQbvC/7BiSyyKeHeb6vd3RVinEejTzE8t+ZZkn8TmVfuR5lcPLTu0RrTie/p4AEUFOci6eRFHdh5Hyh3lS8ADNTsPQvfAs1i/KRPNh/dFVMJm/LHzKorZ447uhYe7B+LCP3/ieJpKMnPxRkyfEehU7TjWrj2GTMVj8andEm3uUvz8wb5wL8lDZvJlnDl8FFcylOtcGfpz6lLZ88juY8jjUP7OErBjWzpqt2+FuiE+KL2djNhDu3DsWgFqNOqE9i2iEeTrgnzFc3Z0937Elz9g2+VVzRs1I6PgqvgbkotmQHppyruYOGEMP64qqmGHBnKTqmTIa1H1NWjO62+OaHRgeoZIT9bYnpoqjoDXzAw6ykYORrXVSNX27dvFkeMEK8kmjvTUG3q7w0xhTEBiTp44gYcG9MczTz6Bl1+cgJcmTkD/3j2tFJAA99A26D2wGxpUz8SlQ9uxY/tOHDunCDp+vvCspCXRxas+2rUPRvrxLVj/15/YeS6jfP0oc76ufiWK77cOuxR/gCX5l7Hvr5X4e9VK/LPhBNIRjGa9eqGxXzrO792MLRs3Ye/B00jKd4eXyvXTPawN2je4gzP7z1SElnKluJNwCdcLAlAvJlTthePiE43omq5IjY1V/DtFeKl9N/r0aYfw4ngc27kFO/efQ7Z/U9wzoCdi/ORpVav8eTTycXhGoW3XhsDVI9i3ax9ibwehafeeaNu2F7rElOLasV3Yq/j3OQFNcXfX5vCX58ewKNb1lpxwTbYWJVtpQdKHWpMIIXLS+VYvZ1BiASnViICkxP5dUlIi4q9c4aXIWm/OLn6IadcKQXnnsHPdfzh18QquX4tD7JmD2LP3IrIraUQodb2Dq/t34My1VGRl3UJaZn5ZSDLz61amKD8bOWwgUekd3M7IQFamomTnocgjGCEBpUg+uQ9n4q4hOSkBV2PP4NjuQ7iaJ+KbWwiadVZcMM7tw7l0HQ+k8Dpir+TCt14DhJd3d7uienQMQkuTEBefo/jZ/dGgdSP4ZZ7Eji37cfHKVSRcOobdmw/ghlsUWjYPN38guCHPo7GPQ1FJObABB05fwtW4czi68wiSXcLRKPo2Dm7ajbOxcYg/r/j6R5PgEloXET5mJVqrkSso2XJAom434oxUW4ZUW4xUqbYwqbY8EcPp/TwsR1BSBqQcIwNSlfKoiZqhrsiKu4Dk8q4ow7kUJiPphsT2KWZ+XZMVpiI1wwURrbvjroZRCPH30vjFu6JG87vR1CMWh0/c0NPFVYybly4h27seoiPEYp+uAagbE4riREW4yC2Fi0cYwoJckBl/GWkqX6gkJw5xKaXwCQ83b+YdY8DzaOzjcLmTjITkO+UtfqX5GchQBMg7SfG4Wf6rLEW+InzmwRu+3vbzhsOCEhujZGrzd0lxsc23IFFQIoRYQqWXKxaU8m6bvot61q00+wpICi6e1eCleGby8vLEGeOUFt2B1Jhnc7+uyUrScXrLRhxPdkdk23vRb8goDB/2ADo3q4lqimu9i19jtGvpj5RTZ5HhVg3e3t6K4gU39snDzRPVFHUP8UopSb+EK+leiIyJgpfiZtfgGNSrcQeJsVfLxgF5eMFTcd+CvPyyf6BUWoj8/CLFc6C4XZwylUHPo5GPo7T4DorUfmclKC1RxMKiwvLgxCmChiIK8jFy9sLF1RWBIaFqYwqMwZbjqBFkvQUqTUVBiRAiN3Hp082/RiC8fU2ftugfGAxvsY2CvSi9k48CxQXS20d6xVRTGfp1S9nV2cVVcSlW4eIBT+mdWgxScvs6zu5Zj7W//4SVf6zF/rhi1O7QFx3re8PVJwB+7t6IvGcIhj46qqyM6Il6ihTkGd0Tgx8ZivbKxZhKMnE5NgWukQ1Q28sNIdExqJ4fj8uJYsPGwgLcUTx8L2+NdUAUj79aNXfFc1AA5V7zpv6cBj2PRjwOR8YCUs3aUYqgK9YyMRF7HwgOqylqtouCEiFETnpDkhxvjOzTa7jiTdqughLvLiuGf71GqGneaGp1Bn3dUuTn5gHVgxDoUXEfV/+6iAys/LGwrhG4u8Nd511LcCc7BVeOnUZioQdqBPqhNOMc9m5ej60bVcrmw3wJgMLrh7F901acTVO2p5Qi98pFpCAC0TExqF/Pt6wuuqRKC2/gRnopAupGI1hl0I+LbzTqhbsgLyUZOYrwYtTP6erO1+YpX0nBgOfR8MfhuOQKSEoUlAghzkZnSJLzDdHuglJpDi4fOYE07yboel93tGxQD7WjolG/WQd0uaex6WNqDPq6JbgVfwVZHvXQtkd7NIyuh3pNO6FnzwbwzJfow1NTgtuZWSh0i0BM83qIqBmB8FB/ePo3R48H+qB9y6aIrhuFWnUaoNk97VDHIxcpSRkouZOBG9cTkKhWUpFbXIrSvDQkXU9Ehsr3Ls2Lx+WEEoS36Yx63lm4cvkGyocFl2Th0rELyAlohW69O6Ch4vtFxrRGlz4dEV58DSdOK+9r+M/pGnEPBj02Cl2iRQeZIc+jwY/DMckdkJQoKBFCnInk5d4Sb4TKoCT3m7alFN08hq3/7sLl24Fo0KkXevTsijaNw4GsTJgz5tqQr1uSegy7dp9Htn8TtO/WHW0b+CJ5/3+o5H2eK7x6BIcvZiOgeU/0um8gevdoisA7qUi+5YqQhq3RoXtf9OxxNxoHZOPCjvU4fF1igHllSgtwPTYeBe4ecL0ViyuqayahFHeu78XmTUdwwyMarRXfr9vdTRGQfQ571m1HrErzjTk/Z+XPo+GPw9FYKiAp2UtQIoQQc2ktJmnpN0A2wyY54SpfFViXsPBwNG/Rkm9fcvjQQdSPaYCg4GBkZmTg6JHDJs/SIfJx8W2GPsM6weXQH9h0OksRSYgtsHRAUpWVcQujRo/HixOfEWdsj2aLkGaLkSbNFifNFilC9FF9vel6ram+xsx9fdGCkpan1pJkjU+IhrQo/fLbCgweMhRDh4/A7gOHMeudd/Hw4CH4ZM5c3NO1q7gXqTqu8IuOQUhxMuKuZFNAsqBffl8BN3d3rTLljelo07aduFeFAMXfsKubO+7cuWPxUs3HF5cu2XaIoG43Qog51EJSYHAoH/hr6aKIl6gREiq+q7ZgRSJ+5aUX8eKE8Th75jSmT30dL0+cgJ07/kOInn9HLM0V3oERiIhug44tQlFw5TTicykiWVK79h1w8OgJrfL02HGoERgo7lXBxcUVnp6eVitWW+DVDBSUCCGmUgtJbD0UqxWVZjt9WHMdda/ZCBcvRHa8D/d2b47qGSex7/A1s8Znkcqlp6XhyVGPom3LZuWlV7d7cOHCeatt0eMIKCgRQkwhOXDblnw+5398SxJiA0rzcHHDEvzyw49Yvf4gEpVbmhCLmTFtKuYtWIh5X3+Dnvf2xiuTp2Ddpq3YtHEDjh87Ku5lmqyGWTqLI6KgRAgxltrA7U6dOokj/TrdvCmOtO0PNaw7jG2VkHhVOvywsRZsgLam6PoxuHUr3SKfoFu2aYeYBg1FTduOrVsUn+q1f+4aQUHo2bufqGm7fOkiThzV/lmYPvfdD7/q1UVNHRvz8e9fq0RNXZPmrdCkWTNR07Z31w6kJCWKWgW/6v6K7zlQ1LRdvRqPI/v3ipq6HoqfMVDxs+qy+o/lQIn2jLH6DRqhVZu2oqbt0IH9SIiPE7UKntWqYeCDg0RNW3JSEvbt+k/U1N3TvSfCwnWPrVv3958oKNBeSjKybjTad9T9N3Di6BHF7/OCqKlwdcWgoSNERdut9HT8t2WjqBnPw8ODj8nr0q07Lsdewq8//YS0NOm9mliXeY3gylfHZkEo2K8I1dy1f2c5BW7IzHOD/0XpgaeqGjZqjq/mzxU1+6AZdnQNsFXSDFPmDrYljkv1taXrdaX6ejL3tUQDty3P6JYkFpCqeZSgQViBZNEXoAwlFZCYuMuxFutiqK4IKzVr1tRZPHQsA+3p4SV5f2Wp7h8g7qktNCxM8t8oiy4+fr6S91cWTy+NVaYFNzd3yfsrS40aNcQ9tQUHB0v+G2XRpZqPj+T9lYVtgSKFbYkidX9l0RfYagQGSf4bZWGhRgp7LFL3Vxb2s+gidX9lYc+dOQoLC7Fy+e945cUXMO/zuToDkrHC2qYjpkuqVvFrkSHu4ZioRYkQYiiTutt8vErRpTRNsrgqgqa5QenJp5/B61OnYdQToxEQoDtkEOLofHx90ahxY14C9IRYc0SleZUXZ0FBiRBiCLPGJGVG+agVuSQlJiIhIQGNmzTBhq3bMefzL9H57nvgqqMFgBBHtXrNWrz7wUe8bNiyDfd06Yr2HTrwWW9sdhmRDwUlQogmo8cksVaiIL9iPOidohWMAq7l4qfUWihRfMXKxibpG5OkytvHBwMG3o9JL7+K4uJijB3zJO92k9ud4lIUsQeuQzV3F8kZeeyf5BfpXr2Z7Tfm6SYd7vIKS/SuMeSj3HpfQ2WP1UvxTd0kJg9W9ljdXF3gJfUPFfKLShX/Xvf39FY8Vql/Wah4rIV6Hqun4vu5s+ZHDawvO099W341+h9rCf9ZddH1WNlzyp5bXTwU39ND4nuyf8F+l7qw1w17/ZjiyMkzfEYbs2bdBqSnpyM3NxctW7bCzGlTsX3bVn6bkjFjkpp2v4HQ6tpT+GNveOH6wWCHHZOkytjxSQyNUSK60JgkGpOkhoUi1SI3Pz8/PDxoCEY98SQfl7H8t2VIlhiQTIizOHhgP3Yo3oRSUlL46trmSM1xx7VbnlqFDdp2FsZ2uzHUokSI8zDpXTbvjiv2ugVLFvYJ3tAZbrosWPQd/t24BVt37Ebbdu0w+4P30O/eHli44Cvk5eWJexHi+AoL7+C551/gJSgoGP7+/oiMjMTePbtw5vQpcS/jsVaim0eCELcnRKvknKphUCuSozAlKGmioESIY7LJJQDYzCUfHx9k3MrA7ds54qxlUXcbdbfZYncbG4vXtn17fnzp4kVsXL+OH+tiaHebXOy9u02VsV1v1O1GNFm7u41RdrlRd5tlmNSSxIKQriIHtq7M9YQEqwUkQmzVvr178PW8L3mpLCAR8xjbokTdbsTZqIYe1TCkSjU8qYYqe2VSSLI01rWwcvXfWL5qNSZPfQPffreE1xct+QEhOtIyIYSYi4ISsVeqLUZEPmohiaVEaxV9/UzPPj8Bb06fhlkzpmPg/Q/yLRjYJrc5OTm4p2s3cS9CiKacnCwU3inQ2lTaEiUv9zai6kSL7+w4KCgRQpTUxiQ1jIlGUEiYqFkOC0kp16/xN1kpbNpzhzatUFxUhN9WrlKEpWm4cP483nr3fRw7egR//Sm9XYc5gsJqIqCG9q7qSknX4pGfpz2Dz8vbB7Wi6oqatsyMdKTfSBE1dZHRDfiWE1LYcgdXYyW2wFAICA5FkJ5xJ8mJCcjLyRa1Cu4enoiKjhE1bTnZWbiZdF3U1NVSXAy9qkmv5M3EXVRcWFj41VA9IAgh4eGipu1GciJuZ2WKWgU3NzfUiWkkatpyb99WvIauipq68Np1+CKMusQrnld2kdfk6x+AsJq1RE1bakoKsjPTRU2FiwuiG+q+MBbk5yPxqvbWK5bi6emFCMVrkm0kbSl3CvKRlHAVL772FiZOGCPOOhYao0SMVZVjkhipcUlyjklinG1cklpICgv0R0BQsEWDUmUBiVENSXPnfYX/ffwRH6NkyZDE9vtqdVdrUdP258rlkvuhhYVHYMiIR0RN28kTJ7D7P/W1bJRGjh6jc0Vxtnfb9wu/FjV1bTvdjY569hhbu+ZvXLtyWdQqBNQIwsgnRouaNraz/NYN0uNehowYqfhZdYedb776UnLvtmatWqN7D+k/JGbLpo24eO6MqFVgW4Q8OfY5UdMWHx/P92CTMvDhIahTp46oaVuyeCEKJGZJNmzSDL376t6Hb8d/23HmxDFRU+HqivEvTBIVbTcU4WrV8mWiZh2WDErKgMSC5ktT3nXYkMRQUCLGoJBUxpFCktaYpMz0NKSn3hA1eRkSkJjDhw6iVFxw2X5VLCAxCdeu8gsOIUS/O3cKeOunVIuZOVQDkjOgrjdCnJvkwG1LBCVDAxIzbsyTKJFolfhu0bfYu2e3qBFC9JE7KDlbQFKioESI89LqblMlV9ebMQGpqoRH1NI7zic+LpaPg9HEtk2pV7+BqGm7pQicyYnS43zqN2wELx079rMxSRfOnhY1daHh4QgJ1d31dS3+Ch9fpInt9RXTSPcbdlZmBq5fkx7nEx3TENV07NjPnDt9UrJZlT2n7LnVhX0/9n01ubu78+4vXbIVP1+C4ueUElU3Gn7Vq4uaNta9V1SkvR2Hf0AN1I7S3U3HulvTJXbgZ83PTZq3FDVt+Xl5iIu9KGrWJ0fXm66A5Ojdbaqo641Uhrrbyjj0mCRN5gYlewhIhDi6at4+qBlZR+0NzlDFxUVIuBKnCEjawdKZQxJDQYmoopBUxqHHJGliXW95ZizqmKH45E0BiZCqw2YKBoWGmxSQGDc3d4SEmf7vHYUpFzTqeiPEvlUaktgWB96+fqJmvMCQUPiY8e8JIaZjAYktiaBv+QZD+Fb3R0h4BAUljaBU2fgkhoISIfZLb0hiAYntBWWu8NpRFJQIsTK5ApKSn38ABSUFCkqEOA+dIYmFIzkCkhIFJUKsR+6ApERBqQwFJUKcg2RIstRO4hSUCLE8SwUkJQpKZSgoEeL4tEKSpQKSEgUlQizH0gFJSRmUYOczV8xFQYmYSvO1Q2yT2hIAjRvEWDQgqWLLAuSaMWuOEGfw3oezERgovafgwgVf8W1vVLElO9j2M9bSomVbfPHF/0TNeWkGHc0gJEUzUNFF0/6pvg6kXgOqv3O5ft+0BIBlqbUkWSsgMdb8XoTYq1UrV2D5b8t4YXsW3t2lKz8OqFEDIaHa65e5urjCzd3daqXIyVbf1oValAhxTHpnt1WVRUt+wJb/dkmWvv36i3sR4viOHjnMN9a9ffs2Xpj0Et/4mNVpD0PbQ0GJOAN7bxkylk2GJLap7aPDBvPy5OMj8ceK3/mu8LdupePq1XhxL0IcX82ICMz9cj5mfzoH87/4HK6uLnx7GT8/P77diTmyGmbpLMQ0FJQIY0h3qyNQ7VZzVCaFpE43b+ot5srJyWEdn3h89FNYvuovNGrSFBOeG4dhgx7C+XPUb0+cx9cLF+PMmdO4v38fbN60ET8uXYLd+w/xfdgOHNgv7mU8FoRqBhQiOqRAqwT6FlFQMgMFJedEv7MKusYq2SOjQxILQd4eJejtlipZlPcxxwezP8HWHbsR06ABXp00EXP/9wlvRapbrx6fvUOIrfDw9ERUnbp8Q15LGPLQ/Vj0zQLezcZ89eUX6NCmFcaNeRLFEpv0GiPwrluI6pSmVXyaZYp7EFNRUCKkjL0vFWJSS5K3Vykig+5IFlcZno960dG4dPEiakdGYer0mfh83tflpVnz5uJehFQ9FlSGPfoYXp48FU8/+zyeGvsc+g24HzENG9pNoI9K8yovRD4UlIg1Sc1sI+Yza0xSZpSPWpHLqEeGY/CDAyWL5pRnQuTCZoz5+voa9cmnpKQEN1KS4eLqimDFm1RoWBjuatMWQ4Y/ilenTseYZ8djwAMPoW2HjoiMijI6OP3823KMHPWE2r9r2649flu5ire0EttGQYkQ+2aTA7c9PDzEkTrWpeHsq/wSy2FdWv0GPICXJk/FmHHjMXjYI7i3Tz8ecGIaNuIhiE0g0JSclCSOtIWEhKJFq7vQu29/jHziKUTUqiVuMcyb06ehT79++HPNWsXX6Iv/zf0Cn8yZi4ULvsbl2FhxL/NcCy4oL0R+FJQIsV9mhaSAa7lqRS6b/9sp+Yn79Temo/+AgaJGiLzycnOx+o/l2L5lE2oEBqJBo0Zo17ETDzhDhj/Cu9MmvjIZk6fN5EFq+KOPoXOXrnB1tdxnjbjLsXh+3DO4efMmvln0Pbp0646nnngM27ZsNnsqbkqWB+JSvbTKrVzLjK9yZhSUiCrN1wOxXSa9u98ucMUOBEuWEsX79v5Q8zbGrV5d8eYgWozYFGjlRYhNffbyonETxHJY8Dh25DB+WrIYN2/cEGfVsdZM9lqsVz8G3Xr0Quu27cQtBjCyJbRnr3uxdsNmpKeloWeXu/Hdt99g+R+rMX7CRL6Yo6n8L/oj/Vggru0P1iq5pwP47UReFJScmyG/b2J7jA5JLAAVFLog7qbiU6dEMTcgaZr7xXzUj4kRNUKsI/XmTfy89DscOXhAnJGJkY0/rOX0jddfw+uvvozr1xOw+NuFePiBAagdGYmoqChxL9OwIKSrEMugoETkpLolCbEMk1qSWBDSVeQyZOgwDBk2nA+E7XffAH5MA1WJNRUVFWHLpg344/dlyM29Lc6ax9gxddOmTMbhQwdFrQxr4Xpz+hu4EhcnzhB7QkHJ8aj+PjR/V8S+WW4whRl+/flHNG7cBM2aNcf2rVsQFBjEjy+cO4fLsZfEvQixDvaaW7poIR8fRIgcKCgRYh9c/P39yzsA2rdrZ7XZYwX5eUi+fk3UCLF97G+jbfuO6HFvb5PXQPpN8QHgmgW31nH39ERE7TpmjVcyVH5eLgYNGYXXXp0gzhBjaQYdQ1ohpAIVDQSuWoa0JKn+3uT6fal2t+laJ2l7atkiz8xrMu27ppoTdK2urbpliT3v96bWkpSRnsq3O7B0YU9wRnqa+K6E2Af2h3744H78vPR7ZGWZtiq1pT+EFN25g6SEeL7IJftelioFeXlISUyAVzXtJRGI4eRoUWKoVYkQy1ALSVkZt5B2I1nULKO0pIS3ILFPoYTYI7Z45PcLF+Do4UNan5Dir8Th8IH9SEpM5AtNqipUBBgWMCytqLBQ8Td2lf/fEtjGusmJ1/jfMjEfBSXHZ4lWJGIdWmOSWFBKTdG9OJ45KCARR1GoCCCbN6zDit9+QXZ2xRugj48Ptm7eyGfGffG/j3n32s7t2xB78QLy2K791unN5oGMBSVz93fTxP52UxR/wxSQ5CUVlCoLSxSUiDHk6mpzNpIDt7MzM2QPShSQiCOKj4vDkm+/wakTx3k9OCSUb3rLsNlxbPzRvj27sGrF71j41Ze4Fm+58UiaWFBSdr3JoSwgJaCkpFicIXKSamGgoGT7DBmPROyXztltcgYlCkjEkRUUFGDdP3/zIMRai2rWjBC3aNPsgrM0uYISBSTrMDUoaV6cKSgRRnXQNjGNzpDEyBGUKCARZ8G61L7/dgHfA86WsKCUkpSgODKtub2kuBg3EikgWYspQYmhoESI/PSGJIYFpTwzFtLLvJVOAYk4DTaoOSXZMmP6TMWWKwgNZxvrmjYgis1IDQmPsMqgc1KGgpJjkvq9Etumtk5SWKB2f2pwaDj8A4NEzTQ3kxORY+KUaWKYqDp14Ve9uqiVtWooWzR03RYUHIxwla6h5KRE3EpP58dsPzJ3dw9+XFRchGOHD/Hj2pFR8A8I4MfMlcuXkacIwQE1aqBW7UhxtmxV6NSbN1Dd3x+RUXXEWSAt9SZupKTwY82vxRZtLMjPFzUiBxaQIqLqlY+TMkduTg5uJCWozeh7acq7mDhhjKgRS9AMOoaMe5EKVHSBtozKxiSp/i7k/h1Utk6SJdZIYlQ/MDnVOkma5AhITGjNWvDzr7gYEvm1vKs1etzbp7x4+/iIW3TfVjuyjtr5iFoVIadVm3Zo36kzL23athdngSbNmqv9m+r+ZeGLhS3V83Xq1ePnQ0JC1c7Xja7Yh0/za/n5VQQ5Yj45AxLj4+eHsIhIalGyMs0LqyktSgy1KsmvsoBkLboWkiTm0xmS5ApIShSUCLEeuQOSEg9KijBNQcm6KCgRUjUkQ5LcAUmJghIhlmepgKTk40tBqSqYGpQ0wxIFJceg2tVGLEcrJFkqICkZEpRW/PkX3nz7XVEjhBjK0gFJiQWl0IjafOYbsR5TghJDQalqWHI8kjFoIUnTqQ3cbtKwAarXCBQ1C1L8wlJvJOO2ykrFqo6cPIN7u3dBxq1b4gxRVVRSimKNF31kZB34+vmJGhB3+VL5wG1dtwUGBiMsPFycBVKSk5GRUTZwO6ZBI7iLTVLZhfDixfP8OKJWbfirhNyrV+KQl5+HAP8aqFmLzaAqk3rzJtLSbqK6X3XUiowSZ9nA7VSkpt7gx5pf60rcZRQUlA3c9nB1gasdfFJq3KQJZr3znqhVOHniBP738Ud8QUm5RUTUQs97e2PH9m24fp1N7a9QIzgEATUs9yFHU5NmrTB/3lxRI9YiFXIMGRMjFaqq8uJtzwwZj2TJkGTM5rZyhyRnGritFpI6deokjiyvQHFhTbx6RdTUsZDEL9AaTyx7okePGonjx46KM87pTnEpD0qOzNPNBe6KoGTrfHx8Uadu2ey9morw0v++gfhx6Xd4aNAQXI6NxYrfl/Hb5NSocWPM+/obzP7wA2zbslmcLRMYHMqDkrU0bNQcX82nkFQVKChVLVsPSZaa2cY4U0iqdJ2kqtKtcwe0atZYrdzVvInTByRiW3Jzb+Pc2bO8sFCUkXELZ8+cwZLFi3BX69biXqYbP2Ei3pjxploZMmyEuJU4M6mLrlQA0iR1QafuN0Kk2WRIir10EZNeeU3USI3AILXi6eUlbnFcwYpPRnXq1lMryu4/e1A7MhJZWZVfsCpz+XIsXz9Ks2RnZ4t7mC6rYZbOQuwDC0qaYcnQoKQZligoGa6qW5FU0fR/yzKpu63TzZviSNr+0FBxpJu+7jaibvyLL4ujMhs3bsSpU6dEzTH1798fzZs3F7Uyv/zwPbJlCB5yqhcdjWeff4Efe3t7IzIqCpcuXORjld54/TVcOC//m2O79h3wxfyv8eaMaSZ3t7EgFBV0B75e2nvJpea4ITXbA/4XK++6oe4226EZcnRdvDVR95vxbCEkKbvbKhuPxFB3m+mMbkliAYm9sd7ndVOysOeushBlCDZLR5PUOUKqUsatDGzZuIGXf/5ajW/mz8Pmjevx0sQJFglIzPlzZ/Hay5Nw9MhhccY0fi0yENY2Xat4NbGtIEoMY0qLEiN1kadWJdtmT9P/7TkgMSZ1t3l5lCLcv1CyyPGrm/7mLLz/0ceixrqbArFw8ffYe/AI6sc0EGeJHFjwtKduLFvDxiBt2bxJq1y7Gi/uIb+cnBzs37dXttmfUWle5YXYN6mgZEhYoqBkOFvqajMETf83j1ljkjKjfNSKXNjA1LdmTufHLVu1wp9/r8WJE8ex7t+1vF5VWKAIC48oL9UDaiAgMAhBwSFaxb9GIB8/pHp/uJr2dLOp8aolJ8e88SisqXTw4MFYv3494uLiEB8fj0OHDmHWrFnwU1kqoColXL2Kk8eOqhVb211fHzamqnvPXqJmuldfn4KYBuofDNjv6KVXXkNUnYo98QhRkrooGxqUNC/6LBBQWLI/ql1tVUG1q83e2eTAbVdFmCgpKcEjIx/DN4u+x6wZ0/DVl1/wc1XJx9cXQ0Y8Ul7ad7obS3/6BTv37tcqC75djM5du6vd38ujbMNYY63/52+1wgKEOSZMmID3338fa9euxaOPPoqHH34Ys2fP5mPSfv/9d3iY+DjldPHCOeze+Z9asYfNb2MaNMT0N9/C4iU/IijI/PWKYi9dwg8/L+OtqwEBARgydDjWb97GNxRmmwjL4VpwQXkhjsHUoMRQqxIhFcwKSQHXctWKXPJyc/HJnLkY8ehjGDFkEHbu+I93uTVp2gw3ZRjv5MzYhXbSpEm8JWnevHnYs2cPb0VauXIlD0vFxcUYOnSouLc6NjCZ3S8sLEycAdq1a4fffvsNq1evxqBBg8RZ51EzIoJP02dl7pfzeTfx2TOnMXLEUKxe9Ye4l+n++nMVBvbrzbuZ9x0+hqkzZmDc00/h3bfeRL6ZoTH3dADSjgVqlcLz0l0IxL6woKQZligomcfeutqI+UwKSTn5rthYGCpZ2BqHhsxu04fNCjpz+hRGDh9SvqJwUFAw/v3nb+zbs5vXnUnbDh3VSrAZz2+bNm1w9OhRXLhwQZypwFaH/vnnn3H33XeLM+o6duzIW/luiBYM1uK0ePFiJCYm8lapjz76CC1btuS3matJs+bo2buvWqmmCGm2plTxgi8oKOAlP78Abu5uqFatGtxlmmQQHBzC10aKUYSkt9+cgXNnzvAg1rpNW3EP07CZa/FpXjh93Vur3MgybGYbsQ9SQYm63xxDVU//1zWzzZEYHZJYALpT5IKkDA/JYm5AYljL0eJvF6qNQWFrw/z0w9Iq73KrCh0736NWQkMrWnKMxS7gt/QM+M3MzISXjnWY6tevzwOWUocOHXjr0pQpU7Bo0SIsXboUffr0Ebeah21ZwoKSarGFbkBNKSnJWPLdIl6mTXkNr016EbVq18Yvy1fyllBzLV76I5KSEnlr0u/LfsVTT4zCN1/Nw5zPv0TDRo3EvUzDgpCuQhwLdb+Zz1ZakYyZ2WaJQduq0/+dgUktSSwI6SpycHN3xz1duyG8Zk1xpkx0dH2bGVhsry5evIgWLVrofKGzlqDY2FhRU8f+DWtJUmKtUsePHy/fnyw5Odnpfz/Xrl3FnE8+xujHHkVCwjVx1nRDHrof8z6fi7y8PF5n02k3bdyAPj274aJEayAhulgiKFGrku2p6kHbjsasMUmW8sW8r/D02HFY8edfqFuvHh+k+ta77+OHX5dpBSdiHBaAUlJSJMcPhYSEYPjw4XzckZSzZ8/ivvvu4wOS/f39+X137dolbi1raUpKShK1qsVW6O7e697yEhZe8brxDwhQu61hY/U3+m49K25r19G0/QwzMzKwZ9dOUTOdrjVGdK49osi+7DZrFVc72F+PVGBBSc7uN8YZgpIhrUjEMamFpMI7BYpyxyqlWM/u6KwVafzYp7Fu7VrMfOsdrNu4Bbdv52BAn958to+z2bppg1pJSrwubjHNsGHD8Oeff4pahVTFJxA2w40tCyBl//79PGSxLreTJ0/y9ZV++uknfhtrZapVqxYfCC6Ho4cP4q8/lquV3Nu3xa2VCw4JRbMWrcoLG/iv5O3to3ZbhOJxq2ravEX5bTEN9HdpBQcH44GHHtYqbJZbVcjKuIWiwkL++7B0ycu9jfoxjcV3JvaEWpUMZ+jPZY2uNlW0HYl1qG1LEl0nEqE1a/E3QEsqKS5G0rV43FGEMilHTp5Bhzat8PrUaXxdpBlvTMEVHRdua/KqVg3tO90jasCNGyl864xAlQuwErvt8uU4PuBcaf/uHeVdU+a4U1yKIjZC3gRsTFLjxvovbKyliXWdSWHdbW3btuVjkQ4cOMAHLFuCp5sL3M1opWjTrgM63dNF1MqC5oVzZ/lxeM0IDB7+CD9mzpw6gR3btooa8OwLk8q7FdPT0rD817IgKIW1WD097ll+7OPjg7qKOpvd1rLVXXhz+ht8AoK1se7qiMi68PD0FGfkl6v40HIjMQGTXn8HEyeMEWeJvZEKAMa0lEgFK2sEBGsytBXJGiGpsp3/GWV3m6UWkVTNB46+JQmjFpLCAv3hW93fokGpsoDEsJD07z9rcFebNnyvLrbhrdL3ixYhLu6yqDmH1m3biaMysZevIMXEpRBiYmKweXPFfl9sMDSb9q8cEM8WzPzqq6/w8ccVK55XheZNm6JWhHrX6qGD+w1eK8laIUkVC0wjRz2Ojz98H63uugsDH3gIsz94T9xqXZYMSsqAxN78XpryLoUkB2BOWNLVAuUIYUnzedH1nFirFamykGTJ/dqUnC0kaY1Jup2dhZvJiRb5wQwJSMyb06bi4IH9WLzwGz6j59DBg+Ul/Va6uJfz6Nylm1oJDQ8XtxiPdZdFR0eXl3///RfPPPNMef2993Rf1NnSAKzLTV9hay3JIbJOHbRs3UateFqwZURuN1JuwNfXV9Ssj3VnJyXE865tObEuNmVAIo5D6sKuK/xoYsFBKjywgCEVvuyFoQGJODbJgduWCEqGBiRm7T9r+CJ6UoUNiCXyUt04WN8mwmxm3IwZM/QWtjClM2Gz+VirESts5382qL1V69YYN/55szegNZfcQYkFpJTr1ywWkNgnVEsVUjkWlDTDEgtKcoQle6cvINlKKxKxDMmQxMgZlHhASrhqUEAi1nX9+nX07duXdy+xrrfevXvzc1LYwG7WVaev6Pq3jqpmRC28+PJrvLB1kdi+fS++9CqysrLw92rtwfHWJldQkisgSQUYZbEkqe+nWUgZc1qVGEdoVVJ9rIYGJFtCm9rKR2tMkiZzxyiVB6QC2993y1ax2Vaq4q8lIDVNnm5HNkaJrZbN1uFh3Vlsh/l+/frxRSU1hYeHo2vXrqIm7fDhw7hy5YqomS48NAT+1dXXXEpJSjR44HtIaJjatP/EhGt8x36GDbCuV79i09hb6WlqMwbZrDYl9rq9dNH+1yPy8vbmY5RM+TtmY9YS4mJRUlIszlTQNSbJkUKHs3Yt6go1+kKDJl0hwpItLubS/LltoRWJsYXxSIzq37ZTDtzWxJ6QmpF1UM3btF3+MxUXoPRUeTbiJGXMmd0mhe3F1r17dxQWFmLr1q3Izs4Wt6jr1asXvvnmG1zVs8Hu3Llz+Tgnc5kzu616YAgys+T7hMeeF9fSYni4aTe8stmCqmFMVb4ieLJZjlXN3cMDEVF14e5u+orl+Xm5SGYtSRor3itDkhyhyJJbHMi9K7kzBSepsGRMUGLsJSyZGpCYqu5qs5WQ5EgBidEbktiTERIeAT//AHHGNGmKC0VWhvMNuJZLUHDFMgLMrcxs3M4zrWWOjaFhA7C3bdum1SrDuty6dOnCW4Nyc7U3LGYhacyYMRg9erQ4Yzm1aoYjwL+6qJW5fu2qQS1JYbXrSD5+Y7EWFPY3wJZD8HJ3g5eH9nitps2a4Z0PPuLHHooQwgZrZ2RmwM3VjbdATZ38Kr+tqsgRkJQ0g9Kl+LJ9FY1hySBkDnNDlKOHJjlalRhbDUvGBkFrBiTGFqb+K1FIEuQKSEppNxVByQlnpslh/Isvi6MyGzduxKlTpq2/06BBA/z3339Ys2YNJk6cqBU62Aa3f/31F1asWCHOVLBmSOrfvz9fg0rVLz98z5eEqIxcIYl1ObIFM/l+djpCkqr6MTEY/shIvgQAWyV++sxZVRqS5AxISps2bRJHlbPVQGQMU8OTo4YmRwxLprSUqT5+azxmZUiy9VYkxtFCkuTAbbkDEhMcGg7/wCBRI1UpPj4eAQEB+Prrr3kIULV+/Xp07txZ1Jwba3Vji2Yaol37Dpj96WflswPdFf8vkaFLtE7dupgw8UW8MnkKLwPuf8CgpRDkDEgsGCmLPuxNU7U4As2fydCfi72HqhZHoSsQ6Ao9urAQIhVEWGBRFkvT9X2MCUjWoNqKRKxPKyRZIiApmRKU2EXKkd5kbEF+fj6eeuop/twuXLhQ7aJ7+/btKl3fx5awwKNcVFIXbx8fTJ46DdPenIX5X8xF02bNERYWjn4DBqotgmqqbxZ9j+LiEqTevIG01Ju4T/F1f/9jNWpHRop7aJMjIBkSjEwJD47AlJ/bkQITC0pSYYmFB7nCEmOpwKQvHBkbkKqi5UuTtVqRnJVad1t4UIDFApIqQ7re2nfsiIkvvoymzZvxmVc/Lvkey375uXw3dGfSb8D94qjM0WPHEa9n8LQ+rLvt22+/xb333svDEWtNCg0NxbRp03Dr1i0emlhrEjuvic2Ei4iIwO7duy3ejNqsaRNEaGxmfOTQAYNW3Jaru00pMTFRZ3cb236k/4ABWDB/Hg+Y9w28H69NeQPxV+LwyqSJBnUP6nPizHm0ataYd9+xvevYIPIhw4bj5dcmY/AD9yMtreINkjEmIGU11H5sbEFQTscST84UhsxhTDedvXdJ6AoxlQUOKYaGLGPDSWVBy5DHWhUByZYGbDOqIV/Xe4FDj0lq2rghfP2Mf2Gb4pbiU3F2lvTCkJOnvoF7e/fFF3PnYNOG9fxT8wsvvoQOHTvhkaGD+Ho9zsyc2W2qIYlh3W1vvPEGxo0bx4/37duHJ554QjJktGnTBr/99htu3ryJ33//nY9b0rXHm7nMmd1mzZDEWpqUW7oosRYodk6ON4jjp8+hTctmeOf9D7Hzv+3YqPh7YL6Y/zX+/GMltqtsp8IEBoeiRrD0m6mSaji6Xads0+DyMW5lO7eUUQlK1ghHpo7/MURVhztDfzZ7vqjIGZYYY1ulTGHoY6uqFiQKSVVPLSSxHeCtpSA/D4lXpdfTOXDkON59exb/ZK5q7LPPYdnPP+GfNX+LM87JnJDk5eWFqKgoXLp0SZwpU716dV6SkpL0vrBZF93999+Pzz//nA/63rlzJw9ObDA5a+WQi72EJEt778PZ6Hz3PQgMCsLMaVOx/t+1/PzsT+fgn7//wq6dO3hdqbKQpBmQdE4AUISldu3aofoF9RmG5rJkEDKHNUOUIwcmfS02poYlRu7AZMxjoYBUgUKSjYQktsHtf4pPyJqf0Fvd1Rrzv/ycb0/iTBo0bCSOyiQkJiO9CrdnYWOWWLcMm+02aNAgDB06FLVr18aqVat4K5Ucq243iIlGmMYbw5lTJ3HHgJWjrRmSmrdoiU/nfiFqFU6dPIG3Zk5HngyPI7xmTb4eE2vBY11uDBsLxboeNf9GDAlJ5a1HK6QDUtMhTfn/feLL1kYzNSjZaiAyhqXDk6MGJkuFJVXGBCe5WrOsOQaJQpJtsMmQ9NjjT/DxR5pP8D1duyHxegKuxMWJM9YRFBIGXeN32UUqXeWFGhwapnghiYoG1vKSkW78MghyLgHAth5hi0fqCjJsW5I9e/boHfulDEktWpStBM666Z599llMnTqVj2369ddf+Xlz2MISAEr6QhJ7PmsEBvLjyMgoPDR4CBbM+5KPG8rNvY0fly7ht1mLvpCkbEXiLUgSAYm1HCnl1i17/owNSuYEI0u+oco5YNpSwckRA5M1wpKlUEDSpvw7cpaAxJgUkjopPtHqsz80VBzppi8k2Zpnxr/AL4ZS2Bo6y36suBCOm/Cizk1i2cDo33/+QdQMJ/c6SapjkjSxr/3OO+/wwdm6KEPSsGHDMGLECAwePBgZGRm822358uX85zSXOSGpRkg4MiS2VTEVC4xuKIWnu/6ZbnXq1sPIUY/zdZKCFW9sbMr+zDemiFtN8/W3i/mmuVI+nf0RDh86KGplKgtJ5V1sKmOPVMORKtWgpCskGRuKbPWN05wQVZWhyV4uRPYUlqRaqKoqIDHUilS19L/rS2AByc+rBA9UuylZ2PNYWYiqTMdOnfksIalSu7buqc/EMGxcUdu2bSVLSkoKWrWq2LtME2uFYgO7AwMDsXr1ah6Y2AKTLHSxmXFyBCRzZabdgEtRgVqp7u0Jfx8vg4q7a6nav/XxcIVHJQFJU+MmTZGm8iZmKha43pn1Ji8fvPs29u/bh5iYBggIqKEI6IZ3uaqORTIkIOnD3giVpTLsjVK12CrNx6kshlB9Pgx5TgzFLkSVBTB24TIn4FkLCxm6ggYLJcpSlXQ9BmsGJE221IrkrIxuSWIBKMivGA96S+9J9VNqLbAxxZW1JulrSXr51ckICw8XtbLZQt2690Co4gL92suTrL67elW3JLXvqL6444VLsUhWhBlTsJYk9kbONrLVZcGCBfjiC+1xNmyRSTarjbUisVajdevWWWxJhrpRkQgKrCFqZS7HXjJ5N/uxit8hmx5viA1r1yDucqyo6RfToCFef2MaP/aqVg0hwSFITLzO93ObNGE8rl2N57eZgy38OfyRR/H4k0/h0sWLWPLdIuzZtUvyIq6rJUkZkvZn7S8PSYYEJNaapOxyO/ytjnUBVBgaLOyVKYFEzpYmQ0KYvfwO9LUuMdZqYdIVzqoiHBnSzcZUZVcb40wtSWaFpMwo9U1vA67lyhKSlNiKx0NHPILRT45BwrWrWLrke8kB3ZbWsUt3nYsKspBw/JBYW0ZB/31zFfc9IGqmk3MJAGPUrFmTr62kb4NbuZgzu02KpUISe402bNRY1CqwcXO3ZNiG561338eDDw/C9q1b8MOS7xAbW/a42BuQ1KBwuUPS4VxFMFK2POnISI4ejPQxNjRZMzA5SlhSkjM0VdZqRQFJG4UkBVsJSZFRUXhyzNP84rBl0yb8uPR7nD9XdU2eeYUl0PXrZi8bb4+KUJSruK8u7JpfzchuG6Zx02biqMzVhOtISzetW6tu3br44IMP8Pjjj4szhmOLTlZ2YT19+jSuXbsmaqZr3LABwsPCRK3MyeNHUVBQIGrGsVRIsrS9h46KI3XsDWj0Y4/wliVVlYUkzUHbun6fbJNjlE1yKwtJGgGpb9++/P8NGzXHV/Pn8mNiXGiiwKTN0MCkZGhwMrQrr6q61kwZh8RQSLI8m+xuO3ziNP+EvuO/7UhPTxNnyyz8+mve7WJNVR2S5By4bQ425X/RokW4ceMGr2vOlGMDjN99990qn90mxVIhKbp+fYyfMFHU1J07dxZLFi8SNeswd+A2D0dKGiFJGYxUUUjSz9DQJFdgqiwsMY4amMxRleOODA1IDLUiWZ9Js9u6pt9EoK/67vFKN7LczZ7d1qdvP50XtN07dyA7O1vUrMMRQxJ70bPus8jISD6FPy0tDZcvX+bLFOjCQhIbtP3000/zer169XhoUl482ay48+fPO1VIYtuFtGlbFjJCFK/7Ll278XW8fHx80KNnL0yd/Cq/zVoqC0mMriUA1KgEJPa+4H9R+hM7hSTD2VpgsrcLmdyhqSqDkZI9BCTGmUOS8VdshV1BoTwMSRVDAlJlNm/ayFcWlirWDkiOiF30Nm/ejEOHDvFAs2TJEmzduhUnT57EpEmTDH4zZ/dTHX9V2WawjigzI4OPF2LlwL59SE5K4se7d+0U9zDP2g2b+WrbmoWtxM32NzSGMuj4XvVFi+EtKoKQJnG+k38nvQGJGIddOFSLLuxioyzmYBczfYGL/f0a+rduC1iokSqVkfo3rFQ1UwMSsS6TWpLkoK8l6fHRT+KXn34sfyOZOettuLm749CB/Vj7zxp+zpqquiWpTbsO4qjMpcuXkXLDtGUWgoODsWPHDnz88cdYs2ZN+ZR9NiC7ffv2fLwSm8rPZq9pYrez1iK2LQnDZrstXbqULx3ABrAvW7YMP/30E9auLds6wxxRtSIQWEN9o+UrV+JQZOLWJwMfGsRbzAxxcN8eJCUmiprhVNdJYi1M02fOMrsl6eKVa7h+PUHUKgQFBeOliROwbctmcaaMvpYkRtmaxJR3vWlgi4SyIMVUFpCoJUkehoQVOVqYHK11yR5phiNGX0BiqrIViVF9fTpbS5JNhiS2LUmHNq1QLLp+2CafbC+30U+NwZvTp+HE8WP8vLVUdUjSZM7sNtaNxbYSef7558UZdf369eOLQ0rdzrbGYK1PLARdvHgRo0aN4t1rbF0lFrbq1KmDLl26IMvMne8ZuWe3WUN1f380btJEEeYPyBaS9hw8gskvT8Ke3bvEGaBmRASW/PiL4mu/ovhbOC7OlgkIDEZAkPTik6qyG1W0yN6uUzFLzvdqxWQMQ1bZbt68Nb788jNRI3KwRmCisFQ17DEgMRSShNZ33SWOLK+w8A5uJklvjbFj7348+/QYnDt7htff/eBDzJoxnU+HPnb0iNX3bqvqkFS/QUNxVOZ6UjJuZZi2ojQbpPvJJ5/w1qD8/HxxtsLkyZNRQ3GBnzlzpjijrkOHDnz7EbaIJGs5+vnnn/Hggw8iPDycr5skx8w2xpy922wBC5RsfNKWzZvEGdN06nw33n7vA9xIScYfK1egXfsO6NuvPxZ+8zV+XPK91puRq5sbIiLrwNOrmjijm2qrkiZDuthuZ2dhxGNj8dKLY8UZIreqDkwUluRDAck+qYWkurUjEF47yqA/THMUFRUi6Vq8zq6Te/v0xfsfzuatRxvW/Vv+pL//0cfYq/hEbe0utweHDNfZVcMWZdz0b8XjeXjYIzrH5mQrLiqb1xnfFSXnwG32u2Xdaa1bt+Zfh4Wa4uJi3g3XsWNHREdH85Yma6yFpI/cA7ftGXs99VEEo67duuHSpUtYtWK53sVAjQlKpmIB6UZyIl56/R1MnDBGnCWWUtVhiaHAZDypYMRUFo4YzXFIFJKqhlpICgv0h7ePr0WDEgtGSQm6A5JSTIMGilD0CZ99xVoP2ONha+SMGPKw1QdvO9LebQy76LIZaWwz26ioqPLZbWz6N9t7jf1MUry8vMBms7HWJuUyACzIvPLKK/y2H3/8EZs2mddyomRPIYl1rQ0YeL8ilHiJM2WuKwKouS1JprJkUFIGJMW7IV6a8i6FJCuzdGCisGQ+XeGIsaeAxFBI0ghJjKWCkqEBSRW7AHmKgMIu5NZebZtxtJBkqq5du/KuNta9xrBwtWfPHhw7dgznzp3Ds88+y1uh2LG57CUksb+RbxYvwZW4y1rhMv5KHNau+VvUrM8SQSlHEZBuioDEOGJI0neBcwT/GBGg9AUmCkvazA1HjC0FJIZCkkRIYuQOSqYEJFvx9LPP61xjh10YVYPP2Ocn6uxuy1CEpOW//iRqhuvQ+R5xVObCxYtISjZt7za2+OPEiRMxf/788tYghq3rw8LdCy+8gB9++AFJSUnilgpPPfUUX7GbzXBj2EB/NiaJhRnW2jdjxgzeDSS175ux6tWJQnBQoKiVuXThAh/LZktYi+fjT47BO2/OEGdsi5xBSTMgMfYQkhw99FSFyeL/Ss4amAx5bRkajhgKSLZHZ0hi5ApKbJYaC0imbk5K1Jm7d9u2bdsQFxeH4cOH813/GRaeWEhiA7ZPnDjBxy1peuaZZ1C7dm2+qjYzfvx49OnTB8OGDeP1J598ks9we++993jdHPYyu61ps2YY+MCDmPPJx+KM7ZEjKEkFJKYqQxKFH/tT1Rd9cxj7ejMnHDG28FxRSKokJDHmBiUKSPKTY4Pbv//+m4cbVpKTk8WtwNChQ/nK2qy1SVO3bt3w4YcfYuDAgSgsLOTrLLEZbZ99VjYFfNasWfxrsa9vLnsJSawbdunPv+L3Zb9qLX2QnpaqNUW/qnhV80ZEVF2T/o7ZwP7r8ZfLl+RQZemQVBVByJiLmz2SuiDbG0sECDlea6a8dmw1IDEUkgwISexJYm+u7E3WFFkZt5B2o+IiTIzn6+cnjspk5+Yjv8C00KkMSffeey8PQo899hhGjhyJ+Ph4fjvb+JbNcmMrb2tiLU1sYDdbF4ldONkA+vvuu4+PFWOvE9ZNN2fOHByXIRiEBgXCz1d9A+XUmzf497U1jRo34QugssHrqqpi7zYpHp6e/G/Yzc2wxTSlFOTnI+X6Va3nX46QZOkg5Oihpyo4QtCSg7mvLVvrXlNlSEBinDoksScpLKI2fPwqX1ROnwzFJ+pbaaatEE3kHbitGpIY1oXGZqfNmzePDyyfNm0aH3O0evVqfrsm1nLCBnB7e3tj586dFptpSEsAyEOOgKQkFZSMCUlyhyEKP/bHnsOVnK83W249UqJWpDI6Q5JcAUmJgpLp5AxJbB2kuXPn8lloSuwP4OWXX+ZrJf3xxx984HVVv+DtJST5+fmhcdNmoqaO7et26eIFUbM+tiRBzcg6sgQkJc2gpCskyRWIKAgRKZYIW9Z4rel63LYWkBgKSWUkQ5LcAUmJgpJpbGUJAGuyl5AU06AhXn9jmqiVYduTREXV4fuqvTVzujhrmtqRkbieoL13W1h4OJ8tqWsFcksEJCXVoMRCUsELT4tbTENBiDg6ewpHjCEBiXHKkFQWkCIVAUl9HIxcWEhiYckQ7LG0bNWKX3S8vKrxMR97du3Uudiho3pg0BBxVObgocN8dpoja9WyBSJr1xa1Mvv27EJ+Xp6o2R629EP/AQMx9tnx+PefNfj5x6V8AVRzHDhyHB3blm0X1KRpM1w4f46vFfbpZ5/zNZi2b9vKb1NlyYDU38zFQikQEWehr7XLVsORErUiVVALSeFBARYNSEqGBqXP53+N8LBwpKbe5BcbVhYv/EYREC6Lezgnc2a32Qt72+CWtSi9NmUqcnNz8fmcT5Eg0x52bLPnti3LuvP+/nc9Jj7/HK7Gx2PO51/iH0VIYq1VqlhAYn/Dbu7SC5qqUquKaF4AAB1NSURBVN3kVpNyc9sBW7RDmCHsPQxZojvHFlBItazKXje2Ho4Y1YDEUEhSCUnNmjRCNW/1GUWWkpmRjuyMDFGTdujYSXRq19omZzRVJQpJtqOatzfGPTce9w18AN8v/hY7FW8cpWI7ZNYVxsYlmUM1JK1ZvxEvKkLSlbg4nSEpMDgUNYL1XwhVN7a9Xee2OAJaiS7csLP8f4g8XPb/ytj6hddRA09VoaClzpDXlz2EIyXqalOnFpLYCsrWUpCfh8SrV0RN2vwFC7F3z2788tOP4gxhKCTZjuYtWuLTudIrjB/Ytxdvm7kS956DR/DnyhV8xfdRT4zG1s2bcO3qVb4J9KwZ03DwwH5xzzKVhSTNgKQMRpp0BSVbu0BSALIvztbCaE/hSIm62tTZdEj6n+Li07dff2zetFGcARZ8NQ+XLl4UNefEApJqRvIPCECduvVEDbhxIwU3xAKRbMq+6uyrnJxsXLl8GWzNo6bNW4izQF5uLmIvXeT7sTVpVjFg+nZODuIux/Jjtl5TdP0YfsykKd4wkhKv8+PmLVuV/3HdKSjgY2cY9j2Ue9mxBSjPnz3Dj7W/1k3F10oUNfCAZEe9bRbTomVLtGzFWlOLsF8RulgoCwiogbS0VGzeuEFrL0NDQpIyHCmDkKYbTcv+z25vV6MGmh6Xf2yTMaoiCNnjxa0yVbEwpyVYKmjJ9Tqz59cOtSJps+mQ1LZde77BraqD+/fx/cFIhfoNGqLfgPtFDTh88AAO7tvDj1kYeWLMWH7MJFy7in9Wr+KD4Mc8+7w4q7gwpiRj1fLf+B5uo595VpwFEq8n4O9VK/lx7ag6eFBlEPmpE8ex679t/PjZFyaV71mXlZmJX8Wmv08/NwGenp78mAWun5Ys5seaX+vksaPYvfM/USOm0heSlK1ILCT1WSHdgsRCkVJco2JEXygLuJYOSpYOQo4YeqqKo4QtuTjSa8vYViTG0UOS9E6sleh086beIpcjhw/xMReqhQIScVbsDax9x46Y8OIkTJj4IkJDQ8UthpPqYmPBSFk0saAkJxaGpIqp2AXKkELko/ncss1u9ZV/FBdbVhyB5s/OiqMwtBVJlaMHJMbokMRCUPVqJXjYN0WysOdZzqCkirV+6NphnxBHxcLQuPHPY8PW7Zg6bQZKS0r5TM8iIyY0qI5FUu1mkwpGUs7epb1vW2XkCkNSFyZlIVWPXSiVRQpreWBFGZZMKaqhy1KkXl+axVGpBiSizujuNhaAgvyK8aB32e7xmn5KrcXHy+yv5FOuId1tmmbMegtHjxzha9CQCmw8UtcevUQNOH3yOI4fPcKPfXx9MWjoCH7MJCclYuumDbwLbNijo8TZsn3RNq5bC29vHwwe/og4W9YNt3nDOn5cM6IW7u3bnx8zF86dxaED+/jxo088CVeXsgCbnZ2FNX/+wY+HjxwFD4+y7rbc3NtYvXI5P9b8WufOnsaRgwdEjSjN/nQOHnjoYSz/bRl+X/YLzp8rG+uli67uNmVIisnaXx6SDAlIhnS5mRp+VDnyBcgZ6bvoGtpKIUWzq0eTM7RsWIKhrUjONBZJyayQlBmlvlxAwLVcs0NSkyZNMfGllzHphefxyZy5CA0LE7co3uBjGuDTjz/CX3+uEmcIcWxs4sLoMU/zFbz/UATMP5YvR6IYLC/FGiHJnFBEYci5VNZCYWpgorAkH83fEYUkdTYXkmIaNMAz457DjDem8DViRj9W0aox7rnnsWXzJgpJxOnUrVcPw0Y8gsFDhvGZbWwNpjdefw2xly6Je5SpLCRpDtrWF5SU45HSD2QbvGaSKgpERMlSYYnRF5goLFWOWpH0s+nutjHPjMOS7xaJmuIX2OteXL16FZdj1S8MhDgLN3d31K9fnx9fjo3VWmi1stltUtP/VYPSYZXFL1WXAqgsJFEgIobSF5gsFZYYCkzaDA1IDIUkBUOXAOiSfhO+XtKDRrPy3LAvpPJZN6aMSSKE6GfuEgBKqgGJUQ1JG/r2FUdAw0bN8dX8uaJGiOEoLFUtzeefWpGkmRSSGF0z2CprQVKikERI5dhkhQ/efUfUKjz62CgcOnhAa2FVfSGJUQ1KuhaU1AxIp4MqQpEmCknEXPrCEkOBSX6mBiTG2Z4zk+fTszAkVeTw7XdLsHHrdiz96Vc88OBDfOo/Ic5oqMpMwzffegc1AgP5cYeOnRBVpy4/Nob/RX/+f9+rvjjRogUPRJqFnY/174S9ig9N+gISIXJgF119F152ka4s7OjCLv76AgALC5WFNEdjTEDS5Iyh0iYXHXr91ZcxetRILF3yHQY88CC2797HLxCNmzQR9yDEPGy7FrY8gmpRXYPLkPW42H2k3mDZOeXX1Az4ml/XmHW/OnbujICAAFGTxsYoFd65o7d4n66GosJCeMV64rx3WxxV/F0pC6uz8+x2dj+pf69a3MWWM4SYSxmWdF2I5QhLugIB+5tVFkem+fNVFpBMfb4dido7NOsCu1OQb5XC3mB1yczMRHJSErZv3YIXnhuHsU+NRu++/fDP+k1oprLfGCGmYoszHj99Tq2wlawZb29v7Nxb+ZpNb7/3PsY+N17UyrD1p9as21j+NY+eOotnn58gbgW+XriYtwIpfTD7E/Trf5+oaWNvamywdrVq1eDnVx1BQcG8ritc5WRl8n3ePBSPQ18JuhLMC9s41z8xoLywuvI2qX+nWvLzbqNh44p9/giRi6XCEqMvLDGOGpiM/Xk0n2Ndvw9HpzYmqU6tmqhZOwouRny6NQULSEkJ8Sgukl7FNzAoiO8h1qxZc4x4dCTfPPXv1X9ixe/LtKY8m6JX7z5o2qxi09crcXFYt/af8hdBl27dcFfrNvw4Py8Pa/9ZgxSxYezDg4egdmQkP1bavnUrzpzWPxCW2BYWiPz9AzD7g/fEmQqKvwkcOHoCTWIqNg3WxELK7gOH+V54wwc/LM6WvXa379yDoYMe5OOFgoND8O4HH+KF8WX74f3y+wos/nYh32KHmb9gIbYqjletXMHrmuZ+OR9du3Xnq2vzDW4VHxJq1GAb3KbhycdHlr8uVbm6uiFc8XdcTRH2LCU78xbSbqRg0uvvYOKEMeIsIZZR2QW+shaRyhgSuuw5JEg9f8a0IjlrQGLU0lB+Xi6Sr19DqcbO4nKqLCAxH378KRZ9/wMeeWwUVq5Yjh73dOIXMzkCEsMW6Ot89z38Isl2VJ/yxnQMvP8Bfhu7yC349jt+nt3epGkzfiFTGjJsON+JffiIR9GmTVsMUoQmtlM7sT/NmjfHE08+xQtbxNQYzVu04H8n7PXBWneUbqWn44u5c/D1wkXw8/PjaxopA5IpXpk0ER3atMLd7dvg5YkT0LdXd16/r08vyYDElJQUI0Xxd8wCviUoA5Izv3ES62KvNX2vN7lalxyxhcncgOTs1FqSwgLLBnVW8/axSIuSIQHJGlgIO3vmNH76YSmvv/n2u8jMyMCXn3/GWwhYd8mfq1Zi8cJv+AusW/ce2PFf2Yumbbv2uHjhPD77Yh5f1DIuLk5xsUpCqgxbMxDrYS1JDz40CCdOHOP1DevWYevmTfzYkJakF19+he+pFhlVh7dyrl5Vtg0Lw14zX361gP//xQnj1d7cWUtSTnY2rl29yuusVfOreV/obEkyhyValDQD0ktT3qWWJFIlKgsrlQWByhgaFGz1w4Ip4YjR/Llt9eezFskUZIkWJVsJSEqTXn4VW/7bha07dmPA/Q9g65ayC2SJ4meeqPjkP37CRN7axF4gyoDEHDl8CNmKi5zS6VMnKSDZqf+2b8PU117lRRmQDNXr3j7YtnUrHzfXo9e94mwZ9pp54/XJaNS4MZ4eO06crZCTk4P0W+m8sJWzLYW1KCVfvypbixK1IBFbwl6H+l6L1mhdYlgYUS1VTdfjoIBkGp1NRXIGJTZThr1Z20pAYn5b9gsuXDjPQ06vrnfj1MmT4hYgLu4ypk99HZ/P/wo1IyLEWULKsBaklq1a8R35nxzzDLr36MkHU6u6fTsHE54bhxcmvaw2UJv5Z83f+Hrel7zEXlJf50hu7O+XB6XcXHHGNBSQiK1ShiVdr01lWLJGYGJUA5NUWLEUXd/P0MdNAUma3v40OYISC0isBYn935bcSEnB+++8hW49eqBWbfWB2MzG9evw58qVmPf1N3y6OHEu7M2GdbspC5vxptS9Zy8cOnAAM6dNwdTJr/BxSG3atuW3sYHaP/yyjK9nxF5jn336MWa9qz043Jp4UEq8htvZWfxv2tiSmZ5GAYnYBX1hiTE3LDGqgcmQ8KEML7pCjDkq+7qGPD6GApJulQ46Ym+SLChlZ2UYXzIzbDIgKV1PSMDS777jqxorubu7Ky547fjx/xQXONYd8vob03idOI70tHSkpkqvGs+wNwk2LklZtuzYDTexJlB0/fpYueJ3HDp4kJc1f61GTEwDflu6IlCk3ryJvQeP8H83/c23sGPbNn4bw4JTxq1bogbcVNw3XRGyLI0FpRtJ15F0Ld7okp56g940iV0xNCyZG5gYc0OTOUUXQx8LQwFJP8mB245OdeC2t48PNm7ZjpnTpvIxKtWrV+djlZb98jNfmI91t7Vr3x79e/cS/7rMou+X8oHbrOuEEGdFA7eJvdAXKpQMDRaGkiOEGcqUx04BqXJOGZI6durMP8HHXY7l9dZt2qKwsJCPT1LWe/ftC1cXV5SUlmD9v/+W36bUo2cvnD9/ji96SYizopBE7FFVBCZVcrVgmUrq+1NAkuaUIYkQIg8KScSeGRKWGEsGJmujgGQceRdCIoQQQuwECwfKog8LFspir3Q9fgpI+jlkS1K1at7o0KmzqFkPWyTw6JFDokZsXZ160ahbV/eCkZbCpv0nXk8QNftGLUnEETlSC5OuYEfhyDAOGZKCQ0Lw0ZwvRc164q/E4YO3ZoiaYaLq1MMjjz8hasRUm9avxfEjR0TNMA8OGooHBw8VNetZ9tNSbNu8UdTsG4Uk4ugMDUyMrYQmfS1eFI6MQyFJRqaEpMZNmuG1aTNFjZjq56XfY8e2sk1jDUUhyXwUkogzMSYwKVkrOFXWFUjhyDQ0JokQQggxAAsaqsUQyrFAmsVchn49Yx4r0UYhSQV7IZUUl9ALiujFFmZke/wRQpybMoAoizE0Q46xpTKmPCaizelDEusi++2Xn/HOzBmYMPYZPPf0U3he8f+3Z0zDrz/9iLjLl8U9ibMqKirCgX178c28eZjyykuK18gYPDfmKbw84Xn8b/ZH2LhuHbKzssS9CSHOSjUwWTukVNX3dXROG5LY1hFfzJmD9996C1s2bkTCtWv8YsiwjXivJ1zHts2b8eE7b2PuJx8jJTmF30acy+GDBzH99dewaMECHD50ELfSb5W/Ad2+fRvnz57Fit+WYeqrr2D1HyvLX0OEEMJohhfVYio5vxbRzylD0plTp/DOmzNx6sRxcUa/M6dP491ZM3H82DFxhjg61p32y48/4pv583gwqgxbsX3t33/j4w/eo1YlQohBpMKOIYVYj9OFJPbJ/8u5nyE/L0+cMcydggJ8/eXnPGARx8behH758Qds32LcbDnmyuU4zPn4I+QZ+foihBBieywQklwQEByFdnf3w9CRz2LshKm8DB35HNrf0x+BIXUV96mabMY+4S/8aj7vTjMFG9T97YKvkamyiztxPHt371bbud9YrKv25yVLRM363L380bB5J/R/cBSeHPcqxr04DY8//RJ69R+OOjGt4eJWTdyTEEKIPrKllaDQevwNedf+wzh0eA9+W/YdZn/0JqZOmcjL7I9mYtmvi3Hg0C7sOXgYY56bjOCaMeJfW8fqVX8gOztb1ExzOycHf6xcIWrE0eTn52P5sl9FzXQH9u/jrZbW4urugx59huC7n1fi7PnT+HftSsyfNxszZ7yCKa9NwFuzJuPbhZ9hy5Y1OHfxPGZ/thB3te8NFxd38RUIIYRoMjskeVcPw8z3PsP+gzv5G3J4eKi4RbfQ0BBMn/YS9u3bjndnfwnfgJriFsth4Wj3jh2iZp79e/ZQa5KDYq8RFoTlsP7ff8WRBbl6oEffoTh45DAWL/4C3bt2Ejfo5urqiqFDBmLlyqXYuG0nmrfuxs6W3UgIIaScGe+MLrin10M4cfIwnnxiuDhnvJGPDsax4wfRZ8AjbDlTcVZ+bMuK4uJiUTMPG9R75PBhUSOO5PDBA+LIfGdOnURubq6oyc/HPxxrN2zG4kWfw9/fT5w1Tr16kVi9+ld8vfhnuHn4irOEEEIY00KSixsmvDQDPyz5Spww34IF/8PrMz5UPCJPcUZesZcuiSN5sE1KiWNhIfqyjOtisTDNBnJbQt0GrbF33040alhfnDFP3z7dsGHzFvgHRoozhBBCTAhJLpj+1my88spzoi6fZ8c+jo8+/VLxLeRv+k9NvSmO5JGamiqOiKPIzMw0eVC/Lmkyv+4YNvh68+Y18PHxFmfkUbdubezYtRW+/pbv/iaEEHtgdBp5aNgYjHnqUVGT37Ch92PU05NETT5yX/zk/nqk6hUXFYoj+ci9uCQbv7dmzXJRk5+vrzf++HMFXD18xBlCCHFeRoWkyPqtMOd/74ia5bz95mto1LyzqMnD21fe8RY+vnQRcTQ+PvKPyfGR8XXn4uqBP1atkL0FSVNMTD18+tmXiiPLjREkhBB7YHhIcnHDvHlzRcXy5s//TNbpybVryzvWonZkHXFEHIWvnx8CAgNFTR61I+V73XXr/RAPMNbw0IP9FR+KWooaIYQ4J4NDUuv2vdCieSNRs7zo6Ch06fWAqJmvRSt53/Cbt2whjogjadFcvt9rjRo1FOG8tqiZx83dB59/9oGoWcecObMV/5V/fCAhhNgLA98BXfDuezPFsfV8PHuW4r/yNPk3bNgI4TXDRc08wcEhaNq0uagRR9K1Zw9xZL4u3XvAxVWekNGxa29Ur27dKfpt27RERJ0mokYIIc7HoHdwn+phaNrEuqtjM2FhoQgMkadbi12sHh4yTNTM89CQIXB1o0/YjqiBIky3aNlK1EzHuu769u8vauZ7cvRj4si6+sj4MxBCiL0x6ErfvmMXcWR9XXv0Ekfma9+xI9p36ihqprmrbRvc3aXqng9ieU88/TQPOeYYPcb8r6Hk4Vkdve/tKmrW9fyzoxX/pQHchBDnZFBIGnh/1X2aHDL4QXFkPhcXF4x5ZhwaNTatCyGmYUOMfe55/nWI4woKCsKkV19FtWqmbQQ7/NGRaNu+vaiZLyq6sTiyPraFkI9/mKgRQohzMSgkde7cThxZX4eOrVm6ETXzeXp54aXJk9Gth3FjT+7p2hWvvj7F5AsnsS/1Yxpg6sxZiKhVS5ypHHttjHv+efQbMECckUdUXevMaNMlOIQWlySEOKfKQ5IioNSuJc+AZ1N4eXoqHoKHqMnDU/E1Rz/9DF6fPh1Nm+kfgM1anV6dOhVjxj3LAxZxHpFRkZj13vsYMXIkb13Shb0uevbug/dnf4yOne8WZ+XDWnOqkn9AgDgihBDnUnlIKq36riVLdW8pA9Cnn3+OseOfx0ODB/NWgAcHDcIzz43Hx3M/NyhIEcfl7u6OvvcNwOw5n2HGW+/gsSdGY8D9D6D/wIEYOuIR3io5d958jBo9WvY1lpTc3dzEUdVwq+LvTwghVcWA7rYS5OcXiOOqUVJi2S1AagQGodPddyvC0WA+nuShwUPQ+Z579LYeEOfCZkfWqx+NXn36YMiIERj2yKO47/77+Uw4S7cw5uTkiKOqkZeXK44IIcS5GDQm6eTJc+LI+q4lJAGlxaJGiPO5nnBdHFWN9DT5N+klhBB7YFBI2rptpziyvg0btokjQpzTlbhL4qhqZKQmiyNCCHEuBoWkDevXiyPr++uvv8WR4UpLSpFxK93qJTsrUzwCYg/y8/Mkf4+WLgUFxnVf30q9itTUdFGzrrX/bkZxke7uNjdaVJUQ4sBc/P39S8UxwoNDFAHjjqhVcHHzxKlz5+DpIe8sM0M0adgExYW3Rc3xNG7SDK9Ns/6WL47m56XfY8e2zaLmeJ4ePxnT3nhJ1Kxn5KixOLR7g6hp+/SLxRj0MK3KTQhxTGofAz29pPeGKi2+g4ULfxQ16/nt99UOHZAIMdQ/f/8ljqynqKgYxw7tEzVpjRs3EEeEEOJ41EKSj6+/ONL27YL5KCkpETXr+Pijj8QRIc7tRuJF/PmXdbu9Z709G0UFerqQXVzQsEHVLnRJCCGWpBaSgkN1LxqZfzsV773/mahZ3tzPFyInI1HUCCHvv/22OLK87Ozb+OM3/a3Hbh4+cHenNZQIIY5LLST1v0//2IJffliIM2cuiprlXLmSgIVfzRU1QgiTdes6Xp9inaA06vGxKNEzYJup36CFOCKEEMekFpKeeXqU4oy7qGkrLc7HoyOGIzMzW5yRH1u4cvCgITQWiRAJq5d/jx9+WiFqljH59bdx9vguUdPt4UEPiyNCCHFMaiGpenVfhNfSPxAzLycNA+57iDfHyy2/oAADBgxGTkaSOEMIUVeKD95+A+s2bBV1eX3xxbf4a8X3oqabi+LD1FOjR4gaIYQ4JrWQxDw7/jlxpNvNpEvocnc3nD0r3yJ3sZfjcXen7kiIOynOEEKksNmmk8Y/jU8+nS/OyGPs2Jcwf+77iqPyVUF0atm2O7yq0YbPhBDHphWSRj8+DME164uabnk5NzHowQGYO3ehOGO6rxf8gPv796eB2oQYqrQYi776GIOHPoGUFPO2DTl16jy6d+uL/zavUtQqD0hs3bSvvvqfqBFCiOPSCknM7I9n8+m9lSkpysfXX7yP1nd1wLLf/hRnDbdy1T9o26Yz5n48k8YgEWKCU4e3o9s9nTF+wmRkZRm3ES7bF3HosNEY/GA/JF0zfH/GvvcNRc3wUFEjhBDHpbbidmZmxZooIx8bi0N7dK+0K8XdqzoaN22t+HQ7GA8/1B81AtTXXWJv4n+t2YhVq/7E+ZOHUXjHcgPA7QWtuC0PR19x2yCu7giLqI9e9/bF448PR5PGMeKGMmyds4OHjuOnn3/Hvt07kJmWoDhbecuRKl//mth3YBeqUVcbIcQJ6AxJ7A21a7e+uHn9gjhjLBe4uHnB3cOT14qK7qC0iO1ZZdybsqOjkCQPCkkSXNzh7ukNFxdXxd9zEYoL8xR/fqYvCOvm4Yu169cjJoYWkCSEOAfJ7jbG1dUV//yzCtV8g8UZY5XyJQMK87N4KS3K5+cIIVZSWoSigmzF318miu/cNisgscA1d/43FJAIIU5FZ0higgIDsHbdWvgHRYkzhBBn4+rujU8+X4AB/XuKM4QQ4hz0hiSmTp3a2Lv/PzRp1UWcIYQ4C5/q4fj73/UY/PB94gwhhDiPSkMS4+nhgTV//4axE6bywdmEEAfn4o6OXQZgz76daNyo8iVBCCHEERkUkpSmTpmIYyeO4oEhT8LFrZo4SwhxHC681Xj9lu345Zdv4evrLc4TQojzMSokMV5eXpj72fs4cfoUXp/xIRo17ww3dx9xKyHE7ri4o2ZUUzz21IvYums/bzWOqV9X3EgIIc5L5xIAxjp24jQuXoxDXNxVXE9IQHYOLQ5piMha4ejVu5uoEVMdPnwMZ87It02OI/Py9EBERATq1q2LBjF10a5dK1r3iBBCJMgWkohpEhIScTE2VtSIqcLCQtG8aRNRI4QQQsxndHcbIYQQQogzoJBECCGEECKBQhIhhBBCiAQKSYQQQgghEigkEUIIIYRIoJBECCGEECKBQhIhhBBCiAQKSYQQQgghEigkEUIIIYRIoJBECCGEECKBQhIhhBBCiAQKSYQQQgghEigkEUIIIYRIoJBECCGEECKBQhIhhBBCiAQXf3//UnGMzMxMcUQIIYQQ4tyoJYkQQgghRAKFJEIIIYQQCRSSCCGEEEIkUEgihBBCCJFAIYkQQgghRAKFJEIIIYQQCRSSCCGEEEIkUEgihBBCCJFAIYkQQgghRAKFJEIIIYQQCRSSCCGEEEIkUEgihBBCCJFAIYkQQgghRAvwfyGiE/3Pk1W1AAAAAElFTkSuQmCC;fontSize=22;" vertex="1" parent="1">
          <mxGeometry x="110" y="340" width="215" height="199.2" as="geometry" />
        </mxCell>
        <mxCell id="MZbiuC9MWwI_tDUP7E_b-6" value="" style="edgeStyle=orthogonalEdgeStyle;rounded=0;orthogonalLoop=1;jettySize=auto;html=1;" edge="1" parent="1" source="MZbiuC9MWwI_tDUP7E_b-3" target="MZbiuC9MWwI_tDUP7E_b-5">
          <mxGeometry relative="1" as="geometry" />
        </mxCell>
        <mxCell id="MZbiuC9MWwI_tDUP7E_b-3" value="&lt;font style=&quot;font-size: 22px;&quot;&gt;Azure IoT Hub&lt;/font&gt;" style="image;aspect=fixed;html=1;points=[];align=center;fontSize=12;image=img/lib/azure2/iot/IoT_Hub.svg;" vertex="1" parent="1">
          <mxGeometry x="480" y="384.6" width="110" height="110" as="geometry" />
        </mxCell>
        <mxCell id="MZbiuC9MWwI_tDUP7E_b-5" value="&lt;font style=&quot;font-size: 22px;&quot;&gt;Azure Analytics Stream Jobs&lt;/font&gt;" style="image;aspect=fixed;html=1;points=[];align=center;fontSize=12;image=img/lib/azure2/iot/Stream_Analytics_Jobs.svg;" vertex="1" parent="1">
          <mxGeometry x="740" y="384.6" width="127.79" height="109" as="geometry" />
        </mxCell>
        <mxCell id="MZbiuC9MWwI_tDUP7E_b-7" value="&lt;font style=&quot;font-size: 22px;&quot;&gt;Azure Blob Storage&lt;/font&gt;" style="image;sketch=0;aspect=fixed;html=1;points=[];align=center;fontSize=12;image=img/lib/mscae/BlobBlock.svg;" vertex="1" parent="1">
          <mxGeometry x="700" y="160.00000000000006" width="97.5" height="81.9" as="geometry" />
        </mxCell>
        <mxCell id="MZbiuC9MWwI_tDUP7E_b-13" value="" style="endArrow=classic;html=1;rounded=0;" edge="1" parent="1" source="MZbiuC9MWwI_tDUP7E_b-3">
          <mxGeometry width="50" height="50" relative="1" as="geometry">
            <mxPoint x="890" y="550" as="sourcePoint" />
            <mxPoint x="670" y="280" as="targetPoint" />
          </mxGeometry>
        </mxCell>
        <mxCell id="MZbiuC9MWwI_tDUP7E_b-14" value="&lt;font style=&quot;font-size: 22px;&quot;&gt;Power BI dashboard&lt;/font&gt;" style="image;aspect=fixed;html=1;points=[];align=center;fontSize=12;image=img/lib/azure2/analytics/Power_BI_Embedded.svg;" vertex="1" parent="1">
          <mxGeometry x="1260" y="400" width="71.17" height="94.9" as="geometry" />
        </mxCell>
        <mxCell id="MZbiuC9MWwI_tDUP7E_b-16" value="&lt;font style=&quot;font-size: 22px;&quot;&gt;SQL Database&lt;/font&gt;" style="image;aspect=fixed;html=1;points=[];align=center;fontSize=12;image=img/lib/azure2/databases/SQL_Database.svg;" vertex="1" parent="1">
          <mxGeometry x="1020" y="377.7" width="86.92" height="115.9" as="geometry" />
        </mxCell>
        <mxCell id="MZbiuC9MWwI_tDUP7E_b-18" style="edgeStyle=orthogonalEdgeStyle;rounded=0;orthogonalLoop=1;jettySize=auto;html=1;entryX=0.057;entryY=0.364;entryDx=0;entryDy=0;entryPerimeter=0;" edge="1" parent="1" source="MZbiuC9MWwI_tDUP7E_b-16" target="MZbiuC9MWwI_tDUP7E_b-14">
          <mxGeometry relative="1" as="geometry" />
        </mxCell>
        <mxCell id="MZbiuC9MWwI_tDUP7E_b-19" style="edgeStyle=orthogonalEdgeStyle;rounded=0;orthogonalLoop=1;jettySize=auto;html=1;entryX=-0.058;entryY=0.538;entryDx=0;entryDy=0;entryPerimeter=0;" edge="1" parent="1" source="MZbiuC9MWwI_tDUP7E_b-5" target="MZbiuC9MWwI_tDUP7E_b-16">
          <mxGeometry relative="1" as="geometry" />
        </mxCell>
      </root>
    </mxGraphModel>
  </diagram>
</mxfile>
